<!-- Generated by IcoMoon.io -->
<svg version="1.1" xmlns="http://www.w3.org/2000/svg" width="24" height="24" viewBox="0 0 24 24">
<title>uniE906</title>
<path d="M21.643 12h-1.643v-10h-17v10h-1.357c-1.1 0-1.643 0.9-1.643 2v2c0 1.1 0.543 2 1.643 2h1.357v5h6v-5h2v5h8v-5h2.643c1.1 0 2.357-0.9 2.357-2v-2c0-1.1-1.258-2-2.357-2zM7 21h-2v-3h2v3zM14 21h-1v-3h1v3zM17 21h-1v-3h1v3zM18 12h-13v-8h13v8zM20.268 16.587c-0.842 0-1.523-0.683-1.523-1.524s0.682-1.524 1.523-1.524 1.525 0.683 1.525 1.524-0.684 1.524-1.525 1.524zM7 7h6v2h-6zM7 10h9v1h-9zM1 5h1v5h-1zM21 7h1v3h-1z"></path>
</svg>
