<!-- Generated by IcoMoon.io -->
<svg version="1.1" xmlns="http://www.w3.org/2000/svg" width="24" height="24" viewBox="0 0 24 24">
<title>calendar</title>
<path d="M20 4v-4h-6v4h-4v-4h-6v4h-4v19h24v-19h-4zM16 2h2v4h-2v-4zM6 2h2v4h-2v-4zM22 21h-20v-11h20v11zM22 9h-20v-3h2v2h6v-2h4v2h6v-2h2v3zM5.001 12.999h1.998v2h-1.998zM8.001 12.999h1.998v2h-1.998zM10.998 12.999h1.998v2h-1.998zM13.998 12.999h1.998v2h-1.998zM17.001 12.999h1.998v2h-1.998zM5.001 15.998h1.998v2h-1.998zM8.001 15.998h1.998v2h-1.998zM10.998 15.998h1.998v2h-1.998z"></path>
</svg>
