<svg style="position: absolute; width: 0; height: 0; overflow: hidden;" version="1.1" xmlns="http://www.w3.org/2000/svg">
<defs>
<symbol id="icon-type" viewBox="0 0 24 24">
<title>type</title>
<path d="M20 3v-2h-6v2h2v18h-2v2h6v-2h-2v-18zM14 5.342c0-0.104-0.195-0.229-0.32-0.318-0.551-0.411-1.16-0.679-1.836-0.803-0.676-0.125-1.465-0.187-2.373-0.187-0.658 0-1.334 0.104-2.025 0.316-0.692 0.211-1.28 0.467-1.766 0.771-0.563 0.356-1.019 0.762-1.37 1.215-0.351 0.454-0.527 0.93-0.527 1.427 0 0.476 0.127 0.905 0.381 1.289s0.651 0.575 1.191 0.575c0.605 0 1.078-0.156 1.419-0.471 0.341-0.312 0.511-0.658 0.511-1.037 0-0.356-0.052-0.745-0.154-1.167-0.104-0.421-0.154-0.74-0.154-0.956 0.173-0.184 0.473-0.359 0.9-0.527 0.426-0.168 0.889-0.251 1.386-0.251 0.724 0 1.283 0.148 1.678 0.445 0.395 0.298 0.7 0.646 0.916 1.046 0.194 0.357 0.143 1.166 0.143 1.166v2.385c0 0.281-1.357 0.67-2.844 1.167s-2.391 0.837-2.878 1.021c-0.388 0.152-0.762 0.355-1.206 0.608-0.443 0.255-0.78 0.543-1.051 0.868-0.346 0.389-0.595 0.826-0.768 1.312s-0.253 1.037-0.253 1.654c0 1.189 0.389 2.151 1.162 2.886 0.772 0.734 1.76 1.103 2.959 1.103 1.135 0 2.105-0.445 2.91-0.855 0.807-0.413 1.561-1.024 2.263-2.024h0.098c0.141 1 0.454 1.571 0.956 1.966l0.652 0.034v-14.658zM12.262 17.227c-0.4 0.509-0.892 0.949-1.475 1.324-0.584 0.373-1.26 0.561-2.027 0.561-0.725 0-1.321-0.211-1.791-0.635-0.471-0.422-0.705-1.082-0.705-1.98 0-0.693 0.156-1.293 0.471-1.796 0.312-0.505 0.74-0.94 1.279-1.308 0.596-0.391 1.238-0.715 1.93-0.976 0.691-0.26 1.398-0.498 2.318-0.767v5.577z"></path>
</symbol>
<symbol id="icon-box" viewBox="0 0 24 24">
<title>box</title>
<path d="M1 3v7h1v11h20v-11h1v-7h-22zM20 19h-16v-9h16v9zM21 8h-18v-3h18v3zM18 11h-12v7h12v-7zM17 17h-10v-5h10v5zM16 13h-8v1h8v-1zM13 15h-5v1h5v-1z"></path>
</symbol>
<symbol id="icon-archive" viewBox="0 0 24 24">
<title>archive</title>
<path d="M21 11v-7h-3v-3h-16v10h-1v2h1v11h20v-11h1v-2h-2zM19 6v5h-12v-5h12zM4 3h12v1h-11v7h-1v-8zM20 22h-16v-9h16v9zM18 14h-12v7h12v-7zM17 20h-10v-5h10v5zM16 16h-8v1h8v-1zM13 18h-5v1h5v-1z"></path>
</symbol>
<symbol id="icon-envelope" viewBox="0 0 24 24">
<title>envelope</title>
<path d="M1 6v13h21v-13h-21zM3 17v-7.866l15.544 7.866h-15.544zM20 15.949l-6.378-3.407 6.378-3.408v6.815zM12.088 11.408l-6.706-3.408h13.195l-6.489 3.408z"></path>
</symbol>
<symbol id="icon-email" viewBox="0 0 24 24">
<title>email</title>
<path d="M13 6h-6v2h6v-2zM16 9h-9v1h9v-1zM16 11h-9v1h9v-1zM20 12.001v-11.001h-17v11.033l-2-1.033v13h21v-12.992l-2 0.993zM5 3h13v9.909l-2 1.072v-0.981h-9v1h8.965l-4.492 2.408-6.473-3.343v-10.065zM3 22v-7.866l14.651 7.866h-14.651zM20 20.949l-6.378-3.407 6.378-3.408v6.815z"></path>
</symbol>
<symbol id="icon-files" viewBox="0 0 24 24">
<title>files</title>
<path d="M5 0v3h-3v21h17v-3h3v-21h-17zM17 22h-13v-17h1v16h12v1zM20 19h-13v-17h13v17zM15 5h-6v2h6v-2zM18 8h-9v1h9v-1zM18 10h-9v1h9v-1zM18 12h-9v1h9v-1zM12 14h-3v1h3v-1z"></path>
</symbol>
<symbol id="icon-uniE906" viewBox="0 0 24 24">
<title>uniE906</title>
<path d="M21.643 12h-1.643v-10h-17v10h-1.357c-1.1 0-1.643 0.9-1.643 2v2c0 1.1 0.543 2 1.643 2h1.357v5h6v-5h2v5h8v-5h2.643c1.1 0 2.357-0.9 2.357-2v-2c0-1.1-1.258-2-2.357-2zM7 21h-2v-3h2v3zM14 21h-1v-3h1v3zM17 21h-1v-3h1v3zM18 12h-13v-8h13v8zM20.268 16.587c-0.842 0-1.523-0.683-1.523-1.524s0.682-1.524 1.523-1.524 1.525 0.683 1.525 1.524-0.684 1.524-1.525 1.524zM7 7h6v2h-6zM7 10h9v1h-9zM1 5h1v5h-1zM21 7h1v3h-1z"></path>
</symbol>
<symbol id="icon-file-settings" viewBox="0 0 24 24">
<title>file-settings</title>
<path d="M7 7v2h6v-2h-6zM7 11h9v-1h-9v1zM16 12h-3v1h3v-1zM13 15h3v-1h-3v1zM3 2v10h2v-8h13v17h-5v2h7v-21h-17zM9.707 17.5c0-0.24-0.036-0.47-0.088-0.693l1.388-0.931-0.891-1.526-1.404 0.938c-0.259-0.228-0.557-0.402-0.884-0.515v-1.773h-1.679v1.781c-0.319 0.113-0.608 0.286-0.862 0.51l-1.4-0.941-0.89 1.526 1.388 0.93c-0.052 0.223-0.088 0.454-0.088 0.694 0 0.241 0.036 0.472 0.088 0.695l-1.385 0.929 0.891 1.526 1.396-0.941c0.253 0.224 0.543 0.396 0.862 0.51v1.781h1.679v-1.772c0.327-0.112 0.625-0.286 0.884-0.514l1.4 0.937 0.893-1.526-1.386-0.93c0.051-0.224 0.088-0.454 0.088-0.695zM7.002 19.301c-0.926 0-1.679-0.807-1.679-1.801s0.753-1.8 1.679-1.8c0.928 0 1.679 0.806 1.679 1.8s-0.751 1.801-1.679 1.801z"></path>
</symbol>
<symbol id="icon-file-add" viewBox="0 0 24 24">
<title>file-add</title>
<path d="M8 7v2h6v-2h-6zM8 11h9v-1h-9v1zM17 12h-8v1h8v-1zM17 15v-1h-7v1h7zM8 14h-3v3h-3v3h3v3h3v-3h3v-3h-3v-3zM4 2v10h2v-8h13v17h-6.643l-1 2h9.643v-21h-17z"></path>
</symbol>
<symbol id="icon-file" viewBox="0 0 24 24">
<title>file</title>
<path d="M7 7h6v2h-6zM7 10h9v1h-9zM7 12h9v1h-9zM7 14h9v1h-9zM7 16h3v1h-3zM16.43 2h-13.43v21h17v-17.465l-3.57-3.535zM18 6.363v0.637h-3v-3h0.602l2.398 2.363zM5 21v-17h9v4h4v13h-13z"></path>
</symbol>
<symbol id="icon-align-left" viewBox="0 0 24 24">
<title>align-left</title>
<path d="M3 2v21h17v-21h-17zM18 21h-13v-17h13v17zM13 7h-6v2h6v-2zM16 10h-9v1h9v-1zM16 12h-9v1h9v-1zM16 14h-9v1h9v-1zM10 16h-3v1h3v-1z"></path>
</symbol>
<symbol id="icon-align-right" viewBox="0 0 24 24">
<title>align-right</title>
<path d="M3 2v21h17v-21h-17zM18 21h-13v-17h13v17zM16 7h-6v2h6v-2zM16 10h-9v1h9v-1zM16 12h-9v1h9v-1zM16 14h-9v1h9v-1zM13 17h3v-1h-3v1z"></path>
</symbol>
<symbol id="icon-align-center" viewBox="0 0 24 24">
<title>align-center</title>
<path d="M3 2v21h17v-21h-17zM18 21h-13v-17h13v17zM14 7h-6v2h6v-2zM16 10h-9v1h9v-1zM16 12h-9v1h9v-1zM16 14h-9v1h9v-1zM10 17h3v-1h-3v1z"></path>
</symbol>
<symbol id="icon-align-justify" viewBox="0 0 24 24">
<title>align-justify</title>
<path d="M3 2v21h17v-21h-17zM18 21h-13v-17h13v17zM16 7h-9v2h9v-2zM16 10h-9v1h9v-1zM16 12h-9v1h9v-1zM16 14h-9v1h9v-1zM16 16h-9v1h9v-1z"></path>
</symbol>
<symbol id="icon-file-broken" viewBox="0 0 24 24">
<title>file-broken</title>
<path d="M3 2v21h17v-21h-17zM18 21h-13v-17h13v17zM9.025 15.889l2.475-2.475 2.475 2.475 1.414-1.414-2.475-2.475 2.475-2.475-1.414-1.414-2.475 2.475-2.475-2.475-1.414 1.414 2.475 2.475-2.475 2.475 1.414 1.414z"></path>
</symbol>
<symbol id="icon-browser" viewBox="0 0 24 24">
<title>browser</title>
<path d="M0 1v22h24v-22h-24zM22 21h-20v-13h20v13zM22 7h-20v-4h20v4zM11 4h-2v2h2v-2zM8 4h-2v2h2v-2zM5 4h-2v2h2v-2z"></path>
</symbol>
<symbol id="icon-windows" viewBox="0 0 24 24">
<title>windows</title>
<path d="M3 1v3h-3v19h21v-3h3v-19h-21zM19 21h-17v-15h1v14h16v1zM22 18h-17v-10h17v10zM22 7h-17v-4h17v4zM14 4h-2v2h2v-2zM11 4h-2v2h2v-2zM8 4h-2v2h2v-2z"></path>
</symbol>
<symbol id="icon-window" viewBox="0 0 24 24">
<title>window</title>
<path d="M0 1v22h24v-22h-24zM22 21h-20v-13h20v13zM22 7h-20v-4h20v4zM11 4h-2v2h2v-2zM8 4h-2v2h2v-2zM5 4h-2v2h2v-2zM9.025 17.889l2.475-2.475 2.475 2.475 1.414-1.414-2.475-2.475 2.475-2.475-1.414-1.414-2.475 2.475-2.475-2.475-1.414 1.414 2.475 2.475-2.475 2.475 1.414 1.414z"></path>
</symbol>
<symbol id="icon-folder" viewBox="0 0 24 24">
<title>folder</title>
<path d="M14 4v-1c0-1.104-0.896-2-2-2h-4c-1.104 0-2 0.896-2 2v1h-4v3h-1v16h22v-19h-9zM21 21h-18v-12h18v12zM21 7h-17v-1h4v-3h4v3h9v1z"></path>
</symbol>
<symbol id="icon-folder-add" viewBox="0 0 24 24">
<title>folder-add</title>
<path d="M14 3v-1c0-1.104-0.896-2-2-2h-4c-1.104 0-2 0.896-2 2v1h-4v3h-1v7h2v-5h18v12h-11v2h13v-19h-9zM21 6h-17v-1h4v-3h4v3h9v1zM6 14h-3v3h-3v3h3v3h3v-3h3v-3h-3z"></path>
</symbol>
<symbol id="icon-folder-settings" viewBox="0 0 24 24">
<title>folder-settings</title>
<path d="M14 4v-1c0-1.104-0.896-2-2-2h-4c-1.104 0-2 0.896-2 2v1h-4v3h-1v7h2v-5h18v12h-11v2h13v-19h-9zM21 7h-17v-1h4v-3h4v3h9v1zM7.448 19.521c0.040-0.168 0.051-0.342 0.051-0.521 0-0.18-0.024-0.353-0.063-0.521l1.543-0.923-0.888-1.356-1.455 0.927c-0.213-0.162-0.619-0.291-0.619-0.38v-1.747h-2.034v1.747c0 0.089-0.406 0.218-0.619 0.38l-1.455-0.927-0.888 1.356 1.543 0.923c-0.038 0.168-0.063 0.341-0.063 0.521 0 0.179 0.011 0.353 0.051 0.521l-1.554 0.923 0.863 1.357 1.502-0.928c0.214 0.162 0.62 0.291 0.62 0.381v1.746h2.033v-1.746c0-0.090 0.406-0.219 0.62-0.381l1.502 0.928 0.863-1.357-1.553-0.923zM5 20.599c-0.918-0.006-1.662-0.719-1.662-1.599s0.744-1.593 1.662-1.599c0.918 0.006 1.662 0.719 1.662 1.599s-0.744 1.593-1.662 1.599z"></path>
</symbol>
<symbol id="icon-folder-check" viewBox="0 0 24 24">
<title>folder-check</title>
<path d="M14 4v-1c0-1.104-0.896-2-2-2h-4c-1.104 0-2 0.896-2 2v1h-4v3h-1v7h2v-5h18v12h-11v2h13v-19h-9zM21 7h-17v-1h4v-3h4v3h9v1zM4.002 19.5l-0.743-1.875-1.483 1.848 2.44 3.271 4.020-6.535-1.473-0.865z"></path>
</symbol>
<symbol id="icon-wifi-low" viewBox="0 0 24 24">
<title>wifi-low</title>
<path d="M12 8.92c-1.959 0-3.732 0.794-5.016 2.078l1.416 1.416c0.922-0.923 2.195-1.494 3.6-1.494s2.678 0.571 3.6 1.494l1.416-1.416c-1.284-1.284-3.057-2.078-5.016-2.078zM12 13.079c-0.828 0-1.5 0.673-1.5 1.501s0.672 1.5 1.5 1.5 1.5-0.672 1.5-1.5-0.672-1.501-1.5-1.501z"></path>
</symbol>
<symbol id="icon-wifi-mid" viewBox="0 0 24 24">
<title>wifi-mid</title>
<path d="M6.984 12.918l1.416 1.416c0.922-0.922 2.195-1.494 3.6-1.494s2.678 0.572 3.6 1.494l1.416-1.416c-1.284-1.284-3.057-2.078-5.016-2.078s-3.732 0.794-5.016 2.078zM12 6.277c-3.219 0-6.133 1.305-8.242 3.414l1.418 1.418c1.748-1.749 4.162-2.832 6.824-2.832s5.076 1.083 6.824 2.832l1.418-1.418c-2.109-2.109-5.023-3.414-8.242-3.414zM12 15c-0.828 0-1.5 0.672-1.5 1.5s0.672 1.5 1.5 1.5 1.5-0.672 1.5-1.5-0.672-1.5-1.5-1.5z"></path>
</symbol>
<symbol id="icon-wifi-full" viewBox="0 0 24 24">
<title>wifi-full</title>
<path d="M6.984 15.918l1.416 1.416c0.922-0.922 2.195-1.494 3.6-1.494s2.678 0.572 3.6 1.494l1.416-1.416c-1.284-1.283-3.057-2.078-5.016-2.078s-3.732 0.795-5.016 2.078zM3.758 12.691l1.418 1.418c1.748-1.749 4.162-2.832 6.824-2.832s5.076 1.083 6.824 2.832l1.418-1.418c-2.109-2.109-5.023-3.414-8.242-3.414s-6.133 1.305-8.242 3.414zM12 4.715c-4.479 0-8.533 1.815-11.469 4.751l1.419 1.419c2.575-2.575 6.13-4.17 10.050-4.17s7.475 1.595 10.050 4.17l1.419-1.419c-2.936-2.936-6.99-4.751-11.469-4.751zM12 18c-0.828 0-1.5 0.672-1.5 1.5s0.672 1.5 1.5 1.5 1.5-0.672 1.5-1.5-0.672-1.5-1.5-1.5z"></path>
</symbol>
<symbol id="icon-connection-empty" viewBox="0 0 24 24">
<title>connection-empty</title>
<path d="M14 2v4h-4v4h-4v4h-4v8h19v-20h-7zM7 20h-3v-4h3v4zM11 20h-3v-8h3v8zM15 20h-3v-12h3v12zM19 20h-3v-16h3v16z"></path>
</symbol>
<symbol id="icon-connection-25" viewBox="0 0 24 24">
<title>connection-25</title>
<path d="M14 2v4h-4v4h-4v4h-4v8h19v-20h-7zM11 20h-3v-8h3v8zM15 20h-3v-12h3v12zM19 20h-3v-16h3v16z"></path>
</symbol>
<symbol id="icon-connection-50" viewBox="0 0 24 24">
<title>connection-50</title>
<path d="M14 2v4h-4v4h-4v4h-4v8h19v-20h-7zM15 20h-3v-12h3v12zM19 20h-3v-16h3v16z"></path>
</symbol>
<symbol id="icon-connection-75" viewBox="0 0 24 24">
<title>connection-75</title>
<path d="M14 2v4h-4v4h-4v4h-4v8h19v-20h-7zM19 20h-3v-16h3v16z"></path>
</symbol>
<symbol id="icon-connection-full" viewBox="0 0 24 24">
<title>connection-full</title>
<path d="M14 2v4h-4v4h-4v4h-4v8h19v-20h-7z"></path>
</symbol>
<symbol id="icon-list" viewBox="0 0 24 24">
<title>list</title>
<path d="M9.004 3v19h11.989v-8h2.996v-11h-14.985zM18.994 20h-7.992v-3h7.992v3zM18.994 16h-7.992v-3h7.992v3zM21.991 12h-10.989v-3h10.989v3zM21.991 8h-10.989v-3h10.989v3zM0.011 22h6.995v-19h-6.995v19zM2.009 5h2.998v3h-2.998v-3zM2.009 9h2.998v3h-2.998v-3zM2.009 13h2.998v3h-2.998v-3zM2.009 17h2.998v3h-2.998v-3z"></path>
</symbol>
<symbol id="icon-grid" viewBox="0 0 24 24">
<title>grid</title>
<path d="M1 2v21h20.98v-21h-20.98zM19.982 9h-4.996v-5h4.996v5zM19.982 15h-4.996v-5h4.996v5zM19.982 21h-4.996v-5h4.996v5zM2.998 16h4.996v5h-4.996v-5zM2.998 10h4.996v5h-4.996v-5zM2.998 4h4.996v5h-4.996v-5zM13.988 9h-4.995v-5h4.996v5zM13.988 15h-4.995v-5h4.996v5zM8.993 16h4.996v5h-4.996v-5z"></path>
</symbol>
<symbol id="icon-uniE920" viewBox="0 0 24 24">
<title>uniE920</title>
<path d="M20.992 6.279v-2.279h-17.984v2.279l-2.997 1v9.441l2.997 1v2.28h17.984v-2.279l2.997-1v-9.442l-2.997-1zM3.008 15.612l-0.999-0.333v-6.558l0.999-0.333v7.224zM18.994 18h-13.988v-12h13.988v12zM21.991 15.279l-0.999 0.333v-7.224l0.999 0.333v6.558zM17.995 7h-11.99v10h11.99v-10zM16.996 16h-9.992v-8h9.992v8z"></path>
</symbol>
<symbol id="icon-battery-charging" viewBox="0 0 24 24">
<title>battery-charging</title>
<path d="M20.812 8c-0.412-1.164-1.523-2-2.826-2h-14.988c-1.653 0-2.998 1.346-2.998 3v7c0 1.654 1.345 3 2.998 3h14.987c1.303 0 2.414-0.836 2.826-2h2.169v-9h-2.168zM18.983 16c0 0.551-0.447 1-0.998 1h-14.987c-0.552 0-1-0.449-1-1v-7c0-0.551 0.448-1 1-1h14.987c0.551 0 0.998 0.449 0.998 1v7zM20.982 15h-0.999v-5h0.999v5zM10.097 15l0.998-2h4.996l-5.994-3-1 2h-4.996l5.996 3z"></path>
</symbol>
<symbol id="icon-battery-empty" viewBox="0 0 24 24">
<title>battery-empty</title>
<path d="M20.82 8c-0.412-1.164-1.523-2-2.826-2h-14.987c-1.653 0-2.997 1.346-2.997 3v7c0 1.654 1.344 3 2.997 3h14.987c1.303 0 2.414-0.836 2.826-2h2.17v-9h-2.17zM18.994 16c0 0.551-0.449 1-1 1h-14.987c-0.552 0-0.999-0.449-0.999-1v-7c0-0.551 0.447-1 0.999-1h14.987c0.551 0 1 0.449 1 1v7zM20.992 15h-1v-5h1v5z"></path>
</symbol>
<symbol id="icon-battery-25" viewBox="0 0 24 24">
<title>battery-25</title>
<path d="M20.82 8c-0.412-1.164-1.523-2-2.826-2h-14.987c-1.653 0-2.997 1.346-2.997 3v7c0 1.654 1.344 3 2.997 3h14.987c1.303 0 2.414-0.836 2.826-2h2.17v-9h-2.17zM18.994 16c0 0.551-0.449 1-1 1h-14.987c-0.552 0-0.999-0.449-0.999-1v-7c0-0.551 0.447-1 0.999-1h14.987c0.551 0 1 0.449 1 1v7zM20.992 15h-1v-5h1v5zM3.007 11v3c0 1.1 0.674 2 1.499 2h1.498v-7h-1.498c-0.825 0-1.499 0.9-1.499 2z"></path>
</symbol>
<symbol id="icon-battery-50" viewBox="0 0 24 24">
<title>battery-50</title>
<path d="M20.82 8c-0.412-1.164-1.523-2-2.826-2h-14.987c-1.653 0-2.997 1.346-2.997 3v7c0 1.654 1.344 3 2.997 3h14.987c1.303 0 2.414-0.836 2.826-2h2.17v-9h-2.17zM18.994 16c0 0.551-0.449 1-1 1h-14.987c-0.552 0-0.999-0.449-0.999-1v-7c0-0.551 0.447-1 0.999-1h14.987c0.551 0 1 0.449 1 1v7zM20.992 15h-1v-5h1v5zM7.003 9h2.998v7h-2.998zM3.007 11v3c0 1.1 0.674 2 1.499 2h1.498v-7h-1.498c-0.825 0-1.499 0.9-1.499 2z"></path>
</symbol>
<symbol id="icon-battery-75" viewBox="0 0 24 24">
<title>battery-75</title>
<path d="M20.82 8c-0.412-1.164-1.523-2-2.826-2h-14.987c-1.653 0-2.997 1.346-2.997 3v7c0 1.654 1.344 3 2.997 3h14.987c1.303 0 2.414-0.836 2.826-2h2.17v-9h-2.17zM18.994 16c0 0.551-0.449 1-1 1h-14.987c-0.552 0-0.999-0.449-0.999-1v-7c0-0.551 0.447-1 0.999-1h14.987c0.551 0 1 0.449 1 1v7zM20.992 15h-1v-5h1v5zM7.003 9h2.998v7h-2.998zM11 9h2.998v7h-2.998zM3.007 11v3c0 1.1 0.674 2 1.499 2h1.498v-7h-1.498c-0.825 0-1.499 0.9-1.499 2z"></path>
</symbol>
<symbol id="icon-battery-full" viewBox="0 0 24 24">
<title>battery-full</title>
<path d="M20.82 8c-0.412-1.164-1.523-2-2.826-2h-14.987c-1.653 0-2.997 1.346-2.997 3v7c0 1.654 1.344 3 2.997 3h14.987c1.303 0 2.414-0.836 2.826-2h2.17v-9h-2.17zM18.994 16c0 0.551-0.449 1-1 1h-14.987c-0.552 0-0.999-0.449-0.999-1v-7c0-0.551 0.447-1 0.999-1h14.987c0.551 0 1 0.449 1 1v7zM20.992 15h-1v-5h1v5zM7.003 9h2.998v7h-2.998zM11 9h2.998v7h-2.998zM16.496 9h-1.5v7h1.5c0.824 0 1.498-0.9 1.498-2v-3c0-1.1-0.674-2-1.498-2zM3.007 11v3c0 1.1 0.674 2 1.499 2h1.498v-7h-1.498c-0.825 0-1.499 0.9-1.499 2z"></path>
</symbol>
<symbol id="icon-settings" viewBox="0 0 24 24">
<title>settings</title>
<path d="M9.998 8.498c2.039 0 3.702 1.531 3.95 3.502h3.516c-0.033-0.472-0.097-0.935-0.212-1.379l2.841-1.64-2.001-3.466-2.837 1.638c-0.895-0.881-2.010-1.532-3.255-1.877v-3.278h-4.002v3.278c-1.245 0.344-2.361 0.996-3.256 1.876l-2.836-1.637-2.001 3.466 2.839 1.639c-0.155 0.602-0.247 1.228-0.247 1.878s0.091 1.277 0.247 1.878l-2.839 1.64 2.001 3.465 2.835-1.637c0.895 0.881 2.012 1.532 3.257 1.876v3.278h4.002v-7.055c-0.591 0.344-1.269 0.556-2.002 0.556-2.209 0-4-1.791-4-4s1.791-4.001 4-4.001zM22.998 18c0-0.37-0.066-0.722-0.161-1.062l1.857-1.072-0.999-1.73-1.844 1.064c-0.501-0.51-1.14-0.875-1.853-1.061v-2.139h-1.998v2.139c-0.715 0.184-1.354 0.549-1.856 1.060l-1.841-1.063-0.999 1.73 1.853 1.069c-0.095 0.342-0.162 0.694-0.162 1.065s0.067 0.724 0.162 1.065l-1.853 1.069 0.999 1.73 1.841-1.063c0.502 0.511 1.142 0.876 1.856 1.060v2.139h1.998v-2.14c0.713-0.186 1.352-0.551 1.853-1.061l1.845 1.065 0.999-1.73-1.857-1.072c0.094-0.34 0.16-0.692 0.16-1.062zM18.996 19.998c-1.104 0-1.998-0.895-1.998-1.998s0.895-1.998 1.998-1.998 1.998 0.895 1.998 1.998-0.894 1.998-1.998 1.998z"></path>
</symbol>
<symbol id="icon-arrow-left" viewBox="0 0 24 24">
<title>arrow-left</title>
<path d="M17.997 10h-9v-4.5l-6.494 6.5 6.494 6.5v-4.5h9.047c1.080 0 1.953-0.894 1.953-2s-0.92-2-2-2z"></path>
</symbol>
<symbol id="icon-arrow-up" viewBox="0 0 24 24">
<title>arrow-up</title>
<path d="M14 19v-9h4.5l-6.5-6.494-6.5 6.494h4.5v9.047c0 1.080 0.894 1.953 2 1.953s2-0.92 2-2z"></path>
</symbol>
<symbol id="icon-arrow-down" viewBox="0 0 24 24">
<title>arrow-down</title>
<path d="M9.999 6v9h-4.5l6.5 6.494 6.5-6.494h-4.5v-9.047c0-1.080-0.894-1.953-2-1.953-1.107 0-2 0.92-2 2z"></path>
</symbol>
<symbol id="icon-arrow-right" viewBox="0 0 24 24">
<title>arrow-right</title>
<path d="M5 14h9v4.5l6.494-6.5-6.494-6.5v4.5h-9.047c-1.080 0-1.953 0.894-1.953 2s0.92 2 2 2z"></path>
</symbol>
<symbol id="icon-reload" viewBox="0 0 24 24">
<title>reload</title>
<path d="M13.818 3.080c-4.486 0-8.195 3.118-8.758 7.513l-3.798-0.735 3.738 5.529 5.529-3.735-3.477-0.673c0.471-2.821 3.389-5.898 6.84-5.898 3.77 0 6.846 3.231 6.846 7.002s-3.76 6.838-6.76 6.838v2c5 0 8.76-4.047 8.76-8.92s-4.047-8.921-8.92-8.921z"></path>
</symbol>
<symbol id="icon-refresh" viewBox="0 0 24 24">
<title>refresh</title>
<path d="M5.485 11.285c0.447-2.673 3.21-5.588 6.479-5.588 1.891 0 3.58 0.868 4.762 2.206l1.59-1.060c-1.553-1.845-3.857-3.041-6.422-3.041-4.25 0-7.764 2.953-8.297 7.117l-3.597-0.695 3.541 5.237 5.238-3.539-3.294-0.637zM20.459 8.539l-5.238 3.539 3.293 0.637c-0.446 2.673-3.21 5.589-6.479 5.588-1.892 0-3.58-0.868-4.763-2.206l-1.589 1.060c1.553 1.845 3.857 3.041 6.422 3.041 4.249 0 7.764-2.953 8.296-7.117l3.599 0.695-3.541-5.237z"></path>
</symbol>
<symbol id="icon-volume" viewBox="0 0 24 24">
<title>volume</title>
<path d="M12.768 1l-4 5h-4c-1.655 0-2.768 1.596-2.768 3.25v5.75c0 1.654 1.113 3 2.768 3h4l4 5c1 0 2.232 0 2.232 0v-22c-1 0-1.232 0-2.232 0zM8 16h-3.232c-0.553 0-0.768-0.449-0.768-1v-5.75c0-0.551 0.215-1.25 0.768-1.25h3.232v8zM13 20l-4-4v-8l4-4v16zM17 7v2.083c2 0.415 2 1.515 2 2.815 0 1.303 0 2.402-2 2.816v2.083c3-0.465 4-2.484 4-4.899 0-2.414-1-4.433-4-4.898z"></path>
</symbol>
<symbol id="icon-volume-increase" viewBox="0 0 24 24">
<title>volume-increase</title>
<path d="M11.768 1l-4 5h-4c-1.655 0-2.768 1.596-2.768 3.25v5.75c0 1.654 1.113 3 2.768 3h4l4 5c1 0 2.232 0 2.232 0v-22c-1 0-1.232 0-2.232 0zM7 16h-3.232c-0.553 0-0.768-0.449-0.768-1v-5.75c0-0.551 0.215-1.25 0.768-1.25h3.232v8zM12 20l-4-4v-8l4-4v16zM23 11h-2v-2h-2v2h-2v2h2v2h2v-2h2z"></path>
</symbol>
<symbol id="icon-volume-decrease" viewBox="0 0 24 24">
<title>volume-decrease</title>
<path d="M11.768 1l-4 5h-4c-1.655 0-2.768 1.596-2.768 3.25v5.75c0 1.654 1.113 3 2.768 3h4l4 5c1 0 2.232 0 2.232 0v-22c-1 0-1.232 0-2.232 0zM7 16h-3.232c-0.553 0-0.768-0.449-0.768-1v-5.75c0-0.551 0.215-1.25 0.768-1.25h3.232v8zM12 20l-4-4v-8l4-4v16zM17 11h6v2h-6z"></path>
</symbol>
<symbol id="icon-mute" viewBox="0 0 24 24">
<title>mute</title>
<path d="M14 13.242v6.758l-3.379-3.379-1.379 1.379h0.525l4 5c1 0 2.232 0 2.232 0v-11.758l-1.999 2zM5.017 15.155c-0.004-0.052-0.017-0.1-0.017-0.155v-5.75c0-0.551 0.215-1.25 0.768-1.25h3.232v3.172l1-1v-2.172l4-4v2.172l2-2v-3.172c-1 0-1.232 0-2.232 0l-4 5h-4c-1.655 0-2.768 1.596-2.768 3.25v5.75c0 0.636 0.167 1.223 0.463 1.709l1.554-1.554zM3.414 21.707l-1.414-1.414 18.5-18.5 1.414 1.414-18.5 18.5z"></path>
</symbol>
<symbol id="icon-microphone" viewBox="0 0 24 24">
<title>microphone</title>
<path d="M14 1h-5c-1.656 0-3 1.343-3 3v9c0 1.657 1.344 3 3 3h5c1.656 0 3-1.343 3-3v-9c0-1.657-1.344-3-3-3zM15 6v1h-2v1h2v1h-2v1h2v1h-2v1h2v1c0 0.551 0.072 1-0.479 1h-6.042c-0.551 0-0.479-0.449-0.479-1v-1h2v-1h-2v-1h2v-1h-2v-1h2v-1h-2v-1h2v-1h-2v-1c0-0.551-0.072-1 0.479-1h6.041c0.552 0 0.48 0.449 0.48 1v1h-2v1h2zM19 12v-2h-1v5c0 1.121-0.729 2-2.325 2h-8.35c-1.596 0-2.325-0.879-2.325-2v-5h-1v2h-1v2h1v1c0 2.243 0.608 3 3.325 3h1.675v3h-2v2h9v-2h-2v-3h1.675c2.717 0 3.325-0.757 3.325-3v-1h1v-2h-1z"></path>
</symbol>
<symbol id="icon-microphone-off" viewBox="0 0 24 24">
<title>microphone-off</title>
<path d="M4 14.758l1-1v-3.758h-1v2h-1v2h1v0.758zM19 12v-2h-1v5c0 1.121-1.944 2-3.54 2h-4.912l-2 1h1.452v3h-2v2h9v-2h-2v-3h0.46c2.717 0 4.54-0.757 4.54-3v-1h1v-2h-1zM13 6v-1h-1v1h1zM8 10h2v-1h-2v-1h2v-1h-2v-1h2v-1h-2v-1c0-0.551-0.246-1 0.306-1h5c0.48 0 0.863 0.347 0.959 0.799l1.504-1.504c-0.542-0.781-1.443-1.295-2.463-1.295h-5c-1.655 0-2.306 1.346-2.306 3v8.758l2-2v-0.758zM13.306 14h-1.758l-2 2h3.758c1.654 0 3.694-1.346 3.694-3v-3.758l-2 2v1.758c0 0.551-1.143 1-1.694 1zM17.556 3.396l-14 14 1 2 14-14-1-2z"></path>
</symbol>
<symbol id="icon-book" viewBox="0 0 24 24">
<title>book</title>
<path d="M8.893 0.938l-4.311 3.18-0.582-0.118v17l13 3v-17l-9.798-2.294 2.12-1.644 9.678 1.938v8h1v-9.834l-11.107-2.228z"></path>
</symbol>
<symbol id="icon-checkmark" viewBox="0 0 24 24">
<title>checkmark</title>
<path d="M8.98 23l-5.71-9.994 3.473-1.984 2.289 4.004 8.251-14.026 3.447 2.027-11.75 19.973z"></path>
</symbol>
<symbol id="icon-checkbox-checked" viewBox="0 0 24 24">
<title>checkbox-checked</title>
<path d="M4 6l9.652 0.014 1.178-2-12.83-0.014v10l2-2v-6zM4 20c-0.039-0.068 0.023-2.403 0.023-3.006-1.059-1.566-2.023-2.994-2.023-2.994v8l5.738 0.014c0 0-0.584-0.865-1.342-1.986-0.782-0.001-1.998-0.028-2.396-0.028zM19 20l-5.941 0.014-1.178 2 9.119-0.014v-14l-2 2v10zM18.014 1.5l-8.25 14.025-2.289-4.004-3.473 1.984 5.711 9.995 11.748-19.973-3.447-2.027z"></path>
</symbol>
<symbol id="icon-checkbox" viewBox="0 0 24 24">
<title>checkbox</title>
<path d="M2 4v18h19v-18h-19zM19 20h-15v-14h15v14zM16.998 12h-10.998v3h10.998v-3z"></path>
</symbol>
<symbol id="icon-paperclip" viewBox="0 0 24 24">
<title>paperclip</title>
<path d="M21.169 4.707l-2.828-2.828c-1.95-1.949-5.122-1.949-7.071 0l-9.9 9.899 1.414 1.414 9.9-9.899c1.17-1.17 3.073-1.17 4.242 0l2.829 2.829c1.17 1.169 1.17 3.072 0 4.242l-9.899 9.899c-1.275 1.275-2.693 1.549-3.073 1.17l-0.463-0.462-2.254-2.254c-0.176-0.176-0.032-1.119 0.486-1.637l9.897-9.897c0.116-0.115 1.062 0.354 1.768 1.061v0c-0.309 0.309-0.237 0.238-0.353 0.354l-7.182 7.181 1.414 1.414 7.182-7.181c0.855-0.854 1.918-1.618 0.354-3.182v0c-1.563-1.564-3.137-2.52-4.596-1.061l-9.9 9.897c-1.168 1.17-1.623 3.326-0.484 4.465l1.545 1.547 1.172 1.17c1.326 1.326 3.918 0.812 5.9-1.17l9.899-9.899c1.95-1.95 1.95-5.122 0.001-7.072z"></path>
</symbol>
<symbol id="icon-download" viewBox="0 0 24 24">
<title>download</title>
<path d="M15 11v-11h-5v11h-3.953l6.363 6.364 6.363-6.364zM20.16 7h-3.16v2h3.16c0.551 0 0.84 0.016 0.84 0.566v7.5c0 0.828-0.514 1.934-1.34 1.934h-15.318c-0.826 0-1.34-1.106-1.34-1.934v-7.5c0-0.55 0.289-0.566 0.84-0.566h3.16v-2h-3.16c-1.654 0-2.84 0.912-2.84 2.566v11c0 1.654 1.186 3.434 2.84 3.434h16.318c1.654 0 2.84-1.779 2.84-3.434v-11c0-1.654-1.186-2.566-2.84-2.566zM21 20.566c0 0.551-0.289 1.434-0.84 1.434h-16.318c-0.551 0-0.84-0.883-0.84-1.434v-1.513c0 0.317 0.775 0.946 1.34 0.946h15.318c0.564 0 1.34-0.629 1.34-0.946v1.513z"></path>
</symbol>
<symbol id="icon-tag" viewBox="0 0 24 24">
<title>tag</title>
<path d="M21.986 8.821l-2.835-8.813-9.156 2.83-7.996 14.777 11.798 6.377 7.976-14.741c0.006-0.010 0.012-0.021 0.017-0.030l0.212-0.392-0.016-0.008zM17.73 8.335c-0.722 1.338-2.393 1.836-3.732 1.113-1.339-0.725-1.836-2.395-1.112-3.731 0.723-1.339 2.396-1.836 3.733-1.113s1.836 2.394 1.111 3.731z"></path>
</symbol>
<symbol id="icon-trashcan" viewBox="0 0 24 24">
<title>trashcan</title>
<path d="M15 4v-3h-6v3h-4v2h14v-2h-4zM13.018 4h-2v-1h2v1zM5 7v15l2 2h10l2-2v-15h-14zM8 22h-1v-11h1v11zM10 22h-1v-11h1v11zM12 22h-1v-11h1v11zM17 22h-4v-11h4v11zM17 10h-10v-1h10v1z"></path>
</symbol>
<symbol id="icon-search" viewBox="0 0 24 24">
<title>search</title>
<path d="M0.793 21.168l1.414 1.414 4.385-4.385-1.377-1.451-4.422 4.422zM14.125 1c-4.9 0-8.875 3.974-8.875 8.875 0 1.919 0.617 3.69 1.652 5.143l1.67 1.76c1.521 1.227 3.447 1.973 5.553 1.973 4.902 0 8.875-3.974 8.875-8.875s-3.973-8.876-8.875-8.876zM14.125 16.75c-3.791 0-6.875-3.084-6.875-6.875s3.084-6.875 6.875-6.875 6.875 3.084 6.875 6.875-3.084 6.875-6.875 6.875z"></path>
</symbol>
<symbol id="icon-zoomin" viewBox="0 0 24 24">
<title>zoomin</title>
<path d="M0.793 21.168l1.414 1.414 4.385-4.385-1.377-1.451-4.422 4.422zM14.125 1c-4.901 0-8.875 3.974-8.875 8.875 0 1.919 0.617 3.69 1.652 5.143l1.67 1.76c1.521 1.227 3.446 1.973 5.553 1.973 4.901 0 8.875-3.974 8.875-8.875s-3.974-8.876-8.875-8.876zM14.125 16.75c-3.791 0-6.875-3.084-6.875-6.875s3.084-6.875 6.875-6.875 6.875 3.084 6.875 6.875-3.084 6.875-6.875 6.875zM15.022 7h-2v2h-2v2h2v2h2v-2h2v-2h-2v-2z"></path>
</symbol>
<symbol id="icon-zoomout" viewBox="0 0 24 24">
<title>zoomout</title>
<path d="M0.793 21.168l1.414 1.414 4.385-4.385-1.377-1.451-4.422 4.422zM14.125 1c-4.901 0-8.875 3.974-8.875 8.875 0 1.919 0.617 3.69 1.652 5.143l1.67 1.76c1.521 1.227 3.446 1.973 5.553 1.973 4.901 0 8.875-3.974 8.875-8.875s-3.974-8.876-8.875-8.876zM14.125 16.75c-3.791 0-6.875-3.084-6.875-6.875s3.084-6.875 6.875-6.875 6.875 3.084 6.875 6.875-3.084 6.875-6.875 6.875zM10.998 9.002h6v2h-6z"></path>
</symbol>
<symbol id="icon-chat" viewBox="0 0 24 24">
<title>chat</title>
<path d="M20 1h-17c-1.654 0-3 1.346-3 3v12c0 1.654 2 2 3 2v6l9-6h8c1.654 0 3-1.346 3-3v-11c0-1.654-1.346-3-3-3zM21 15c0 0.551-0.449 1-1 1h-9l-6 5v-5h-2c-0.551 0-1-0.449-1-1v-11c0-0.551 0.449-1 1-1h17c0.551 0 1 0.449 1 1v11z"></path>
</symbol>
<symbol id="icon-chat-1" viewBox="0 0 24 24">
<title>chat-1</title>
<path d="M6.5 9c0.828 0 1.5 0.671 1.5 1.5s-0.672 1.5-1.5 1.5-1.5-0.671-1.5-1.5 0.672-1.5 1.5-1.5zM20 1h-17c-1.654 0-3 1.346-3 3v12c0 1.654 2 2 3 2v6l9-6h8c1.654 0 3-1.346 3-3v-11c0-1.654-1.346-3-3-3zM21 15c0 0.551-0.449 1-1 1h-9l-6 5v-5h-2c-0.551 0-1-0.449-1-1v-11c0-0.551 0.449-1 1-1h17c0.551 0 1 0.449 1 1v11z"></path>
</symbol>
<symbol id="icon-chat-2" viewBox="0 0 24 24">
<title>chat-2</title>
<path d="M6.5 9c0.828 0 1.5 0.671 1.5 1.5s-0.672 1.5-1.5 1.5-1.5-0.671-1.5-1.5 0.672-1.5 1.5-1.5zM11.5 9c0.828 0 1.5 0.671 1.5 1.5s-0.672 1.5-1.5 1.5-1.5-0.671-1.5-1.5 0.672-1.5 1.5-1.5zM20 1h-17c-1.654 0-3 1.346-3 3v12c0 1.654 2 2 3 2v6l9-6h8c1.654 0 3-1.346 3-3v-11c0-1.654-1.346-3-3-3zM21 15c0 0.551-0.449 1-1 1h-9l-6 5v-5h-2c-0.551 0-1-0.449-1-1v-11c0-0.551 0.449-1 1-1h17c0.551 0 1 0.449 1 1v11z"></path>
</symbol>
<symbol id="icon-chat-3" viewBox="0 0 24 24">
<title>chat-3</title>
<path d="M6.5 9c0.828 0 1.5 0.671 1.5 1.5s-0.672 1.5-1.5 1.5-1.5-0.671-1.5-1.5 0.672-1.5 1.5-1.5zM11.5 9c0.828 0 1.5 0.671 1.5 1.5s-0.672 1.5-1.5 1.5-1.5-0.671-1.5-1.5 0.672-1.5 1.5-1.5zM16.5 9c0.828 0 1.5 0.671 1.5 1.5s-0.672 1.5-1.5 1.5-1.5-0.671-1.5-1.5 0.672-1.5 1.5-1.5zM20 1h-17c-1.654 0-3 1.346-3 3v12c0 1.654 2 2 3 2v6l9-6h8c1.654 0 3-1.346 3-3v-11c0-1.654-1.346-3-3-3zM21 15c0 0.551-0.449 1-1 1h-9l-6 5v-5h-2c-0.551 0-1-0.449-1-1v-11c0-0.551 0.449-1 1-1h17c0.551 0 1 0.449 1 1v11z"></path>
</symbol>
<symbol id="icon-comment" viewBox="0 0 24 24">
<title>comment</title>
<path d="M20 1h-17c-1.654 0-3 1.346-3 3v12c0 1.654 2 2 3 2v6l9-6h8c1.654 0 3-1.346 3-3v-11c0-1.654-1.346-3-3-3zM21 15c0 0.551-0.449 1-1 1h-9l-6 5v-5h-2c-0.551 0-1-0.449-1-1v-11c0-0.551 0.449-1 1-1h17c0.551 0 1 0.449 1 1v11zM4 6h12v2h-12zM4 9h15v1h-15zM4 11h15v1h-15zM4 13h8v1h-8z"></path>
</symbol>
<symbol id="icon-calendar" viewBox="0 0 24 24">
<title>calendar</title>
<path d="M20 4v-4h-6v4h-4v-4h-6v4h-4v19h24v-19h-4zM16 2h2v4h-2v-4zM6 2h2v4h-2v-4zM22 21h-20v-11h20v11zM22 9h-20v-3h2v2h6v-2h4v2h6v-2h2v3zM5.001 12.999h1.998v2h-1.998zM8.001 12.999h1.998v2h-1.998zM10.998 12.999h1.998v2h-1.998zM13.998 12.999h1.998v2h-1.998zM17.001 12.999h1.998v2h-1.998zM5.001 15.998h1.998v2h-1.998zM8.001 15.998h1.998v2h-1.998zM10.998 15.998h1.998v2h-1.998z"></path>
</symbol>
<symbol id="icon-bookmark" viewBox="0 0 24 24">
<title>bookmark</title>
<path d="M3 0v23.18l8.182-4.764 8.818 5.135v-23.551h-17zM5 19.701v-17.701h6v14.375l-0.637 0.312-5.363 3.014zM18 20.072l-5.562-3.385-0.438-0.291v-14.396h6v18.072z"></path>
</symbol>
<symbol id="icon-email2" viewBox="0 0 24 24">
<title>email2</title>
<path d="M10.781 14.274l-0.781 7.726 4.77-5.893 4.564 2.060 4.666-16.167-13.219 12.274zM24 2l-24 9.865 5.666 1.135 4.334 9-3.125-9 17.125-11z"></path>
</symbol>
<symbol id="icon-heart" viewBox="0 0 24 24">
<title>heart</title>
<path d="M12 19.654l-0.035 0.043-7.965-10.197c-0.363-0.458-1-1.011-1-2.268 0-2.206 1.795-4 4-4 2.206 0 5 1.794 5 4v-3.313c-1.075-1.618-2.915-2.687-5-2.687-3.309 0-6 2.691-6 6 0 2.056 1 3 1.258 3.669l9.742 11.822v-3.069zM12 19.654l0.035 0.043 7.965-10.197c0.363-0.458 1-1.011 1-2.268 0-2.206-1.795-4-4-4s-5 1.794-5 4v-3.313c1.076-1.618 2.916-2.687 5-2.687 3.309 0 6 2.691 6 6 0 2.056-1 3-1.258 3.669l-9.742 11.822v-3.069z"></path>
</symbol>
<symbol id="icon-enter" viewBox="0 0 24 24">
<title>enter</title>
<path d="M12.199 11.566l-4.199-4.199v2.633h-7v3h7v2.766l4.199-4.2zM9 1v3.367l2 2v-3.367h8.089l-6.089 2v12h-2v-0.234l-2 2v0.234h4v4l9-3v-19z"></path>
</symbol>
<symbol id="icon-cloud" viewBox="0 0 24 24">
<title>cloud</title>
<path d="M19.126 21c2.864 0 4.756-3.161 4.756-6.375 0-2.762-2.28-5.211-5.034-5.578l-0.457-1.219c-1.109-2.932-3.812-4.828-6.887-4.828-4.102 0-7.438 3.364-7.438 7.5 0 0.181 0.009 0.358 0.025 0.53-2.233 0.259-3.973 2.164-3.973 4.47 0 2.141 1.663 5.193 4.008 5.5h15zM13.965 12.776v0c0.888-1.278 2.675-1.408 3.473-1.796l0.007 0.020h0.692c1.96 0 3.744 1.5 3.744 3.398 0 1.842-1.221 4.602-3.193 4.602h-14.447c-1.099 0-2.123-2.373-2.123-3.727 0.001-1.543 1.366-2.663 2.978-2.336l1.551 0.37-0.381-1.507c-0.1-0.398-0.2-0.854-0.2-1.314 0-3.033 2.439-5.493 5.438-5.493 2.27 0 4.191 1.357 5.016 3.536-2.023 1.196-2.644 4.035-2.644 4.035"></path>
</symbol>
<symbol id="icon-book2" viewBox="0 0 24 24">
<title>book2</title>
<path d="M9.946 9.363c-1.693-1.309-3.755-2.696-7-2.959l7 2.959zM9.946 12.363c-1.693-1.309-3.755-2.696-7-2.959l7 2.959zM6.945 13.451c-1.115-0.523-2.416-0.919-3.999-1.047l3.999 1.047zM13.054 9.363l7-2.959c-3.245 0.263-5.307 1.651-7 2.959zM13.054 12.363l7-2.959c-3.245 0.263-5.307 1.651-7 2.959zM20.054 12.404c-1.583 0.128-2.884 0.523-3.999 1.047l3.999-1.047zM22.054 0.363c-4.38 0-8.389 2.045-10.415 3.664h-0.277c-2.027-1.619-6.036-3.664-10.416-3.664h-0.946v19h0.946c3.236 0 6.823 1.246 8.418 2.449 0.474 0.359 0.907 0.734 1.288 1.116l0.801 0.735h0.094l0.801-0.735c0.381-0.382 0.814-0.757 1.288-1.116 1.595-1.203 5.182-2.449 8.418-2.449h0.946v-19h-0.946zM11 20.521c0-0.102-0.244-0.205-0.376-0.305-1.673-1.261-5.624-2.596-8.624-2.82v-14.992c4 0.306 7.263 2.249 8.681 3.662l0.271 0.297h0.048v14.158zM21 17.396c-3 0.224-6.951 1.559-8.624 2.82-0.132 0.1-0.376 0.204-0.376 0.305v-14.158h0.049l0.271-0.297c1.417-1.413 4.68-3.356 8.68-3.662v14.992z"></path>
</symbol>
<symbol id="icon-star" viewBox="0 0 24 24">
<title>star</title>
<path d="M18.364 23.523c-0.379 0.002-0.777-0.107-1.184-0.322l-3.876-2.037c-0.648-0.342-1.96-0.342-2.61 0l-3.874 2.037c-0.97 0.51-1.941 0.389-2.494-0.266-0.267-0.316-0.551-0.891-0.39-1.828l0.74-4.316c0.13-0.76-0.255-1.943-0.807-2.482l-3.137-3.056c-0.657-0.643-0.905-1.406-0.681-2.096 0.225-0.689 0.875-1.161 1.785-1.293l4.332-0.63c0.764-0.111 1.771-0.842 2.111-1.533l1.939-3.928c0.407-0.824 1.056-1.296 1.782-1.296s1.375 0.473 1.781 1.297l1.939 3.928c0.341 0.691 1.348 1.422 2.111 1.533l4.332 0.63c0.91 0.132 1.561 0.604 1.785 1.293s-0.024 1.453-0.683 2.096l-3.137 3.056c-0.552 0.539-0.937 1.723-0.807 2.482l0.74 4.316c0.161 0.938-0.123 1.512-0.39 1.826-0.317 0.38-0.783 0.589-1.307 0.589zM12 18.895c0.83 0 1.624 0.178 2.235 0.5l3.853 2.025-0.735-4.291c-0.243-1.418 0.351-3.246 1.381-4.252l3.118-3.037-4.307-0.627c-1.426-0.207-2.981-1.336-3.617-2.627l-1.928-3.903-1.928 3.903c-0.636 1.291-2.191 2.42-3.617 2.627l-4.307 0.627 3.118 3.037c1.030 1.006 1.624 2.834 1.381 4.252l-0.735 4.291 3.852-2.025c0.612-0.323 1.406-0.5 2.236-0.5z"></path>
</symbol>
<symbol id="icon-clock" viewBox="0 0 24 24">
<title>clock</title>
<path d="M12 0c-6.627 0-12 5.373-12 12s5.373 12 12 12 12-5.373 12-12-5.373-12-12-12zM12 22c-5.514 0-10-4.486-10-10s4.486-10 10-10 10 4.486 10 10-4.486 10-10 10zM16.447 5.105c-0.494-0.246-1.095-0.046-1.342 0.447l-3.379 6.759-2.020-2.019c-0.391-0.391-1.023-0.391-1.414 0s-0.391 1.023 0 1.414l3 3c0.19 0.19 0.444 0.294 0.708 0.294 0.053 0 0.107-0.004 0.16-0.013 0.317-0.052 0.59-0.253 0.734-0.54l4-8c0.248-0.494 0.047-1.094-0.447-1.342zM11.002 18.998h2v1.002h-2zM11.002 3h2v1.002h-2zM3 10.998h2v1.002h-2zM18.998 10.998h2v1.002h-2z"></path>
</symbol>
<symbol id="icon-printer" viewBox="0 0 24 24">
<title>printer</title>
<path d="M22 9h-2v-8h-16v8h-2c-1.1 0-2 0.9-2 2v10c0 1.1 0.675 2 1.5 2h2.5v1h16v-1h2.5c0.825 0 1.5-0.9 1.5-2v-10c0-1.1-0.9-2-2-2zM4 22h-1v-5h1v5zM18 22h-12v-5h2v1h8v-1h2v5zM18 9h-12v-6h12v6zM21 22h-1v-5h1v5zM22 12h-2v-1h2v1zM8 20h8v-1h-8v1z"></path>
</symbol>
<symbol id="icon-home" viewBox="0 0 24 24">
<title>home</title>
<path d="M21 7.651v-6.651h-5v2.963l-4.018-2.963-11.982 9h3v13h18v-13l3 0.002-3-2.351zM12 21h-4v-8h4v8zM19 21h-6v-9h-6v9h-2v-12l7.009-5 6.991 5v12zM19 5.132l-1-0.667v-1.465h1v2.132zM18 14h-4v4h4v-4zM17 17h-2v-2h2v2zM11 17h-1v1h1v-1z"></path>
</symbol>
<symbol id="icon-flag" viewBox="0 0 24 24">
<title>flag</title>
<path d="M18.998 1.998v0.415c-0.999-0.296-1.769-0.461-2.688-0.461-1.793 0-3.58 0.559-5.262 1.099-1.605 0.514-3.147 1.002-4.625 1.002-1.119 0-2.033-0.292-2.968-0.892l-1.455-0.99v15.376l0.363 0.295c1.266 0.814 2.57 1.211 4.084 1.211 1.792 0 3.507-0.559 5.188-1.1 1.605-0.516 3.207-1.002 4.687-1.002 0.938 0 1.678 0.219 2.678 0.639v6.459h2v-22.051h-2.002zM19 15.393c-1-0.297-1.771-0.441-2.689-0.441-1.793 0-3.58 0.559-5.262 1.098-1.606 0.516-3.051 1.004-4.529 1.004-0.938 0-1.52-0.205-2.52-0.625v-10.818c1 0.296 1.578 0.441 2.496 0.441 1.791 0 3.482-0.559 5.164-1.099 1.605-0.516 3.195-1.003 4.674-1.003 0.937 0.001 1.666 0.206 2.666 0.625v10.818z"></path>
</symbol>
<symbol id="icon-meter" viewBox="0 0 24 24">
<title>meter</title>
<path d="M12 0c-6.627 0-12 5.373-12 12s5.373 12 12 12 12-5.373 12-12-5.373-12-12-12zM12 22c-5.514 0-10-4.486-10-10s4.486-10 10-10 10 4.486 10 10-4.486 10-10 10zM7.108 5.669c0 0-0.003 0.003-0.004 0.003 0 0.001 0 0.001 0 0.001-0.002 0.001-0.003 0.003-0.004 0.003-0.001 0.001-0.001 0.001-0.002 0.002-0.002 0.001-0.005 0.004-0.007 0.005-0.001 0.001-0.001 0.001-0.001 0.001-0.002 0.002-0.003 0.002-0.004 0.003l-0.002 0.001c-0.001 0.001-0.002 0.001-0.003 0.003-0.001 0-0.003 0.001-0.004 0.002 0 0-0.001 0.001-0.002 0.002-0.002 0.001-0.003 0.002-0.005 0.004 0 0-0.002 0.001-0.002 0.002-0.002 0-0.003 0.002-0.004 0.002 0 0-0.001 0.002-0.002 0.002l-0.003 0.003c-0.001 0.001-0.001 0.001-0.001 0.001-0.003 0.002-0.005 0.004-0.007 0.005v0.001c-0.002 0.001-0.004 0.002-0.005 0.004 0 0-0.001 0-0.002 0-0.001 0.002-0.003 0.003-0.004 0.004 0 0-0.001 0.001-0.002 0.002-0.004 0.002-0.007 0.005-0.011 0.007-0.001 0.001-0.001 0.001-0.001 0.001-0.002 0.001-0.004 0.003-0.005 0.005v0c-0.007 0.005-0.013 0.010-0.019 0.014v0.001c-0.107 0.087-0.213 0.175-0.316 0.267-0.006 0.005-0.012 0.010-0.017 0.015h-0.001c-0.002 0.002-0.003 0.004-0.005 0.006h-0.001c-0.004 0.003-0.007 0.006-0.011 0.010h-0.001c-0.001 0.002-0.003 0.004-0.004 0.005 0 0.001-0.001 0.001-0.001 0.001-0.002 0.002-0.003 0.003-0.005 0.004v0.001c-0.002 0-0.004 0.002-0.006 0.004 0 0-0.001 0-0.001 0.001l-0.004 0.004c-0.001 0.001-0.001 0.001-0.001 0.001-0.002 0.002-0.004 0.003-0.004 0.003-0.002 0.002-0.002 0.002-0.002 0.002-0.002 0.002-0.004 0.003-0.006 0.005 0 0 0 0-0.001 0.001l-0.004 0.004c-0.001 0.001-0.001 0.001-0.001 0.001-0.002 0.002-0.003 0.003-0.005 0.004 0 0.001-0.001 0.001-0.001 0.001l-0.004 0.005c0 0-0.001 0.001-0.002 0.002s-0.002 0.002-0.004 0.003c0 0-0.002 0.002-0.002 0.003 0 0-0.002 0.001-0.003 0.002s-0.002 0.001-0.003 0.001c0 0-0.001 0.002-0.002 0.003-0.002 0.001-0.003 0.003-0.004 0.003-0.001 0.002-0.002 0.002-0.004 0.004 0 0-0.001 0.002-0.002 0.002l-0.002 0.002c-0.002 0.001-0.003 0.002-0.004 0.003 0 0.001-0.001 0.001-0.001 0.001l-0.011 0.012h-0.001c-0.001 0.002-0.002 0.003-0.004 0.004 0 0 0 0-0.001 0.001s-0.002 0.001-0.002 0.001l0.682 0.732c0.212-0.197 0.44-0.385 0.675-0.555l-0.586-0.81c-0.071 0.050-0.141 0.103-0.211 0.157zM5.355 9.791l-0.949-0.315c-0.060 0.181-0.113 0.363-0.16 0.549-0.002 0.009-0.004 0.017-0.006 0.024h-0.001c0 0.002-0.001 0.004-0.001 0.006l-0.006 0.023c-0.001 0.002-0.001 0.004-0.002 0.006 0 0 0 0 0 0.001-0.002 0.008-0.004 0.015-0.006 0.022v0.002c0 0.002-0.001 0.004-0.001 0.004v0.002c-0.002 0.006-0.003 0.012-0.005 0.018 0 0.002-0.001 0.004-0.001 0.006-0.001 0.002-0.001 0.004-0.002 0.006v0.001c-0.001 0.005-0.003 0.011-0.004 0.017 0 0 0 0 0 0.001-0.001 0.002-0.001 0.003-0.001 0.005s0 0.002-0.001 0.002c0 0.002-0.001 0.004-0.001 0.005v0.001c-0.001 0.006-0.003 0.011-0.004 0.017 0 0.001 0 0.001 0 0.001-0.001 0.002-0.001 0.004-0.002 0.006-0.002 0.008-0.003 0.016-0.005 0.023v0.001c-0.001 0.002-0.001 0.003-0.002 0.005v0.002c-0.002 0.008-0.003 0.016-0.005 0.022v0.001c0 0.001 0 0.003-0.001 0.005-0.001 0.006-0.002 0.012-0.004 0.018 0 0.002-0.001 0.004-0.001 0.006 0 0 0 0.001 0 0.002-0.001 0.001-0.001 0.003-0.001 0.005l-0.001 0.001c-0.001 0.008-0.003 0.016-0.005 0.023s-0.003 0.016-0.005 0.024c-0.001 0.002-0.001 0.004-0.001 0.006-0.007 0.032-0.014 0.065-0.021 0.097l0.981 0.194c0.058-0.285 0.133-0.57 0.224-0.845zM12 5c0.080 0 0.159 0.002 0.238 0.004l0.033-1c-0.067-0.002-0.134-0.003-0.203-0.004h-0.001c-0.002 0-0.005 0-0.005 0h-0.020c0 0 0 0-0.001 0h-0.007c-0.001 0-0.001 0-0.001 0h-0.017c0 0-0.001 0-0.002 0h-0.004c0 0-0.001 0-0.002 0h-0.016c0 0-0.001 0-0.002 0h-0.008c0 0-0.003 0-0.005 0 0 0-0.001 0-0.002 0h-0.005c0 0-0.001 0-0.002 0h-0.007c-0.001 0-0.001 0-0.001 0h-0.054c0 0-0.001 0-0.002 0h-0.007c-0.003 0-0.005 0-0.008 0.001h-0.008c0 0-0.001 0-0.002 0h-0.005c-0.001 0-0.002 0-0.002 0h-0.006c-0.001 0-0.001 0-0.001 0-0.006 0-0.011 0.001-0.016 0.001-0.001 0-0.001 0-0.001 0h-0.007c-0.001 0-0.001 0-0.001 0h-0.031c0 0 0 0-0.001 0h-0.007c-0.008 0-0.016 0.001-0.023 0.001-0.003 0-0.006 0-0.008 0.001h-0.040c-0.222 0.008-0.442 0.024-0.66 0.049-0.007 0.002-0.015 0.002-0.022 0.004h-0.008c-0.002 0-0.004 0.001-0.004 0.001-0.002 0-0.003 0-0.004 0.001h-0.005c-0.001 0-0.001 0-0.001 0-0.003 0-0.006 0.001-0.008 0.001s-0.002 0.001-0.003 0.001h-0.008l-0.003 0.001h-0.003l0.124 0.992c0.289-0.036 0.583-0.054 0.875-0.054zM4.365 14.395v0.002c0.001 0.004 0.003 0.009 0.004 0.014 0.001 0.003 0.002 0.005 0.002 0.008h0.001c0.099 0.312 0.216 0.616 0.351 0.91l0.909-0.416c-0.121-0.265-0.226-0.539-0.312-0.816l-0.955 0.298zM19.675 9.734c-0.079-0.27-0.173-0.535-0.28-0.792v-0.001c-0.001-0.002-0.001-0.003-0.001-0.003l-0.001-0.003c-0.002-0.005-0.005-0.010-0.007-0.016v0c-0.001-0.001-0.002-0.003-0.002-0.005l-0.001-0.001c-0.001-0.001-0.001-0.003-0.002-0.005 0 0 0-0.001-0.001-0.002-0.001-0.002-0.002-0.004-0.003-0.007 0-0.001-0.001-0.002-0.001-0.003 0 0-0.001-0.002-0.001-0.003-0.001-0.001-0.001-0.003-0.001-0.003-0.001-0.002-0.002-0.002-0.002-0.004-0.001-0.001-0.001-0.002-0.002-0.004l-0.004-0.008c0-0.001 0-0.002 0-0.002-0.001-0.002-0.002-0.004-0.003-0.005 0 0 0-0.001 0-0.003-0.001-0.001-0.002-0.002-0.002-0.004-0.001 0-0.001-0.002-0.001-0.002l-0.003-0.006v0.001c-0.001-0.002-0.002-0.005-0.003-0.007l-0.001-0.001c0-0.001-0.001-0.003-0.002-0.005s0-0.002 0-0.002c-0.002-0.002-0.002-0.004-0.003-0.006l-0.010-0.022c-0.002-0.006-0.004-0.010-0.006-0.015l-0.917 0.401c0.117 0.266 0.218 0.541 0.3 0.82l0.96-0.282zM18.844 13.48c-0.062 0.284-0.142 0.567-0.237 0.841l0.943 0.331c0.021-0.059 0.041-0.119 0.061-0.18l0.026-0.082c0.071-0.229 0.133-0.462 0.185-0.699l-0.978-0.211zM16.709 5.532c0 0 0-0.001 0 0-0.005-0.004-0.009-0.007-0.014-0.011h-0.002c-0.001-0.001-0.002-0.001-0.003-0.002s-0.002-0.001-0.002-0.001c-0.001-0.002-0.003-0.002-0.003-0.002-0.002-0.002-0.004-0.004-0.004-0.004-0.001-0.002-0.002-0.002-0.003-0.002-0.001-0.002-0.002-0.002-0.004-0.003 0-0.001-0.001-0.001-0.002-0.002s-0.003-0.001-0.004-0.003c0 0-0.001 0-0.002-0.001-0.002-0.001-0.004-0.003-0.006-0.004s-0.004-0.003-0.006-0.005h-0.001c-0.002-0.002-0.003-0.003-0.005-0.004l-0.001-0.001c-0.187-0.133-0.378-0.259-0.576-0.375l-0.509 0.86c0.249 0.148 0.493 0.313 0.723 0.492l0.613-0.791c-0.061-0.047-0.122-0.093-0.185-0.139-0.001 0-0.002-0.001-0.004-0.002zM10.154 8.248c0 0-1.484 5.945-1.047 7.543s2.086 2.539 3.685 2.102c1.599-0.436 2.54-2.086 2.103-3.685-0.438-1.598-4.741-5.96-4.741-5.96zM12.527 16.929c-1.064 0.292-2.164-0.336-2.455-1.401s0.334-2.165 1.401-2.457c1.065-0.291 2.165 0.336 2.456 1.402 0.292 1.064-0.335 2.164-1.402 2.456z"></path>
</symbol>
<symbol id="icon-switch" viewBox="0 0 24 24">
<title>switch</title>
<path d="M11.5 14c0.825 0 1.5-0.9 1.5-2v-8c0-1.1-0.675-2-1.5-2s-1.5 0.9-1.5 2v8c0 1.1 0.675 2 1.5 2zM15 4.688v2.194c2.375 1.259 4 3.748 4 6.618 0 4.136-3.364 7.5-7.5 7.5s-7.5-3.364-7.5-7.5c0-2.87 1.625-5.359 4-6.618v-2.194c-3.508 1.396-6 4.812-6 8.812 0 5.238 4.262 9.5 9.5 9.5s9.5-4.262 9.5-9.5c0-4-2.492-7.416-6-8.812z"></path>
</symbol>
<symbol id="icon-forbidden" viewBox="0 0 24 24">
<title>forbidden</title>
<path d="M11.5 3c-5.238 0-9.5 4.262-9.5 9.5s4.262 9.5 9.5 9.5 9.5-4.262 9.5-9.5-4.262-9.5-9.5-9.5zM4 12.5c0-4.136 3.364-7.5 7.5-7.5 1.526 0 2.946 0.461 4.132 1.247l-10.385 10.385c-0.786-1.186-1.247-2.606-1.247-4.132zM11.5 20c-1.526 0-2.946-0.461-4.132-1.247l10.385-10.385c0.786 1.186 1.247 2.606 1.247 4.132 0 4.136-3.364 7.5-7.5 7.5z"></path>
</symbol>
<symbol id="icon-lock" viewBox="0 0 24 24">
<title>lock</title>
<path d="M19 9v-3c0-2-2-5-7-5s-7 3-7 5v3h-2v11c0 1.654 1.346 3 3 3h12c1.654 0 3-1.346 3-3v-11h-2zM7 5c0 0 1-2 5-2s5 2 5 2v4h-10v-4zM19 20c0 0.551-0.448 1-1 1h-12c-0.552 0-1-0.449-1-1v-9h14v9zM11 16.723v2.277h2v-2.277c0.596-0.347 1-0.984 1-1.723 0-1.104-0.896-2-2-2s-2 0.896-2 2c0 0.738 0.404 1.376 1 1.723z"></path>
</symbol>
<symbol id="icon-unlocked" viewBox="0 0 24 24">
<title>unlocked</title>
<path d="M19 0c-4 0-5 3-5 5v5h-14v11c0 1.654 1.346 3 3 3h12c1.654 0 3-1.346 3-3v-11h-2v-6c0 0 0-2 3-2s3 2 3 2v4h2v-3c0-2-1-5-5-5zM16 21c0 0.551-0.448 1-1 1h-12c-0.552 0-1-0.449-1-1v-9h14v9zM8 17.723v2.277h2v-2.277c0.596-0.347 1-0.984 1-1.723 0-1.104-0.896-2-2-2s-2 0.896-2 2c0 0.738 0.404 1.376 1 1.723z"></path>
</symbol>
<symbol id="icon-unlocked2" viewBox="0 0 24 24">
<title>unlocked2</title>
<path d="M11 17.723v2.277h2v-2.277c0.596-0.347 1-0.984 1-1.723 0-1.104-0.896-2-2-2s-2 0.896-2 2c0 0.738 0.404 1.376 1 1.723zM19 10v-4c0-2-2-5-7-5s-7 3-7 5v7h2v-8c0 0 1-2 5-2s5 2 5 2v5h-8v2h10v9c0 0.551-0.448 1-1 1h-12c-0.552 0-1-0.449-1-1v-6h-2v6c0 1.654 1.346 3 3 3h12c1.654 0 3-1.346 3-3v-11h-2z"></path>
</symbol>
<symbol id="icon-users" viewBox="0 0 24 24">
<title>users</title>
<path d="M15 14.363c0 0-6.182 0-8.5 5.41 0 0 3.871 1.545 8.5 1.545s8.5-1.545 8.5-1.545c-2.318-5.41-8.5-5.41-8.5-5.41zM15 13.592c2.318 0 3.863-2.318 3.863-6.183s-3.863-3.864-3.863-3.864-3.863 0-3.863 3.864 1.545 6.183 3.863 6.183zM7.5 10.955c0.762 0 1.416-0.316 1.935-0.885-0.192-0.777-0.298-1.665-0.298-2.661 0-1.485 0.571-2.396 1.274-2.958-0.766-1.765-2.911-1.769-2.911-1.769s-3.182 0-3.182 3.182c0 3.182 1.273 5.091 3.182 5.091zM10.5 13.449l-0.108-1.258c-1.558-0.596-2.892-0.6-2.892-0.6s-5.091 0-7 4.455c0 0 2.461 0.981 5.645 1.22 2.773-2.903 4.355-3.817 4.355-3.817z"></path>
</symbol>
<symbol id="icon-user" viewBox="0 0 24 24">
<title>user</title>
<path d="M12 15c0 0-8 0-11 7 0 0 5.010 2 11 2s11-2 11-2c-3-7-11-7-11-7zM12 14c3 0 5-3 5-8s-5-5-5-5-5 0-5 5 2 8 5 8z"></path>
</symbol>
<symbol id="icon-users2" viewBox="0 0 24 24">
<title>users2</title>
<path d="M23.588 19.96c-1.459-3.359-4.841-5.31-7.296-6.144 1.504-1.229 2.392-3.547 2.392-6.583 0-4.035-3.373-5.102-5.157-5.102-0.287 0-0.617 0.032-0.965 0.095-0.958-0.861-2.225-1.226-3.233-1.226-1.864 0-4.637 1.222-4.637 4.587 0 2.678 0.782 4.729 2.109 5.833-2.088 0.546-4.932 1.894-6.389 5.249l-0.412 0.949 0.963 0.38c0.086 0.034 1.27 0.488 3.062 0.889-0.205 0.348-0.398 0.699-0.561 1.073l-0.413 0.949 0.963 0.38c0.178 0.069 4.401 1.711 9.512 1.711s9.334-1.642 9.512-1.711l0.962-0.38-0.412-0.949zM16.684 7.234c0 3.431-1.21 5.562-3.157 5.562s-3.157-2.131-3.157-5.562c0-2.92 2.635-3.096 3.152-3.102 0.527 0.006 3.162 0.182 3.162 3.102zM9.329 3c0.101 0 0.501 0.017 0.958 0.165-1.070 0.77-1.917 2.046-1.917 4.069 0 1.099 0.119 2.102 0.338 2.996-1.472-0.469-2.016-2.615-2.016-4.643 0-2.431 2.202-2.582 2.637-2.587zM9.329 13.046c0.012 0 0.29 0.006 0.726 0.062 0.436 0.538 0.949 0.954 1.527 1.239-1.574 0.315-3.816 1.067-5.634 2.865-1.31-0.211-2.432-0.494-3.185-0.72 2.147-3.38 6.374-3.445 6.566-3.446zM13.526 21c-3.276 0-6.567-0.75-8.071-1.214 0.237-0.687 0.986-1.595 1.246-1.907 2.793-2.705 6.784-2.762 6.822-2.762 0.008 0 0.729 0.011 1.755 0.216 1.782 0.45 4.55 2.095 5.974 4.451-1.503 0.464-4.445 1.216-7.726 1.216z"></path>
</symbol>
<symbol id="icon-user2" viewBox="0 0 24 24">
<title>user2</title>
<path d="M23.676 19.99c-1.677-4.008-4.914-5.873-7.423-6.739 1.12-1.537 1.733-3.792 1.757-6.55 0.041-4.656-3.798-5.921-5.833-5.938s-5.896 1.18-5.938 5.836c-0.024 2.757 0.55 5.021 1.642 6.579-2.523 0.82-5.795 2.632-7.54 6.608l-0.413 0.938 0.949 0.39c0.207 0.083 5.126 2.070 11.102 2.122 5.977 0.053 10.93-1.847 11.139-1.927l0.955-0.372-0.397-0.947zM12.153 2.763c0.399 0.008 3.89 0.178 3.857 3.921-0.026 2.996-0.841 5.274-2.232 6.251l-1.721 1.208-1.696-1.237c-1.375-1.002-2.149-3.294-2.122-6.29 0.033-3.744 3.527-3.852 3.914-3.853zM11.997 21.237c-4.046-0.035-7.648-1.047-9.341-1.607 1.83-3.205 4.931-4.457 7.312-4.937l2.089-0.421 2.081 0.456c2.373 0.523 5.452 1.829 7.227 5.064-1.699 0.532-5.31 1.481-9.368 1.445z"></path>
</symbol>
<symbol id="icon-bullhorn" viewBox="0 0 24 24">
<title>bullhorn</title>
<path d="M7.74 17l12.26 4v-18l-12.26 4h-3.74c-1.654 0-3 1.346-3 3v4c0 1.654 1.346 3 3 3h0.427c-0.001 0.025-0.003 0.047-0.003 0.072-0.001 0.639 0.065 1.514 0.366 2.41 0.162 0.443 0.364 0.895 0.641 1.293 0.138 0.199 0.271 0.396 0.435 0.559 0.157 0.168 0.301 0.338 0.465 0.459 0.312 0.271 0.602 0.463 0.816 0.572 0.214 0.119 0.335 0.189 0.335 0.189l0.037 0.021c0.188 0.104 0.399 0.174 0.627 0.199 0.92 0.104 1.749-0.559 1.852-1.479s-0.56-1.748-1.479-1.854c0 0-0.058-0.004-0.157-0.016-0.109 0-0.254-0.023-0.427-0.076-0.097-0.014-0.18-0.066-0.283-0.105-0.107-0.035-0.204-0.105-0.314-0.174-0.221-0.135-0.436-0.342-0.649-0.576-0.377-0.443-0.673-1.012-0.868-1.494h1.919zM17 5.721l1-0.334v13.227l-1-0.303v-12.59zM9 8.398l7-2.342v11.954l-7-2.408v-7.204zM4 15c-0.552 0-1-0.449-1-1v-4c0-0.551 0.448-1 1-1h4v6h-4zM21 9h1v6h-1z"></path>
</symbol>
<symbol id="icon-share" viewBox="0 0 24 24">
<title>share</title>
<path d="M20 16c-1.2 0-2.266 0.542-3 1.382l-7.324-3.662c0.199-0.538 0.324-1.113 0.324-1.72s-0.125-1.182-0.324-1.72l7.324-3.662c0.734 0.84 1.8 1.382 3 1.382 2.206 0 4-1.795 4-4s-1.794-4-4-4-4 1.795-4 4c0 0.287 0.033 0.566 0.091 0.836l-7.47 3.735c0.003 0.003 0.004 0.007 0.007 0.009-0.912-0.967-2.196-1.58-3.628-1.58-2.757 0-5 2.243-5 5s2.243 5 5 5c1.432 0 2.716-0.613 3.628-1.58-0.003 0.002-0.004 0.006-0.007 0.009l7.47 3.735c-0.058 0.27-0.091 0.549-0.091 0.836 0 2.205 1.794 4 4 4s4-1.795 4-4-1.794-4-4-4zM20 2c1.103 0 2 0.896 2 2s-0.897 2-2 2-2-0.896-2-2 0.897-2 2-2zM5 15c-1.654 0-3-1.346-3-3s1.346-3 3-3 3 1.346 3 3-1.346 3-3 3zM20 22c-1.103 0-2-0.896-2-2s0.897-2 2-2 2 0.896 2 2-0.897 2-2 2z"></path>
</symbol>
<symbol id="icon-screen" viewBox="0 0 24 24">
<title>screen</title>
<path d="M0 2v14h9.75l-1.75 3h8l-1.75-3h9.75v-14h-24zM22 14h-20v-10h20v10zM17 20h-10c-0.55 0-1 0.45-1 1s0.45 1 1 1h10c0.55 0 1-0.45 1-1s-0.45-1-1-1z"></path>
</symbol>
<symbol id="icon-phone" viewBox="0 0 24 24">
<title>phone</title>
<path d="M16 3h-8c-1.1 0-2 0.9-2 2v14c0 1.1 0.9 2 2 2h8c1.1 0 2-0.9 2-2v-14c0-1.1-0.9-2-2-2zM13 20h-2v-2h2v2zM16 17h-8v-12h8v12z"></path>
</symbol>
<symbol id="icon-phone-portrait" viewBox="0 0 24 24">
<title>phone-portrait</title>
<path d="M21 9h-7v2h7v8h-7c0 1.1-1 2-1 2h8c1.1 0 2-0.9 2-2v-8c0-1.1-0.9-2-2-2zM10 3h-8c-1.1 0-2 0.9-2 2v14c0 1.1 0.9 2 2 2h8c1.1 0 2-0.9 2-2v-14c0-1.1-0.9-2-2-2zM7 20h-2v-2h2v2zM10 17h-8v-12h8v12z"></path>
</symbol>
<symbol id="icon-phone-landscape" viewBox="0 0 24 24">
<title>phone-landscape</title>
<path d="M2 5h8v2h2v-2c0-1.1-0.9-2-2-2h-8c-1.1 0-2 0.9-2 2v14c0 1.1 0.761 2 1.86 2h1.14v-4h-1v-12zM21 9h-14c-1.1 0-2 0.9-2 2v8c0 1.1 0.9 2 2 2h14c1.1 0 2-0.9 2-2v-8c0-1.1-0.9-2-2-2zM8 16h-2v-2h2v2zM21 19h-12v-8h12v8z"></path>
</symbol>
<symbol id="icon-tablet" viewBox="0 0 24 24">
<title>tablet</title>
<path d="M19 1h-14c-1.1 0-2 0.9-2 2v18c0 1.1 0.9 2 2 2h14c1.1 0 2-0.9 2-2v-18c0-1.1-0.9-2-2-2zM13 22h-2v-2h2v2zM19 19h-14v-16h14v16z"></path>
</symbol>
<symbol id="icon-tablet-landscape" viewBox="0 0 24 24">
<title>tablet-landscape</title>
<path d="M23 19v-14c0-1.1-0.9-2-2-2h-18c-1.1 0-2 0.9-2 2v14c0 1.1 0.9 2 2 2h18c1.1 0 2-0.9 2-2zM2 13v-2h2v2h-2zM5 19v-14h16v14h-16z"></path>
</symbol>
<symbol id="icon-laptop" viewBox="0 0 24 24">
<title>laptop</title>
<path d="M3 6h18v10h2v-12h-22v12h2v-10zM16 17c-0.192 0.402-1.145 0.725-2 0.886v0.114h-4v-0.114c-0.855-0.161-1.808-0.484-2-0.886h-8v1c0 1.1 3 2 3 2h18c0 0 3-0.9 3-2v-1h-8zM20 19h-1v-1h1v1z"></path>
</symbol>
<symbol id="icon-camera" viewBox="0 0 24 24">
<title>camera</title>
<path d="M12.499 9c-2.485 0-4.499 2.015-4.499 4.5s2.014 4.5 4.499 4.5c2.484 0 4.499-2.015 4.499-4.5s-2.015-4.5-4.499-4.5zM10.757 10.483c0.514-0.299 1.105-0.483 1.743-0.483 1.791 0 3.256 1.358 3.459 3.097-1.73-1.332-3.775-2.154-5.202-2.614zM22.5 5h-4.834l-0.666-2h-10l-0.666 2h-3.834c-1.104 0-2.5 0.896-2.5 2v12c0 1.104 1.396 2 2.5 2h20c1.104 0 1.5-0.896 1.5-2v-12c0-1.104-0.396-2-1.5-2zM12.5 20c-3.59 0-6.5-2.91-6.5-6.5s2.91-6.5 6.5-6.5 6.5 2.91 6.5 6.5-2.91 6.5-6.5 6.5zM22 9h-2v-2h2v2z"></path>
</symbol>
<symbol id="icon-microwaveoven" viewBox="0 0 24 24">
<title>microwaveoven</title>
<path d="M21 3h-18c-1.654 0-3 1.346-3 3v11c0 1.654 1.346 3 3 3h1l1 2h1l1-2h10l1 2h1l1-2h1c1.654 0 3-1.346 3-3v-11c0-1.654-1.346-3-3-3zM22 17c0 0.552-0.449 1-1 1h-18c-0.551 0-1-0.448-1-1v-11c0-0.551 0.449-1 1-1h18c0.551 0 1 0.449 1 1v11zM3 17h15v-11h-15v11zM4 7h13v9h-13v-9zM19 7h1v1h-1zM20 8h1v1h-1zM19 9h1v1h-1zM20 10h1v1h-1zM19 13h2v1h-2zM19 15h2v1h-2z"></path>
</symbol>
<symbol id="icon-creditcards" viewBox="0 0 24 24">
<title>creditcards</title>
<path d="M22 7h-2v-0.59c0-1.101-0.896-2.41-2-2.41h-16c-1.104 0-2 1.309-2 2.41v9c0 1.104 0.896 1.59 2 1.59h1v2.41c0 1.104 0.896 1.59 2 1.59h17c1.104 0 2-0.486 2-1.59v-10c0-1.101-0.896-2.41-2-2.41zM3 15h-1v-4h1v4zM3.278 8h-1.278v-2h16v1h-13c-0.736 0-1.375 1-1.722 1zM5 19v-10h17l0.002 10h-17.002zM16 16h5v-4h-5v4zM17 13h3v2h-3v-2zM8 18h4v-1h-4v1zM6 12h7v-2h-7v2zM13.002 18h0.996v-1h-0.996v1zM6 18h0.996v-1h-0.996v1z"></path>
</symbol>
<symbol id="icon-calculator" viewBox="0 0 24 24">
<title>calculator</title>
<path d="M4 16h3v-3h-3v3zM5 14h1v1h-1v-1zM8 16h3v-3h-3v3zM9 14h1v1h-1v-1zM8 20h3v-3h-3v3zM9 18h1v1h-1v-1zM4 20h3v-3h-3v3zM5 18h1v1h-1v-1zM12 16h3v-3h-3v3zM13 14h1v1h-1v-1zM10 10h1v-1h-1v1zM8 10h1v-1h-1v1zM4 12h16v-9h-16v9zM5 4h14v7h-14v-7zM20 0h-16c-1.657 0-3 1.343-3 3v18c0 1.657 1.343 3 3 3h16c1.657 0 3-1.343 3-3v-18c0-1.657-1.343-3-3-3zM21 21c0 0.553-0.447 1-1 1h-16c-0.553 0-1-0.447-1-1v-18c0-0.553 0.447-1 1-1h16c0.553 0 1 0.447 1 1v18zM12 20h3v-3h-3v3zM13 18h1v1h-1v-1zM16 20h4v-7h-4v7zM17 14h2v5h-2v-5zM6 10h1v-1h-1v1z"></path>
</symbol>
<symbol id="icon-bag" viewBox="0 0 24 24">
<title>bag</title>
<path d="M18 7v-3.004l-3-2.996h-6l-3 2.996v3.004h-3v17h18v-17h-3zM9 3h6l1 1h-8l1-1zM16 5v2h-1v-2h1zM14 5v2h-4v-2h4zM8 5h1v2h-1v-2zM19 22h-14v-13h14v13z"></path>
</symbol>
<symbol id="icon-diamond" viewBox="0 0 24 24">
<title>diamond</title>
<path d="M17.408 1.967h-10.816l-6.592 6.533 12 13.533 12-13.533-6.592-6.533zM21.594 9.028l-0.014-0.061h-8.902l4.268-4.609 4.648 4.67zM10.398 17.386l-7.023-7.419h4.625l-0.465 0.223 2.863 7.196zM8.537 9.967h6.924l-3.461 8.654-3.463-8.654zM16 9.967h4.623l-7.023 7.419 2.863-7.196-0.463-0.223zM12 8.229l-3.914-4.262h7.826l-3.912 4.262zM7.053 4.396l4.268 4.571h-8.903l-0.012 0.023 4.647-4.594z"></path>
</symbol>
<symbol id="icon-drink" viewBox="0 0 24 24">
<title>drink</title>
<path d="M7 18c0 0.552 0.448 1 1 1s1-0.448 1-1c0-0.552-0.448-1-1-1s-1 0.448-1 1zM10 18c0 0.552 0.448 1 1 1s1-0.448 1-1c0-0.552-0.448-1-1-1s-1 0.448-1 1zM13 18c0 0.552 0.448 1 1 1s1-0.448 1-1c0-0.552-0.448-1-1-1s-1 0.448-1 1zM6 15.5c0 0.276 0.224 0.5 0.5 0.5s0.5-0.224 0.5-0.5c0-0.276-0.224-0.5-0.5-0.5s-0.5 0.224-0.5 0.5zM8 15.5c0 0.276 0.224 0.5 0.5 0.5s0.5-0.224 0.5-0.5c0-0.276-0.224-0.5-0.5-0.5s-0.5 0.224-0.5 0.5zM10 15.5c0 0.276 0.224 0.5 0.5 0.5s0.5-0.224 0.5-0.5c0-0.276-0.224-0.5-0.5-0.5s-0.5 0.224-0.5 0.5zM12 15.5c0 0.276 0.224 0.5 0.5 0.5s0.5-0.224 0.5-0.5c0-0.276-0.224-0.5-0.5-0.5s-0.5 0.224-0.5 0.5zM14 15.5c0 0.276 0.224 0.5 0.5 0.5s0.5-0.224 0.5-0.5c0-0.276-0.224-0.5-0.5-0.5s-0.5 0.224-0.5 0.5zM15 13.5c0 0.276 0.224 0.5 0.5 0.5s0.5-0.224 0.5-0.5c0-0.276-0.224-0.5-0.5-0.5s-0.5 0.224-0.5 0.5zM13 13.5c0 0.276 0.224 0.5 0.5 0.5s0.5-0.224 0.5-0.5c0-0.276-0.224-0.5-0.5-0.5s-0.5 0.224-0.5 0.5zM11 13.5c0 0.276 0.224 0.5 0.5 0.5s0.5-0.224 0.5-0.5c0-0.276-0.224-0.5-0.5-0.5s-0.5 0.224-0.5 0.5zM9 13.5c0 0.276 0.224 0.5 0.5 0.5s0.5-0.224 0.5-0.5c0-0.276-0.224-0.5-0.5-0.5s-0.5 0.224-0.5 0.5zM7 13.5c0 0.276 0.224 0.5 0.5 0.5s0.5-0.224 0.5-0.5c0-0.276-0.224-0.5-0.5-0.5s-0.5 0.224-0.5 0.5zM5 13.5c0 0.276 0.224 0.5 0.5 0.5s0.5-0.224 0.5-0.5c0-0.276-0.224-0.5-0.5-0.5s-0.5 0.224-0.5 0.5zM19.596 6.368l0.895-1.789-7.030-3.696-2.461 6.116h-8v15.001h2v2h10v-2h3v-15.001h-5l1.628-3.296 4.968 2.665zM14 22h-7v-1h7v1zM16 8.999v11.001h-11v-1c0.553 0 1-0.447 1-1s-0.447-1-1-1v-8.001h11z"></path>
</symbol>
<symbol id="icon-shorts" viewBox="0 0 24 24">
<title>shorts</title>
<path d="M1 3v17h9v2h13v-19h-22zM11 18h-8v-1h8v1zM21 20h-9v-1h9v1zM21 6h-1v1h1v11h-9v-6h-1v4h-8v-5.048c0.743-0.057 2.723-0.362 2.723-1.987l-2.723 1.815v-5.78h18v1zM20.723 10.965l-3-2c0 2 3 2 3 2zM19 6h-1v1h1v-1zM17 6h-1v1h1v-1zM15 6h-1v1h1v-1zM13 6h-1v1h1v-1zM11 6h-1v1h1v-1zM9 6h-1v1h1v-1zM7 6h-1v1h1v-1zM5 6h-1v1h1v-1z"></path>
</symbol>
<symbol id="icon-vcard" viewBox="0 0 24 24">
<title>vcard</title>
<path d="M11 8h-7v8h7v-8zM10 14.501c0-0.828-1.119-1.499-2.5-1.499s-2.5 0.671-2.5 1.499v-5.501h5v5.501zM6 11.502c0 0.828 0.672 1.5 1.5 1.5s1.5-0.672 1.5-1.5c0-0.828-0.672-1.5-1.5-1.5s-1.5 0.672-1.5 1.5zM21.929 4h-20c-1.105 0-1.929 0.807-1.929 1.91v12c0 1.106 0.824 2.090 1.929 2.090h20c1.104 0 2.071-0.984 2.071-2.090v-12c0-1.103-0.967-1.91-2.071-1.91zM22 18h-20v-12h20v12zM13 8h7v2h-7zM13 11h7v1h-7zM13 13h7v1h-7zM13 15h3v1h-3zM16.998 15h1.002v1.002h-1.002z"></path>
</symbol>
<symbol id="icon-sun" viewBox="0 0 24 24">
<title>sun</title>
<path d="M23.986 12l-2.658-3.061 0.369-4.052-3.932-0.897-2.061-3.502-3.704 1.613-3.706-1.613-2.059 3.502-3.933 0.898 0.368 4.051-2.656 3.061 2.656 3.061-0.368 4.053 3.934 0.896 2.061 3.502 3.703-1.611 3.704 1.61 2.059-3.5 3.935-0.896-0.369-4.055 2.657-3.060zM16.519 18.283l-1.613 2.744-2.906-1.262-2.905 1.263-1.615-2.744-3.086-0.706 0.289-3.176-2.085-2.402 2.085-2.399-0.289-3.178 3.088-0.706 1.611-2.742 2.907 1.262 2.905-1.263 1.613 2.742 3.086 0.706-0.289 3.176 2.085 2.402-2.085 2.401 0.289 3.178-3.085 0.704zM12 5.621c-3.484 0-6.319 2.862-6.319 6.379s2.835 6.379 6.319 6.379 6.319-2.861 6.319-6.379c0-3.517-2.835-6.379-6.319-6.379zM12 17.397c-2.948 0-5.347-2.421-5.347-5.397s2.399-5.397 5.347-5.397c2.947 0 5.347 2.421 5.347 5.397s-2.4 5.397-5.347 5.397z"></path>
</symbol>
<symbol id="icon-bill" viewBox="0 0 24 24">
<title>bill</title>
<path d="M20 8v-3h-20v12h3v3h20v-12h-3zM3 15h-1v-8h16v1h-15v7zM21 18h-16v-8h16v8zM6 11v6h14v-6h-14zM7 16v-4h3.281c-0.173 0.295-0.279 0.635-0.279 1v2c0 0.365 0.106 0.704 0.28 1h-3.282zM15 14.5c0 0.828-0.672 1.5-1.5 1.5h-1c-0.828 0-1.5-0.672-1.5-1.5v-1c0-0.828 0.672-1.5 1.5-1.5h1c0.828 0 1.5 0.672 1.5 1.5v1zM19 16h-3.277c0.173-0.296 0.279-0.635 0.279-1v-2c0-0.365-0.106-0.705-0.279-1h3.277v4z"></path>
</symbol>
<symbol id="icon-coffee" viewBox="0 0 24 24">
<title>coffee</title>
<path d="M21.276 7l-1.666-5h-2.613v-1h-6v1h-6.828l-1.666 5h1.498l2 17h11.777l2-17h1.498zM5.611 4h7.387v-1h2v1h3.172l0.334 1h-13.226l0.333-1zM6.369 10h11.044l-0.588 5h-9.868l-0.588-5zM7.78 22l-0.706-6h9.632l-0.705 6h-8.221zM17.53 9h-11.28l-0.235-2h11.75l-0.235 2z"></path>
</symbol>
<symbol id="icon-uniE96F" viewBox="0 0 24 24">
<title>uniE96F</title>
<path d="M18.215 4h-3.16l-1.6-2h-1.455v-1h-1v1h-1.053l-1.334 2h-4.398c-1.654 0-3.215 0.904-3.215 2.559v12c0 1.654 2 3.441 3 3.441v2h3v-2h8v2h3v-2c2 0 3-1.787 3-3.441v-12c0-1.655-1.131-2.559-2.785-2.559zM10.482 3h2.492l0.799 1h-3.958l0.667-1zM19 18.559c0 0.551-0.234 1.441-0.785 1.441h-14c-0.552 0-1.215-0.89-1.215-1.441v-12c0-0.552 0.663-0.559 1.215-0.559h14c0.551 0 0.785 0.007 0.785 0.559v12zM4 16h14v-8h-14v8zM5 9h12v6h-12v-6zM9.999 19h1.998v-2h-1.998v2z"></path>
</symbol>
<symbol id="icon-newspaper" viewBox="0 0 24 24">
<title>newspaper</title>
<path d="M6 16h12v-6h-12v6zM7 11h10v4h-10v-4zM6 8h12v1h-12zM6 17h5v1h-5zM6 19h3v1h-3zM10.035 19.059h1v1h-1zM13 17h5v1h-5zM13 19h5v1h-5zM20 4v-0.941c0-1.159-0.998-2.059-3.465-2.059h-12c-1.654 0-2.535 1.404-2.535 3.059v17c0 1.654 0.881 2.941 2.535 2.941h14c1.654 0 1.465 0 3.465 0v-20h-2zM20 22h-15.465c-0.551 0-0.535-0.391-0.535-0.941v-17c0-0.551-0.016-1.059 0.535-1.059h13.465v1h-12v2h14v16z"></path>
</symbol>
<symbol id="icon-stack" viewBox="0 0 24 24">
<title>stack</title>
<path d="M21 6v-3h-21v15h3v3h21v-15h-3zM3 16h-1v-11h17v1h-16v10zM22 19h-17v-11h17v11z"></path>
</symbol>
<symbol id="icon-mapmarker" viewBox="0 0 24 24">
<title>mapmarker</title>
<path d="M11.999 0c-5.027 0-9.103 4.076-9.103 9.104 0 5.029 7.15 14.896 9.104 14.896 1.445 0 9.105-9.867 9.105-14.896-0.001-5.028-4.077-9.104-9.106-9.104zM11.958 13.584c-2.555 0-4.625-2.070-4.625-4.625s2.070-4.625 4.625-4.625 4.625 2.070 4.625 4.625-2.070 4.625-4.625 4.625z"></path>
</symbol>
<symbol id="icon-map" viewBox="0 0 24 24">
<title>map</title>
<path d="M15.418 0.581l-7.201 3.99-8.217-4.571v18.303l8.434 4.572 6.799-4.008 7.767 4.278v-18.271l-7.582-4.293zM21 12.234l-5-2.562v-6.278l5 2.678v6.162zM9 6.304l5-2.857v6.272l-5 2.857v-6.272zM9 13.729l5-2.858v6.274l-5 2.855v-6.271zM7 6.304v6.235l-5-3.007v-6.086l5 2.858zM2 10.7l5 3.007v6.293l-5-2.855v-6.445zM16 17.125v-6.329l5 2.562v6.445l-5-2.678z"></path>
</symbol>
<symbol id="icon-support" viewBox="0 0 24 24">
<title>support</title>
<path d="M20.486 3.516c-2.172-2.172-5.172-3.516-8.486-3.516-3.312 0-6.312 1.344-8.484 3.516s-3.516 5.172-3.516 8.484c0 3.314 1.344 6.314 3.516 8.486 2.172 2.17 5.172 3.514 8.484 3.514 3.314 0 6.314-1.344 8.486-3.514 2.17-2.172 3.514-5.172 3.514-8.486 0-3.312-1.344-6.312-3.514-8.484zM16 12c0 1.104-0.449 2.104-1.172 2.828-0.724 0.723-1.724 1.172-2.828 1.172-1.102 0-2.102-0.449-2.826-1.172-0.725-0.724-1.174-1.724-1.174-2.828 0-1.102 0.449-2.102 1.174-2.826s1.724-1.174 2.826-1.174c1.104 0 2.104 0.449 2.828 1.174 0.723 0.724 1.172 1.724 1.172 2.826zM2 12c0-2.756 1.121-5.256 2.932-7.068l2.826 2.826c-1.086 1.086-1.758 2.586-1.758 4.242s0.672 3.156 1.758 4.242l-2.826 2.826c-1.811-1.81-2.932-4.31-2.932-7.068zM19.068 19.068l-2.826-2.826c1.086-1.086 1.758-2.586 1.758-4.242s-0.672-3.156-1.758-4.242l2.826-2.826c1.811 1.812 2.932 4.312 2.932 7.068 0 2.758-1.121 5.258-2.932 7.068z"></path>
</symbol>
<symbol id="icon-uniE975" viewBox="0 0 24 24">
<title>uniE975</title>
<path d="M8 1v4h-7v15h6.137l1.685 4h11l2.178-2v-21h-14zM3 18v-8.25l3.295 8.25h-3.295zM7.5 17l-4-10h4v10zM20 21l-1.179 1h-8.821v-19h10v18zM11 5h5v1h-5zM11 11h5v1h-5zM11 13h5v1h-5zM11 15h5v1h-5zM11 17h5v1h-5zM11 19h5v1h-5zM17.002 4.999h1.998v1.002h-1.998zM17.002 7h0.999v1.002h-0.999zM14.998 7h0.999v1.002h-0.999zM14.002 7h-3.002v1.002h3.002zM18.001 11h0.996v1.002h-0.996zM18.001 12.999h0.996v1.002h-0.996zM18.001 15h0.996v1.002h-0.996zM18.001 16.999h0.996v1.002h-0.996z"></path>
</symbol>
<symbol id="icon-barbell" viewBox="0 0 24 24">
<title>barbell</title>
<path d="M21.767 9c-0.55 0-0.767 0.9-0.767 2v2c0 1.1 0.217 2 0.767 2s0.767-0.9 0.767-2h1.466v-2h-1.467c0-1.1-0.217-2-0.766-2zM18 6c-1 0-1 0.9-1 2v3h-10v-3c0-1.1 0-2-1-2-1.1 0-2 0.9-2 2v8c0 1.1 0.9 2 2 2 1 0 1-0.9 1-2v-3h10v3c0 1.1 0 2 1 2 1.1 0 2-0.9 2-2v-8c0-1.1-0.9-2-2-2zM2.233 9c0.55 0 0.767 0.9 0.767 2v2c0 1.1-0.217 2-0.767 2s-0.767-0.9-0.767-2h-1.466v-2h1.467c0-1.1 0.217-2 0.766-2z"></path>
</symbol>
<symbol id="icon-stopwatch" viewBox="0 0 24 24">
<title>stopwatch</title>
<path d="M13 4.050v-1.050h0.5c0.276 0 0.5-0.224 0.5-0.5v-2c0-0.276-0.224-0.5-0.5-0.5h-3c-0.276 0-0.5 0.224-0.5 0.5v2c0 0.276 0.224 0.5 0.5 0.5h0.5v1.054c-0.901 0.092-1.767 0.304-2.583 0.619l-1.047-1.011-1.827-1.826-3.518 3.518 2.271 2.271c-1.434 1.73-2.296 3.951-2.296 6.375 0 5.523 4.477 10 10 10s10-4.477 10-10c0-5.186-3.946-9.448-9-9.95zM11 1h2v1h-2v-1zM3.439 5.354l2.104-2.104 1.167 1.166-2.104 2.104-1.167-1.166zM12 22c-4.411 0-8-3.589-8-8s3.589-8 8-8 8 3.589 8 8-3.589 8-8 8zM11.207 9.459c-0.391-0.391-1.023-0.391-1.414 0s-0.391 1.023 0 1.414l1.964 1.965-2.628 3.672c-0.271 0.481-0.101 1.091 0.381 1.361 0.155 0.088 0.323 0.129 0.489 0.129 0.35 0 0.689-0.184 0.872-0.51l3-4.334c0.221-0.391 0.153-0.88-0.164-1.197l-2.5-2.5z"></path>
</symbol>
<symbol id="icon-atom" viewBox="0 0 24 24">
<title>atom</title>
<path d="M12 8.999c-1.656 0-3 1.344-3 3s1.344 3 3 3 3-1.344 3-3-1.344-3-3-3zM21.231 9.365c-0.325-0.105-0.618-0.272-0.869-0.493-0.404 0.744-0.902 1.507-1.439 2.272-0.835-1.073-1.788-2.156-2.851-3.219-1.055-1.055-2.142-2.012-3.226-2.854 2.577-1.816 5.054-2.909 6.817-2.909 0.716 0 1.264 0.185 1.628 0.549 0.396 0.396 0.571 1.018 0.54 1.806 0.057-0.004 0.11-0.018 0.168-0.018 0.288 0 0.562 0.059 0.819 0.148 0.062-1.121-0.204-2.027-0.82-2.644-0.559-0.559-1.344-0.842-2.335-0.842-2.043 0-4.812 1.219-7.662 3.277-2.85-2.058-5.619-3.278-7.662-3.278-0.212 0-0.411 0.020-0.604 0.046 0.273 0.264 0.479 0.59 0.61 0.955 1.763 0.002 4.238 1.095 6.813 2.91-1.086 0.844-2.174 1.801-3.228 2.856-1.050 1.051-2.007 2.14-2.856 3.234-0.855-1.211-1.56-2.412-2.065-3.553-0.346-0.779-0.577-1.494-0.712-2.14-0.099 0.013-0.195 0.031-0.297 0.031-0.258 0-0.502-0.051-0.736-0.123 0.134 0.796 0.405 1.678 0.831 2.638 0.567 1.281 1.365 2.632 2.345 3.988-0.979 1.354-1.775 2.705-2.343 3.985-1.209 2.727-1.241 4.861-0.091 6.011 0.559 0.559 1.344 0.842 2.335 0.842 3.020 0 7.626-2.656 11.735-6.767 1.053-1.054 2.011-2.146 2.859-3.243 2.77 3.914 3.564 7.25 2.355 8.459-0.364 0.364-0.912 0.549-1.628 0.549-0.943 0-2.095-0.318-3.354-0.887-0.133 0.32-0.33 0.604-0.575 0.842 1.458 0.675 2.804 1.045 3.929 1.045 0.991 0 1.776-0.283 2.335-0.842 1.738-1.738 0.641-5.731-2.449-10.011 0.635-0.881 1.215-1.761 1.683-2.62zM4.341 21.84c-0.716 0-1.264-0.185-1.628-0.549-0.825-0.825-0.717-2.61 0.298-4.898 0.505-1.14 1.209-2.339 2.062-3.55 0.849 1.093 1.805 2.182 2.854 3.23 1.061 1.061 2.154 2.001 3.246 2.846-2.583 1.824-5.067 2.921-6.832 2.921zM15.369 15.366c-1.094 1.094-2.232 2.082-3.364 2.942-1.135-0.862-2.274-1.847-3.371-2.942-1.094-1.094-2.079-2.229-2.943-3.364 0.864-1.137 1.852-2.273 2.946-3.368 1.093-1.094 2.232-2.082 3.365-2.944 1.132 0.861 2.27 1.849 3.363 2.942 1.136 1.136 2.114 2.265 2.952 3.36-0.864 1.14-1.851 2.277-2.948 3.374zM22 5.999c-0.553 0-1 0.447-1 1s0.447 1 1 1 1-0.447 1-1-0.447-1-1-1zM14 18.999c-0.553 0-1 0.447-1 1s0.447 1 1 1 1-0.447 1-1-0.447-1-1-1zM2 3.999c0.553 0 1-0.447 1-1s-0.447-1-1-1-1 0.447-1 1 0.447 1 1 1z"></path>
</symbol>
<symbol id="icon-syringe" viewBox="0 0 24 24">
<title>syringe</title>
<path d="M19.602 5.105l1.414 1.414 1.414-1.414-3.535-3.535-1.415 1.414 1.414 1.414-2.122 2.122-4.243-4.243-1.414 1.414 1.414 1.414-10.605 10.607 2.424 2.425-2.778 4.293 4.293-2.777 2.424 2.424 10.608-10.607 1.414 1.414 1.414-1.414-4.243-4.242 2.122-2.123zM17.48 10.056l-2.123 2.121-2.121-2.122-0.707 0.707 2.121 2.122-1.414 1.415-2.121-2.122-0.707 0.707 2.121 2.122-1.414 1.414-2.121-2.122-0.707 0.707 2.121 2.122-2.121 2.121-3.535-3.536 9.191-9.192 3.537 3.536z"></path>
</symbol>
<symbol id="icon-health" viewBox="0 0 24 24">
<title>health</title>
<path d="M20.785 3.193c-6.041-0.859-12.071-0.861-18.126 0.002-1.565 0.234-2.659 1.715-2.659 3.303v11c0 1.588 0.908 3.070 2.482 3.306 3.021 0.43 5.916 0.647 8.968 0.647s6.406-0.218 9.434-0.648c1.567-0.235 3.116-1.717 3.116-3.305v-10.998c0-1.588-1.639-3.070-3.215-3.307zM2 6.5c0-0.605 0.178-1.238 0.764-1.326 2.642-0.375 5.186-0.575 7.829-0.612l-3.919 6.956h-4.674v-5.018zM22 17.498c0 0.605-0.908 1.237-1.496 1.325-5.855 0.833-11.709 0.831-17.549 0.001-0.596-0.089-0.955-0.72-0.955-1.326v-3.98h5.861l1.771-2.758 0.849 7.18 5.142-4.422h6.377v3.98zM22 11.518h-7.088l-2.858 2.813-1.091-9.776c0.164-0.001 0.323-0.009 0.487-0.009 2.958 0 6.218 0.212 9.138 0.626 0.596 0.090 1.412 0.722 1.412 1.326v5.020zM16.002 6.998h0.996v1.002h-0.996zM18 6.998h1.002v1.002h-1.002z"></path>
</symbol>
<symbol id="icon-bolt" viewBox="0 0 24 24">
<title>bolt</title>
<path d="M16.609 11.585l-4.331-0.93 1.999-9.306-6.886 10.302 3.49 0.75-2.201 10.249 7.929-11.065z"></path>
</symbol>
<symbol id="icon-pill" viewBox="0 0 24 24">
<title>pill</title>
<path d="M20.486 3.515c-2.34-2.339-6.146-2.339-8.487 0l-8.484 8.485c-2.339 2.34-2.34 6.146 0 8.485s6.145 2.339 8.485 0l8.486-8.485c2.338-2.34 2.34-6.146 0-8.485zM19.072 4.929c1.559 1.56 1.559 4.098 0 5.657l-4.244 4.242-5.656-5.656 4.242-4.243c1.561-1.56 4.098-1.56 5.658 0z"></path>
</symbol>
<symbol id="icon-bones" viewBox="0 0 24 24">
<title>bones</title>
<path d="M21.824 14.785c-0.080-0.047-0.162-0.090-0.247-0.133l-0.186-0.121-4.077-2.863 1.184-0.883c1.119 0.475 2.605-0.465 3.248-0.869 1.633-1.031 2.121-3.197 1.090-4.828-0.94-1.488-2.824-2.027-4.387-1.328l-0.017-0.030c-0.883-1.398-2.74-1.818-4.139-0.936-0.918 0.58-1.59 2.229-0.857 4.090l-1.42 1.064-1.625-1.141c0.674-1.883-0.047-3.51-0.982-4.062-1.426-0.84-3.27-0.363-4.107 1.062l-0.020 0.029c-1.583-0.647-3.45-0.051-4.344 1.465-0.979 1.662-0.425 3.812 1.238 4.793 0.655 0.385 2.172 1.277 3.275 0.768l1.383 0.969-4.158 3.113-0.182 0.126c-0.082 0.045-0.162 0.090-0.24 0.141-1.634 1.029-2.121 3.197-1.092 4.828 1.031 1.631 3.197 2.121 4.828 1.090 0.781-0.492 1.32-1.258 1.529-2.148l4.612-3.443 4.543 3.18c0.237 0.883 0.8 1.631 1.595 2.1 1.662 0.98 3.814 0.424 4.792-1.238 0.982-1.664 0.425-3.814-1.237-4.795zM13.85 9.236l2.268-1.68-0.533-0.846c-0.752-1.189-0.382-2.094-0.223-2.225 0.465-0.295 1.084-0.154 1.379 0.311l1.068 1.691 1.268-0.801c0.698-0.441 1.627-0.232 2.070 0.467 0.441 0.699 0.23 1.629-0.469 2.070-0.766 0.484-1.152 0.643-1.347 0.676l-0.454-0.719-3.563 2.59-1.862-1.238 0.398-0.296zM9.292 15.148l-3.643 2.648-0.042 0.494c-0.039 0.48-0.289 0.898-0.684 1.146-0.699 0.441-1.629 0.232-2.070-0.467s-0.232-1.627 0.467-2.068c0.085-0.055 0.176-0.1 0.27-0.135l1-0.668 4.459-3.305 1.814 1.211-1.571 1.144zM21.34 18.562c-0.42 0.713-1.343 0.951-2.056 0.531-0.402-0.238-0.663-0.646-0.718-1.125l-0.059-0.494-13.515-9.204-0.433 0.736c-0.196-0.027-0.586-0.176-1.368-0.635-0.712-0.422-0.949-1.342-0.531-2.055 0.422-0.713 1.342-0.951 2.054-0.531l2.31-0.961c0.279-0.477 0.895-0.633 1.369-0.354 0.16 0.125 0.559 1.020-0.154 2.23l-0.509 0.862 11.785 8.183 1.020 0.637c0.096 0.031 0.188 0.076 0.272 0.125 0.714 0.423 0.951 1.343 0.533 2.055z"></path>
</symbol>
<symbol id="icon-lab" viewBox="0 0 24 24">
<title>lab</title>
<path d="M20.997 16.742c0 0-6.986-7.011-6.999-7.742v-1.002h2.004v-6h-9.002v6h2l0.004 1.002c-0.013 0.731-6.999 7.742-6.999 7.742-1.317 1.478-1.041 2.686-0.807 3.232s1.129 2.026 1.777 2.026h17.052c0.648 0 1.542-1.479 1.776-2.025s0.511-1.755-0.806-3.233zM19.966 19.187c-0.088 0.204-0.312 0.568-0.5 0.813h-15.93c-0.188-0.245-0.412-0.609-0.499-0.813-0.144-0.334 0.192-0.804 0.428-1.076 7.513-7.542 7.524-8.218 7.539-9.11v-2.999l-2.007-0.002 0.003-1.998h4.998l0.003 1.998h-2.001l-0.001 3.035c0.015 0.857 0.026 1.534 7.539 9.076 0.235 0.272 0.57 0.742 0.428 1.076zM12 12h-1.002l-6 6v1.002h13.002v-1.002l-6-6zM10.002 15l0.996-1.998h1.002l1.002 1.998h-3z"></path>
</symbol>
<symbol id="icon-clipboard" viewBox="0 0 24 24">
<title>clipboard</title>
<path d="M2 0v24h20v-24h-20zM20 22h-16v-20h16v20zM19 4h-3v-1h-8v1h-3v17h14v-17zM9 4h6v1h-6v-1zM18 20h-12v-15h2v1h8v-1h2v15zM7 9h9v-2h-9v2zM7 11h9v-1h-9v1zM7 13h9v-1h-9v1zM7 15h9v-1h-9v1zM7 17h4v-1h-4v1z"></path>
</symbol>
<symbol id="icon-mug" viewBox="0 0 24 24">
<title>mug</title>
<path d="M15.992 8v9h1v-9h-1zM5.992 2v4h-4v14h4v1c0 0.55 0.492 1 1.041 1h13.959v-20h-15zM6.992 16h-1v-6h1v6zM18.992 18h-1v1h1v1h-11v-1h1v-1h-1v-9h-3v8h2v1h-3v-10h4v-1h11v11zM18.992 6h-11v-2h11v2zM16.992 19h-1v-1h1v1zM14.992 19h-1v-1h1v1zM12.992 19h-1v-1h1v1zM10.992 19h-1v-1h1v1zM13.992 8v9h1v-9h-1z"></path>
</symbol>
<symbol id="icon-bucket" viewBox="0 0 24 24">
<title>bucket</title>
<path d="M21 6.983v-2h-14.074l-1.156-3.279c-0.188-0.519-0.76-0.819-1.28-0.632s-0.791 0.803-0.603 1.323l0.914 2.589h-2.801v2h-2v9h3v8h17v-8h3v-9h-2zM3 14.983h-2v-7h1v3h1v4zM18 21.983h-13v-6h3.096c0.207 1 0.758 1 1.408 1h4c0.65 0 1.201 0 1.408-1h3.088v6zM9 15.502v-0.002c0-0.275 0.225-0.5 0.5-0.5h4.004c0.275 0 0.5 0.225 0.5 0.5v0.002c0 0.275-0.225 0.5-0.5 0.5h-4.004c-0.275 0-0.5-0.225-0.5-0.5zM18 14.983h-3.088c-0.207-1-0.758-1-1.408-1h-4c-0.65 0-1.201 0-1.408 1h-3.096v-5h13v5zM19 8.983h-15v-2h15v2zM22 14.983h-2v-4h1v-3h1v7z"></path>
</symbol>
<symbol id="icon-select" viewBox="0 0 24 24">
<title>select</title>
<path d="M19 0.999h-15v21h8v-7h7v-14zM11 19.999h-5v-5h5v5zM11 13.999h-5v-5h5v5zM11 7.999h-5v-5h5v5zM17 13.999h-5v-5h5v5zM17 7.999h-5v-5h5v5zM14.025 17.108l2 6.111 0.75-3.223h3.125l-5.875-2.888z"></path>
</symbol>
<symbol id="icon-graph" viewBox="0 0 24 24">
<title>graph</title>
<path d="M22.998 22.002h-1.998v-1.002h-1.002v1.002h-1.995v-1.002h-1.002v1.002h-1.998v-1.002h-1.002v1.002h-1.998v-1.002h-1.002v1.002h-1.998v-1.002h-1.002v1.002h-4.401l5.27-3.167 2.608-7.622 3.874 6.809 7.507-12.508-1.714-1.030-5.747 9.576-4.376-7.691-3.809 11.128-5.215 3.134v-20.631h-1.998v24h24v-3h-1.002zM22.998 0h1.002v1.002h-1.002zM19.998 0h1.002v1.002h-1.002zM17.001 0h1.002v1.002h-1.002zM14.001 0h1.002v1.002h-1.002zM11.001 0h1.002v1.002h-1.002zM8.001 0h1.002v1.002h-1.002zM5.001 0h1.002v1.002h-1.002zM2.001 0h1.002v1.002h-1.002zM22.998 3h1.002v1.002h-1.002zM19.998 3h1.002v1.002h-1.002zM17.001 3h1.002v1.002h-1.002zM14.001 3h1.002v1.002h-1.002zM11.001 3h1.002v1.002h-1.002zM8.001 3h1.002v1.002h-1.002zM5.001 3h1.002v1.002h-1.002zM2.001 3h1.002v1.002h-1.002zM22.998 5.997h1.002v1.002h-1.002zM17.001 5.997h1.002v1.002h-1.002zM14.001 5.997h1.002v1.002h-1.002zM8.001 5.997h1.002v1.002h-1.002zM5.001 5.997h1.002v1.002h-1.002zM2.001 5.997h1.002v1.002h-1.002zM22.998 8.997h1.002v1.002h-1.002zM14.001 8.997h1.002v1.002h-1.002zM8.001 8.997h1.002v1.002h-1.002zM5.001 8.997h1.002v1.002h-1.002zM2.001 8.997h1.002v1.002h-1.002zM22.998 11.999h1.002v1.002h-1.002zM19.998 11.999h1.002v1.002h-1.002zM5.001 11.999h1.002v1.002h-1.002zM2.001 11.999h1.002v1.002h-1.002zM22.998 14.999h1.002v1.002h-1.002zM19.998 14.999h1.002v1.002h-1.002zM11.001 14.999h1.002v1.002h-1.002zM5.001 14.999h1.002v1.002h-1.002zM2.001 14.999h1.002v1.002h-1.002zM22.998 17.996h1.002v1.002h-1.002zM19.998 17.996h1.002v1.002h-1.002zM17.001 17.996h1.002v1.002h-1.002zM11.001 17.996h1.002v1.002h-1.002zM2.001 17.996h1.002v1.002h-1.002z"></path>
</symbol>
<symbol id="icon-crop" viewBox="0 0 24 24">
<title>crop</title>
<path d="M19 13v-8h-8v-4h-6v4h-4v6h4v8h8v4h6v-4h4v-6h-4zM10 7h7v7h-2v-5h-5v-2zM13 11v2h-2v-2h2zM6 9h-3v-2h3v2zM17 21h-2v-3h2v3zM21 17h-14v-14h2v12h12v2z"></path>
</symbol>
<symbol id="icon-image" viewBox="0 0 24 24">
<title>image</title>
<path d="M0 3v18h24v-18h-24zM22 19h-20v-14h20v14zM14.5 12.444c1.103 0 2-0.896 2-2s-0.897-2-2-2-2 0.896-2 2 0.897 2 2 2zM13.5 9.444h2v2h-2v-2zM21 6h-18v12h18v-12zM4 12.965l6.049 1.728-6.049 1.068v-2.796zM20 17h-16v-0.225l16-2.823v3.048zM20 12.952l-8 1.492-8-2.479v-4.965h16v5.952z"></path>
</symbol>
<symbol id="icon-cube" viewBox="0 0 24 24">
<title>cube</title>
<path d="M12.111 0.5l-11.111 5.452v11.034l11 6.514 11-6.514v-11.034l-10.889-5.452zM11 20.584l-8-4.738v-6.675l8 3.953v7.46zM3.464 7.106l8.664-4.366 8.664 4.366-8.664 4.281-8.664-4.281zM21 15.846l-9 5.33v-7.722l9-4.283v6.675z"></path>
</symbol>
<symbol id="icon-bars" viewBox="0 0 24 24">
<title>bars</title>
<path d="M23 22v-1h-1v1h-1v-10h-5v10h-1v-20h-5v20h-1v-12h-1v-1h-1v1h-2v-1h-1v13h-2v-22h-2v24h24v-2h-1zM7 22h-1v-10h1v10zM13 22h-1v-18h1v18zM19 22h-1v-8h1v8zM4 0h1v1h-1zM7 0h1v1h-1zM10 0h1v1h-1zM13 0h1v1h-1zM16 0h1v1h-1zM19 0h1v1h-1zM22 0h1v1h-1zM22 3h1v1h-1zM19 3h1v1h-1zM16 3h1v1h-1zM16 6h1v1h-1zM19 6h1v1h-1zM22 6h1v1h-1zM22 9.002h1v1h-1zM19 9h1v1h-1zM16 9h1v1h-1zM22 12h1v1h-1zM22 15h1v1h-1zM22 18h1v1h-1zM7 3h1v1h-1zM7 6h1v1h-1zM4 6h1v1h-1zM4 3h1v1h-1z"></path>
</symbol>
<symbol id="icon-chart" viewBox="0 0 24 24">
<title>chart</title>
<path d="M3.916 3.647c-2.289 1.646-3.787 4.325-3.787 7.353 0 1.107 0.209 2.163 0.574 3.145l8.486-3.145-5.273-7.353zM1.568 10.748c-0.036-1.876 0.677-3.682 1.971-5.027l4.197 4.659-5.951 1.985c-0.134-0.526-0.207-1.068-0.217-1.617zM13.312 1.5c-2.528 0-4.97 0.911-6.878 2.566l0.025 0.028-0.399 0.349 6.374 7.311-9.274 2.946 0.136 0.427-0.010 0.003c0.028 0.093 0.065 0.181 0.097 0.271l0.080 0.253 0.009-0.003c1.521 4.117 5.404 6.85 9.84 6.85 5.79 0 10.5-4.711 10.5-10.5s-4.71-10.501-10.5-10.501zM21.104 8.614l-6.328 2.317 4.131-5.315c0.935 0.822 1.693 1.841 2.197 2.998zM8.117 5.281c1.485-1.147 3.308-1.781 5.195-1.781 1.784 0 3.439 0.555 4.808 1.498l-4.83 6.215-5.173-5.932zM5.398 15.039l7.275-2.312-1.343 7.515c-2.697-0.64-4.918-2.553-5.932-5.203zM13.312 20.5c-0.339 0-0.667-0.041-0.997-0.080l1.438-8.049 7.696-2.818c0.233 0.776 0.362 1.597 0.362 2.447 0.001 4.688-3.813 8.5-8.499 8.5z"></path>
</symbol>
<symbol id="icon-pencil" viewBox="0 0 24 24">
<title>pencil</title>
<path d="M12.91 0.604l-8.799 15.705 0.045 0.023 0.445 7.064 6.447-3.202 0.041 0.023 8.799-15.704-6.978-3.909zM6.055 20.9l-0.061-3.539 3.199 1.793-3.138 1.746zM10.322 17.496l-3.488-1.955 5.377-9.597 3.49 1.954-5.379 9.598zM12.699 5.071l0.979-1.745 3.488 1.955-0.977 1.744-3.49-1.954z"></path>
</symbol>
<symbol id="icon-measure" viewBox="0 0 24 24">
<title>measure</title>
<path d="M3 14h1v-1h-1v1zM4 4h-1v1h1v-1zM4 22h-1v1h-2v1h5v-1h-2v-1zM3 8h1v-1h-1v1zM3 11h1v-1h-1v1zM9 0v24h13v-24h-13zM17 22h-6v-20h6v20zM20 22h-2v-2h2v2zM20 19h-2v-2h2v2zM20 16h-2v-2h2v2zM20 13h-2v-2h2v2zM20 10h-2v-2h2v2zM20 7h-2v-2h2v2zM20 4h-2v-2h2v2zM1 1h2v1h1v-1h2v-1h-5v1zM3 20h1v-1h-1v1zM3 17h1v-1h-1v1z"></path>
</symbol>
<symbol id="icon-eyedropper" viewBox="0 0 24 24">
<title>eyedropper</title>
<path d="M15 4.444v-2c0-1.104-1.492-2.444-2.598-2.444h-0.802c-1.105 0-2.598 1.34-2.598 2.444v2c-1 0-2 0.9-2 2v1c0 0.734 0 1.373 1 1.721v10.835h1v4h5.998v-4h1v-10.835c1-0.348 1-0.986 1-1.721v-1c0-1.099-1-2-2-2zM13 22h-1.998v-3h1.998v3zM14 18h-3.998v-6h3.998v6zM14 11h-3.998v-2h3.998v2z"></path>
</symbol>
<symbol id="icon-google-plus" viewBox="0 0 32 32">
<title>google-plus</title>
<path d="M10.181 14.294v3.494h5.775c-0.231 1.5-1.744 4.394-5.775 4.394-3.475 0-6.313-2.881-6.313-6.431s2.838-6.431 6.313-6.431c1.981 0 3.3 0.844 4.056 1.569l2.762-2.662c-1.775-1.656-4.075-2.662-6.819-2.662-5.631 0.006-10.181 4.556-10.181 10.188s4.55 10.181 10.181 10.181c5.875 0 9.775-4.131 9.775-9.95 0-0.669-0.075-1.181-0.163-1.688h-9.613z"></path>
<path d="M32 14h-3v-3h-3v3h-3v3h3v3h3v-3h3z"></path>
</symbol>
<symbol id="icon-google-plus2" viewBox="0 0 32 32">
<title>google-plus2</title>
<path d="M29 0h-26c-1.65 0-3 1.35-3 3v26c0 1.65 1.35 3 3 3h26c1.65 0 3-1.35 3-3v-26c0-1.65-1.35-3-3-3zM12 24c-4.425 0-8-3.575-8-8s3.575-8 8-8c2.162 0 3.969 0.787 5.363 2.094l-2.175 2.088c-0.594-0.569-1.631-1.231-3.188-1.231-2.731 0-4.963 2.263-4.963 5.050s2.231 5.050 4.963 5.050c3.169 0 4.356-2.275 4.538-3.45h-4.537v-2.744h7.556c0.069 0.4 0.125 0.8 0.125 1.325 0 4.575-3.063 7.819-7.681 7.819zM28 16h-2v2h-2v-2h-2v-2h2v-2h2v2h2v2z"></path>
</symbol>
<symbol id="icon-google-plus3" viewBox="0 0 32 32">
<title>google-plus3</title>
<path d="M16 0c-8.838 0-16 7.162-16 16s7.162 16 16 16 16-7.163 16-16-7.163-16-16-16zM12 24c-4.425 0-8-3.575-8-8s3.575-8 8-8c2.162 0 3.969 0.787 5.363 2.094l-2.175 2.088c-0.594-0.569-1.631-1.231-3.188-1.231-2.731 0-4.963 2.263-4.963 5.050s2.231 5.050 4.963 5.050c3.169 0 4.356-2.275 4.538-3.45h-4.537v-2.744h7.556c0.069 0.4 0.125 0.8 0.125 1.325 0 4.575-3.063 7.819-7.681 7.819zM26 16v2h-2v-2h-2v-2h2v-2h2v2h2v2h-2z"></path>
</symbol>
<symbol id="icon-facebook" viewBox="0 0 32 32">
<title>facebook</title>
<path d="M19 6h5v-6h-5c-3.86 0-7 3.14-7 7v3h-4v6h4v16h6v-16h5l1-6h-6v-3c0-0.542 0.458-1 1-1z"></path>
</symbol>
<symbol id="icon-facebook2" viewBox="0 0 32 32">
<title>facebook2</title>
<path d="M29 0h-26c-1.65 0-3 1.35-3 3v26c0 1.65 1.35 3 3 3h13v-14h-4v-4h4v-2c0-3.306 2.694-6 6-6h4v4h-4c-1.1 0-2 0.9-2 2v2h6l-1 4h-5v14h9c1.65 0 3-1.35 3-3v-26c0-1.65-1.35-3-3-3z"></path>
</symbol>
<symbol id="icon-instagram" viewBox="0 0 32 32">
<title>instagram</title>
<path d="M16 2.881c4.275 0 4.781 0.019 6.462 0.094 1.563 0.069 2.406 0.331 2.969 0.55 0.744 0.288 1.281 0.638 1.837 1.194 0.563 0.563 0.906 1.094 1.2 1.838 0.219 0.563 0.481 1.412 0.55 2.969 0.075 1.688 0.094 2.194 0.094 6.463s-0.019 4.781-0.094 6.463c-0.069 1.563-0.331 2.406-0.55 2.969-0.288 0.744-0.637 1.281-1.194 1.837-0.563 0.563-1.094 0.906-1.837 1.2-0.563 0.219-1.413 0.481-2.969 0.55-1.688 0.075-2.194 0.094-6.463 0.094s-4.781-0.019-6.463-0.094c-1.563-0.069-2.406-0.331-2.969-0.55-0.744-0.288-1.281-0.637-1.838-1.194-0.563-0.563-0.906-1.094-1.2-1.837-0.219-0.563-0.481-1.413-0.55-2.969-0.075-1.688-0.094-2.194-0.094-6.463s0.019-4.781 0.094-6.463c0.069-1.563 0.331-2.406 0.55-2.969 0.288-0.744 0.638-1.281 1.194-1.838 0.563-0.563 1.094-0.906 1.838-1.2 0.563-0.219 1.412-0.481 2.969-0.55 1.681-0.075 2.188-0.094 6.463-0.094zM16 0c-4.344 0-4.887 0.019-6.594 0.094-1.7 0.075-2.869 0.35-3.881 0.744-1.056 0.412-1.95 0.956-2.837 1.85-0.894 0.888-1.438 1.781-1.85 2.831-0.394 1.019-0.669 2.181-0.744 3.881-0.075 1.713-0.094 2.256-0.094 6.6s0.019 4.887 0.094 6.594c0.075 1.7 0.35 2.869 0.744 3.881 0.413 1.056 0.956 1.95 1.85 2.837 0.887 0.887 1.781 1.438 2.831 1.844 1.019 0.394 2.181 0.669 3.881 0.744 1.706 0.075 2.25 0.094 6.594 0.094s4.888-0.019 6.594-0.094c1.7-0.075 2.869-0.35 3.881-0.744 1.050-0.406 1.944-0.956 2.831-1.844s1.438-1.781 1.844-2.831c0.394-1.019 0.669-2.181 0.744-3.881 0.075-1.706 0.094-2.25 0.094-6.594s-0.019-4.887-0.094-6.594c-0.075-1.7-0.35-2.869-0.744-3.881-0.394-1.063-0.938-1.956-1.831-2.844-0.887-0.887-1.781-1.438-2.831-1.844-1.019-0.394-2.181-0.669-3.881-0.744-1.712-0.081-2.256-0.1-6.6-0.1v0z"></path>
<path d="M16 7.781c-4.537 0-8.219 3.681-8.219 8.219s3.681 8.219 8.219 8.219 8.219-3.681 8.219-8.219c0-4.537-3.681-8.219-8.219-8.219zM16 21.331c-2.944 0-5.331-2.387-5.331-5.331s2.387-5.331 5.331-5.331c2.944 0 5.331 2.387 5.331 5.331s-2.387 5.331-5.331 5.331z"></path>
<path d="M26.462 7.456c0 1.060-0.859 1.919-1.919 1.919s-1.919-0.859-1.919-1.919c0-1.060 0.859-1.919 1.919-1.919s1.919 0.859 1.919 1.919z"></path>
</symbol>
<symbol id="icon-twitter" viewBox="0 0 32 32">
<title>twitter</title>
<path d="M32 7.075c-1.175 0.525-2.444 0.875-3.769 1.031 1.356-0.813 2.394-2.1 2.887-3.631-1.269 0.75-2.675 1.3-4.169 1.594-1.2-1.275-2.906-2.069-4.794-2.069-3.625 0-6.563 2.938-6.563 6.563 0 0.512 0.056 1.012 0.169 1.494-5.456-0.275-10.294-2.888-13.531-6.862-0.563 0.969-0.887 2.1-0.887 3.3 0 2.275 1.156 4.287 2.919 5.463-1.075-0.031-2.087-0.331-2.975-0.819 0 0.025 0 0.056 0 0.081 0 3.181 2.263 5.838 5.269 6.437-0.55 0.15-1.131 0.231-1.731 0.231-0.425 0-0.831-0.044-1.237-0.119 0.838 2.606 3.263 4.506 6.131 4.563-2.25 1.762-5.075 2.813-8.156 2.813-0.531 0-1.050-0.031-1.569-0.094 2.913 1.869 6.362 2.95 10.069 2.95 12.075 0 18.681-10.006 18.681-18.681 0-0.287-0.006-0.569-0.019-0.85 1.281-0.919 2.394-2.075 3.275-3.394z"></path>
</symbol>
<symbol id="icon-github" viewBox="0 0 32 32">
<title>github</title>
<path d="M16 0.395c-8.836 0-16 7.163-16 16 0 7.069 4.585 13.067 10.942 15.182 0.8 0.148 1.094-0.347 1.094-0.77 0-0.381-0.015-1.642-0.022-2.979-4.452 0.968-5.391-1.888-5.391-1.888-0.728-1.849-1.776-2.341-1.776-2.341-1.452-0.993 0.11-0.973 0.11-0.973 1.606 0.113 2.452 1.649 2.452 1.649 1.427 2.446 3.743 1.739 4.656 1.33 0.143-1.034 0.558-1.74 1.016-2.14-3.554-0.404-7.29-1.777-7.29-7.907 0-1.747 0.625-3.174 1.649-4.295-0.166-0.403-0.714-2.030 0.155-4.234 0 0 1.344-0.43 4.401 1.64 1.276-0.355 2.645-0.532 4.005-0.539 1.359 0.006 2.729 0.184 4.008 0.539 3.054-2.070 4.395-1.64 4.395-1.64 0.871 2.204 0.323 3.831 0.157 4.234 1.026 1.12 1.647 2.548 1.647 4.295 0 6.145-3.743 7.498-7.306 7.895 0.574 0.497 1.085 1.47 1.085 2.963 0 2.141-0.019 3.864-0.019 4.391 0 0.426 0.288 0.925 1.099 0.768 6.354-2.118 10.933-8.113 10.933-15.18 0-8.837-7.164-16-16-16z"></path>
</symbol>
<symbol id="icon-linkedin" viewBox="0 0 32 32">
<title>linkedin</title>
<path d="M29 0h-26c-1.65 0-3 1.35-3 3v26c0 1.65 1.35 3 3 3h26c1.65 0 3-1.35 3-3v-26c0-1.65-1.35-3-3-3zM12 26h-4v-14h4v14zM10 10c-1.106 0-2-0.894-2-2s0.894-2 2-2c1.106 0 2 0.894 2 2s-0.894 2-2 2zM26 26h-4v-8c0-1.106-0.894-2-2-2s-2 0.894-2 2v8h-4v-14h4v2.481c0.825-1.131 2.087-2.481 3.5-2.481 2.488 0 4.5 2.238 4.5 5v9z"></path>
</symbol>
<symbol id="icon-linkedin2" viewBox="0 0 32 32">
<title>linkedin2</title>
<path d="M12 12h5.535v2.837h0.079c0.77-1.381 2.655-2.837 5.464-2.837 5.842 0 6.922 3.637 6.922 8.367v9.633h-5.769v-8.54c0-2.037-0.042-4.657-3.001-4.657-3.005 0-3.463 2.218-3.463 4.509v8.688h-5.767v-18z"></path>
<path d="M2 12h6v18h-6v-18z"></path>
<path d="M8 7c0 1.657-1.343 3-3 3s-3-1.343-3-3c0-1.657 1.343-3 3-3s3 1.343 3 3z"></path>
</symbol>
</defs>
</svg>
