<svg style="position: absolute; width: 0; height: 0;" width="0" height="0" version="1.1" xmlns="http://www.w3.org/2000/svg" xmlns:xlink="http://www.w3.org/1999/xlink">
<defs>
<symbol id="icon-eye" viewBox="0 0 24 24">
<title>eye</title>
<path class="path1" d="M12 3q1.633 0 3.176 0.496t2.707 1.289 2.191 1.754 1.727 1.922 1.211 1.754 0.754 1.285l0.234 0.5q-0.055 0.117-0.148 0.316t-0.441 0.813-0.742 1.211-1.039 1.406-1.332 1.508-1.629 1.41-1.93 1.207-2.223 0.813-2.516 0.316q-1.633 0-3.176-0.496t-2.707-1.285-2.191-1.742-1.727-1.91-1.211-1.746-0.754-1.289l-0.234-0.492q0.055-0.117 0.148-0.316t0.441-0.816 0.742-1.215 1.039-1.414 1.332-1.516 1.629-1.414 1.93-1.215 2.223-0.816 2.516-0.316zM12 5q-1.094 0-2.148 0.289t-1.902 0.746-1.656 1.105-1.398 1.277-1.145 1.352-0.883 1.238-0.617 1.031q0.289 0.508 0.617 1.020t0.883 1.227 1.145 1.336 1.398 1.262 1.656 1.094 1.902 0.738 2.148 0.285 2.148-0.289 1.902-0.742 1.656-1.098 1.398-1.27 1.145-1.344 0.883-1.234 0.617-1.023q-0.289-0.508-0.617-1.023t-0.883-1.234-1.145-1.344-1.398-1.27-1.656-1.098-1.902-0.742-2.148-0.289zM12 8q1.656 0 2.828 1.172t1.172 2.828-1.172 2.828-2.828 1.172-2.828-1.172-1.172-2.828 1.172-2.828 2.828-1.172zM12 10q-0.828 0-1.414 0.586t-0.586 1.414 0.586 1.414 1.414 0.586 1.414-0.586 0.586-1.414-0.586-1.414-1.414-0.586z"></path>
</symbol>
<symbol id="icon-paper-clip" viewBox="0 0 24 24">
<title>paper-clip</title>
<path class="path1" d="M15.797 0q0.977 0 1.875 0.367 0.938 0.375 1.656 1.094 0.727 0.734 1.094 1.648 0.359 0.883 0.359 1.875t-0.359 1.875q-0.367 0.914-1.094 1.648l-9.203 9.203q-0.422 0.422-1 0.664-0.563 0.219-1.125 0.219t-1.125-0.219q-0.578-0.242-1-0.664-0.438-0.438-0.656-0.992-0.219-0.531-0.219-1.125 0-0.602 0.219-1.133 0.219-0.547 0.656-0.992l8.492-8.484q0.297-0.297 0.711-0.297 0.406 0 0.703 0.297t0.297 0.703q0 0.414-0.297 0.711l-8.492 8.484q-0.289 0.289-0.289 0.711 0 0.414 0.289 0.703 0.312 0.297 0.711 0.297t0.711-0.297l9.203-9.203q0.867-0.867 0.867-2.109t-0.867-2.109q-0.891-0.875-2.117-0.875-1.234 0-2.109 0.875l-9.227 9.18q-0.719 0.719-1.094 1.656-0.367 0.898-0.367 1.883 0 0.969 0.367 1.883 0.375 0.93 1.094 1.648 0.742 0.734 1.656 1.102t1.883 0.367 1.883-0.367 1.656-1.102l9.187-9.188q0.297-0.297 0.711-0.297 0.406 0 0.703 0.297t0.297 0.703q0 0.414-0.297 0.711l-9.188 9.188q-1.008 1.008-2.32 1.539-1.25 0.516-2.633 0.516-1.375 0-2.633-0.516-1.313-0.531-2.32-1.539-1-1-1.531-2.313-0.516-1.266-0.516-2.633 0-1.375 0.516-2.633 0.523-1.297 1.531-2.32h0.008l9.219-9.18q0.719-0.719 1.648-1.094 0.914-0.367 1.875-0.367z"></path>
</symbol>
<symbol id="icon-mail" viewBox="0 0 24 24">
<title>mail</title>
<path class="path1" d="M4 3h16q1.242 0 2.121 0.879t0.879 2.121v12q0 1.242-0.879 2.121t-2.121 0.879h-16q-1.242 0-2.121-0.879t-0.879-2.121v-12q0-1.242 0.879-2.121t2.121-0.879zM21 18v-10.922l-8.375 6.703q-0.266 0.219-0.625 0.219t-0.625-0.219l-8.375-6.703v10.922q0 0.414 0.293 0.707t0.707 0.293h16q0.414 0 0.707-0.293t0.293-0.707zM20 5h-16q-0.148 0-0.328 0.055l8.328 6.664 8.328-6.664q-0.18-0.055-0.328-0.055z"></path>
</symbol>
<symbol id="icon-toggle" viewBox="0 0 24 24">
<title>toggle</title>
<path class="path1" d="M8 4h8q1.625 0 3.105 0.633t2.555 1.707 1.707 2.555 0.633 3.105-0.633 3.105-1.707 2.555-2.555 1.707-3.105 0.633h-8q-1.625 0-3.105-0.633t-2.555-1.707-1.707-2.555-0.633-3.105 0.633-3.105 1.707-2.555 2.555-1.707 3.105-0.633zM8 8q1.656 0 2.828 1.172t1.172 2.828-1.172 2.828-2.828 1.172-2.828-1.172-1.172-2.828 1.172-2.828 2.828-1.172zM8 10q-0.828 0-1.414 0.586t-0.586 1.414 0.586 1.414 1.414 0.586 1.414-0.586 0.586-1.414-0.586-1.414-1.414-0.586zM16 6h-8q-1.633 0-3.012 0.805t-2.184 2.184-0.805 3.012 0.805 3.012 2.184 2.184 3.012 0.805h8q1.633 0 3.012-0.805t2.184-2.184 0.805-3.012-0.805-3.012-2.184-2.184-3.012-0.805z"></path>
</symbol>
<symbol id="icon-layout" viewBox="0 0 24 24">
<title>layout</title>
<path class="path1" d="M4 1h16q1.242 0 2.121 0.879t0.879 2.121v16q0 1.242-0.879 2.121t-2.121 0.879h-16q-1.242 0-2.121-0.879t-0.879-2.121v-16q0-1.242 0.879-2.121t2.121-0.879zM8 21v-12h-5v11q0 0.414 0.293 0.707t0.707 0.293h4zM21 20v-11h-11v12h10q0.414 0 0.707-0.293t0.293-0.707zM20 3h-16q-0.414 0-0.707 0.293t-0.293 0.707v3h18v-3q0-0.414-0.293-0.707t-0.707-0.293z"></path>
</symbol>
<symbol id="icon-link" viewBox="0 0 24 24">
<title>link</title>
<path class="path1" d="M17 1q1.18 0 2.277 0.445t1.965 1.312 1.313 1.965 0.445 2.277q0 1.172-0.449 2.277t-1.309 1.965l-3 3q-0.086 0.086-0.258 0.242-0.836 0.742-1.867 1.129t-2.117 0.387q-1.367 0-2.586-0.586-0.914-0.43-1.656-1.172t-1.172-1.656q0.586-0.586 1.414-0.586 0.289 0 0.586 0.086 0.508 0.82 1.328 1.328 0.961 0.586 2.086 0.586 0.781 0 1.516-0.297t1.313-0.875l3-3q0.578-0.578 0.875-1.313t0.297-1.516-0.297-1.516-0.875-1.313-1.313-0.875-1.516-0.297-1.516 0.297-1.313 0.875l-2.102 2.102q-1-0.273-2.070-0.273-0.172 0-0.484 0.016 0.156-0.172 0.242-0.258l3-3q0.859-0.859 1.965-1.309t2.277-0.449zM10 8q1.367 0 2.586 0.586 0.914 0.43 1.656 1.172t1.172 1.656q-0.586 0.586-1.414 0.586-0.289 0-0.586-0.086-0.508-0.82-1.328-1.328-0.961-0.586-2.086-0.586-0.781 0-1.516 0.297t-1.313 0.875l-3 3q-0.578 0.578-0.875 1.313t-0.297 1.516 0.297 1.516 0.875 1.313 1.313 0.875 1.516 0.297 1.516-0.297 1.313-0.875l2.102-2.102q1 0.273 2.070 0.273 0.172 0 0.484-0.016-0.156 0.172-0.242 0.258l-3 3q-0.867 0.867-1.965 1.313t-2.277 0.445q-1.172 0-2.277-0.449t-1.965-1.309q-0.867-0.867-1.313-1.965t-0.445-2.277 0.445-2.277 1.313-1.965l3-3q0.086-0.086 0.258-0.242 0.836-0.742 1.867-1.129t2.117-0.387z"></path>
</symbol>
<symbol id="icon-bell" viewBox="0 0 24 24">
<title>bell</title>
<path class="path1" d="M12 1q1.289 0 2.438 0.418t2.039 1.152 1.602 1.746 1.184 2.187 0.738 2.496q0.789 3.961 1.676 6.262t2.324 3.738h-9.172q0.172 0.492 0.172 1 0 1.242-0.879 2.121t-2.121 0.879-2.121-0.879-0.879-2.121q0-0.508 0.172-1h-9.172q1.437-1.437 2.324-3.738t1.676-6.262q0.266-1.32 0.738-2.496t1.184-2.187 1.602-1.746 2.039-1.152 2.438-0.418zM12 19q-0.414 0-0.707 0.293t-0.293 0.707 0.293 0.707 0.707 0.293 0.707-0.293 0.293-0.707-0.293-0.707-0.707-0.293zM12 3q-0.906 0-1.707 0.281t-1.371 0.719-1.059 1.051-0.793 1.191-0.551 1.234-0.363 1.082-0.195 0.832q-1 5.039-2.203 7.609h16.484q-1.203-2.57-2.203-7.609-0.078-0.406-0.195-0.832t-0.363-1.082-0.551-1.234-0.793-1.191-1.059-1.051-1.371-0.719-1.707-0.281z"></path>
</symbol>
<symbol id="icon-lock" viewBox="0 0 24 24">
<title>lock</title>
<path class="path1" d="M12 1q1.633 0 3.012 0.805t2.184 2.184 0.805 3.012v4h2q1.242 0 2.121 0.879t0.879 2.121v6q0 1.242-0.879 2.121t-2.121 0.879h-16q-1.242 0-2.121-0.879t-0.879-2.121v-6q0-1.242 0.879-2.121t2.121-0.879h2v-4q0-1.633 0.805-3.012t2.184-2.184 3.012-0.805zM20 13h-16q-0.414 0-0.707 0.293t-0.293 0.707v6q0 0.414 0.293 0.707t0.707 0.293h16q0.414 0 0.707-0.293t0.293-0.707v-6q0-0.414-0.293-0.707t-0.707-0.293zM12 3q-1.656 0-2.828 1.172t-1.172 2.828v4h8v-4q0-1.656-1.172-2.828t-2.828-1.172z"></path>
</symbol>
<symbol id="icon-unlock" viewBox="0 0 24 24">
<title>unlock</title>
<path class="path1" d="M12 1q1.633 0 3.012 0.805t2.184 2.184 0.805 3.012v1q0 0.414-0.293 0.707t-0.707 0.293-0.707-0.293-0.293-0.707v-1q0-1.656-1.172-2.828t-2.828-1.172-2.828 1.172-1.172 2.828v4h12q1.242 0 2.121 0.879t0.879 2.121v6q0 1.242-0.879 2.121t-2.121 0.879h-16q-1.242 0-2.121-0.879t-0.879-2.121v-6q0-1.242 0.879-2.121t2.121-0.879h2v-4q0-1.633 0.805-3.012t2.184-2.184 3.012-0.805zM20 13h-16q-0.414 0-0.707 0.293t-0.293 0.707v6q0 0.414 0.293 0.707t0.707 0.293h16q0.414 0 0.707-0.293t0.293-0.707v-6q0-0.414-0.293-0.707t-0.707-0.293z"></path>
</symbol>
<symbol id="icon-ribbon" viewBox="0 0 24 24">
<title>ribbon</title>
<path class="path1" d="M7 1h10q1.242 0 2.121 0.879t0.879 2.121v19l-8-6-8 6v-19q0-1.242 0.879-2.121t2.121-0.879zM17 3h-10q-0.414 0-0.707 0.293t-0.293 0.707v15l6-4.5 6 4.5v-15q0-0.414-0.293-0.707t-0.707-0.293z"></path>
</symbol>
<symbol id="icon-image" viewBox="0 0 24 24">
<title>image</title>
<path class="path1" d="M4 1h16q1.242 0 2.121 0.879t0.879 2.121v16q0 1.242-0.879 2.121t-2.121 0.879h-16q-1.242 0-2.121-0.879t-0.879-2.121v-16q0-1.242 0.879-2.121t2.121-0.879zM21 17.414l-5-5-8.586 8.586h12.586q0.414 0 0.707-0.293t0.293-0.707v-2.586zM20 3h-16q-0.414 0-0.707 0.293t-0.293 0.707v16q0 0.414 0.293 0.707t0.707 0.293h0.586l11.414-11.414 5 5v-10.586q0-0.414-0.293-0.707t-0.707-0.293zM8 5q1.242 0 2.121 0.879t0.879 2.121-0.879 2.121-2.121 0.879-2.121-0.879-0.879-2.121 0.879-2.121 2.121-0.879zM8 7q-0.414 0-0.707 0.293t-0.293 0.707 0.293 0.707 0.707 0.293 0.707-0.293 0.293-0.707-0.293-0.707-0.707-0.293z"></path>
</symbol>
<symbol id="icon-signal" viewBox="0 0 24 24">
<title>signal</title>
<path class="path1" d="M12 4q3.070 0 5.977 1.078t5.273 3.172q0.336 0.289 0.336 0.75 0 0.391-0.25 0.664l-0.047 0.047q-0.289 0.289-0.703 0.289-0.391 0-0.664-0.25-2.086-1.844-4.652-2.797t-5.27-0.953-5.27 0.953-4.652 2.797q-0.273 0.25-0.664 0.25-0.461 0-0.75-0.336-0.25-0.273-0.25-0.664 0-0.461 0.336-0.75 2.375-2.094 5.277-3.172t5.973-1.078zM12.008 16q1.359 0 2.523 0.687 0.234 0.141 0.367 0.371t0.133 0.496-0.141 0.5q-0.070 0.117-0.156 0.203-0.289 0.289-0.711 0.289-0.281 0-0.5-0.133-0.711-0.414-1.516-0.414-0.813 0-1.523 0.414-0.25 0.141-0.508 0.141-0.57 0-0.867-0.492-0.141-0.234-0.141-0.5 0-0.57 0.492-0.867 1.18-0.695 2.547-0.695zM12 10.008q1.891 0 3.68 0.625t3.281 1.852q0.367 0.297 0.367 0.773 0 0.359-0.227 0.633-0.047 0.063-0.063 0.078-0.289 0.289-0.703 0.289-0.367 0-0.641-0.227-1.219-1-2.688-1.516t-3.008-0.516-3.008 0.516-2.688 1.516q-0.273 0.227-0.633 0.227-0.477 0-0.773-0.367-0.227-0.273-0.227-0.633 0-0.477 0.367-0.773 1.484-1.227 3.281-1.852t3.68-0.625z"></path>
</symbol>
<symbol id="icon-target" viewBox="0 0 24 24">
<title>target</title>
<path class="path1" d="M12 1q2.242 0 4.277 0.871t3.508 2.344 2.344 3.508 0.871 4.277-0.871 4.277-2.344 3.508-3.508 2.344-4.277 0.871-4.277-0.871-3.508-2.344-2.344-3.508-0.871-4.277 0.871-4.277 2.344-3.508 3.508-2.344 4.277-0.871zM12 3q-1.828 0-3.496 0.715t-2.871 1.918-1.918 2.871-0.715 3.496 0.715 3.496 1.918 2.871 2.871 1.918 3.496 0.715 3.496-0.715 2.871-1.918 1.918-2.871 0.715-3.496-0.715-3.496-1.918-2.871-2.871-1.918-3.496-0.715zM12 5q1.422 0 2.719 0.555t2.234 1.492 1.492 2.234 0.555 2.719-0.555 2.719-1.492 2.234-2.234 1.492-2.719 0.555-2.719-0.555-2.234-1.492-1.492-2.234-0.555-2.719 0.555-2.719 1.492-2.234 2.234-1.492 2.719-0.555zM12 7q-1.016 0-1.941 0.398t-1.594 1.066-1.066 1.594-0.398 1.941 0.398 1.941 1.066 1.594 1.594 1.066 1.941 0.398 1.941-0.398 1.594-1.066 1.066-1.594 0.398-1.941-0.398-1.941-1.066-1.594-1.594-1.066-1.941-0.398zM12 9q1.242 0 2.121 0.879t0.879 2.121-0.879 2.121-2.121 0.879-2.121-0.879-0.879-2.121 0.879-2.121 2.121-0.879zM12 11q-0.414 0-0.707 0.293t-0.293 0.707 0.293 0.707 0.707 0.293 0.707-0.293 0.293-0.707-0.293-0.707-0.707-0.293z"></path>
</symbol>
<symbol id="icon-clipboard" viewBox="0 0 24 24">
<title>clipboard</title>
<path class="path1" d="M10 1h4q0.969 0 1.742 0.559t1.086 1.441h1.172q1.242 0 2.121 0.879t0.879 2.121v14q0 1.242-0.879 2.121t-2.121 0.879h-12q-1.242 0-2.121-0.879t-0.879-2.121v-14q0-1.242 0.879-2.121t2.121-0.879h1.172q0.312-0.883 1.086-1.441t1.742-0.559zM18 5h-1.172q-0.312 0.883-1.086 1.441t-1.742 0.559h-4q-0.969 0-1.742-0.559t-1.086-1.441h-1.172q-0.414 0-0.707 0.293t-0.293 0.707v14q0 0.414 0.293 0.707t0.707 0.293h12q0.414 0 0.707-0.293t0.293-0.707v-14q0-0.414-0.293-0.707t-0.707-0.293zM14 3h-4q-0.414 0-0.707 0.293t-0.293 0.707 0.293 0.707 0.707 0.293h4q0.414 0 0.707-0.293t0.293-0.707-0.293-0.707-0.707-0.293z"></path>
</symbol>
<symbol id="icon-clock" viewBox="0 0 24 24">
<title>clock</title>
<path class="path1" d="M12 1q2.242 0 4.277 0.871t3.508 2.344 2.344 3.508 0.871 4.277-0.871 4.277-2.344 3.508-3.508 2.344-4.277 0.871-4.277-0.871-3.508-2.344-2.344-3.508-0.871-4.277 0.871-4.277 2.344-3.508 3.508-2.344 4.277-0.871zM12 3q-1.828 0-3.496 0.715t-2.871 1.918-1.918 2.871-0.715 3.496 0.715 3.496 1.918 2.871 2.871 1.918 3.496 0.715 3.496-0.715 2.871-1.918 1.918-2.871 0.715-3.496-0.715-3.496-1.918-2.871-2.871-1.918-3.496-0.715zM12 5q0.414 0 0.707 0.293t0.293 0.707v5.586l2.711 2.703q0.289 0.289 0.289 0.711t-0.289 0.711-0.711 0.289-0.711-0.289l-3-3q-0.289-0.289-0.289-0.711v-6q0-0.414 0.293-0.707t0.707-0.293z"></path>
</symbol>
<symbol id="icon-watch" viewBox="0 0 24 24">
<title>watch</title>
<path class="path1" d="M9 0h6q1.242 0 2.121 0.879t0.879 2.121v2.297q1.406 1.25 2.203 2.996t0.797 3.707-0.797 3.703-2.203 3v2.297q0 1.242-0.879 2.121t-2.121 0.879h-6q-1.242 0-2.121-0.879t-0.879-2.121v-2.297q-1.406-1.258-2.203-3t-0.797-3.703 0.797-3.707 2.203-2.996v-2.297q0-1.242 0.879-2.121t2.121-0.879zM16 21v-0.938q-1.875 0.938-4 0.938t-4-0.938v0.938q0 0.414 0.293 0.707t0.707 0.293h6q0.414 0 0.707-0.293t0.293-0.707zM12 5q-1.422 0-2.719 0.555t-2.234 1.492-1.492 2.234-0.555 2.719 0.555 2.719 1.492 2.234 2.234 1.492 2.719 0.555 2.719-0.555 2.234-1.492 1.492-2.234 0.555-2.719-0.555-2.719-1.492-2.234-2.234-1.492-2.719-0.555zM12 7q0.414 0 0.707 0.293t0.293 0.707v3.586l1.711 1.703q0.289 0.289 0.289 0.711t-0.289 0.711-0.711 0.289-0.711-0.289l-2-2q-0.289-0.289-0.289-0.711v-4q0-0.414 0.293-0.707t0.707-0.293zM15 2h-6q-0.414 0-0.707 0.293t-0.293 0.707v0.938q1.875-0.938 4-0.938t4 0.938v-0.938q0-0.414-0.293-0.707t-0.707-0.293z"></path>
</symbol>
<symbol id="icon-air-play" viewBox="0 0 24 24">
<title>air-play</title>
<path class="path1" d="M4 2h16q1.242 0 2.121 0.879t0.879 2.121v10q0 1.242-0.879 2.121t-2.121 0.879h-2.5l-1.5-2h4q0.414 0 0.707-0.293t0.293-0.707v-10q0-0.414-0.293-0.707t-0.707-0.293h-16q-0.414 0-0.707 0.293t-0.293 0.707v10q0 0.414 0.293 0.707t0.707 0.293h4l-1.5 2h-2.5q-1.242 0-2.121-0.879t-0.879-2.121v-10q0-1.242 0.879-2.121t2.121-0.879zM14 20l-2-2.664-2 2.664h4zM6 22l6-8 6 8h-12z"></path>
</symbol>
<symbol id="icon-camera" viewBox="0 0 24 24">
<title>camera</title>
<path class="path1" d="M8 2h8l2 3h3q1.242 0 2.121 0.895t0.879 2.137v10.984q0 1.242-0.879 2.113t-2.121 0.871h-18q-1.242 0-2.121-0.879t-0.879-2.121v-10.984q0-1.242 0.879-2.129t2.121-0.887h3zM12 8q1.016 0 1.941 0.398t1.594 1.066 1.066 1.594 0.398 1.941-0.398 1.941-1.066 1.594-1.594 1.066-1.941 0.398-1.941-0.398-1.594-1.066-1.066-1.594-0.398-1.941 0.398-1.941 1.066-1.594 1.594-1.066 1.941-0.398zM12 10q-1.242 0-2.121 0.879t-0.879 2.121 0.879 2.121 2.121 0.879 2.121-0.879 0.879-2.121-0.879-2.121-2.121-0.879zM16.93 7l-1.961-3h-5.898l-2 3h-4.070q-0.414 0-0.707 0.297t-0.293 0.719v10.984q0 0.414 0.293 0.707t0.707 0.293h18q0.422 0 0.711-0.285t0.289-0.699v-10.984q0-0.422-0.297-0.727t-0.703-0.305h-4.070z"></path>
</symbol>
<symbol id="icon-video" viewBox="0 0 24 24">
<title>video</title>
<path class="path1" d="M3 5h11q1.242 0 2.121 0.879t0.879 2.121v1.82l7-3.82v12l-7-3.82v1.82q0 1.242-0.879 2.121t-2.121 0.879h-11q-1.242 0-2.121-0.879t-0.879-2.121v-8q0-1.242 0.879-2.121t2.121-0.879zM14 7h-11q-0.414 0-0.707 0.293t-0.293 0.707v8q0 0.414 0.293 0.707t0.707 0.293h11q0.414 0 0.707-0.293t0.293-0.707v-8q0-0.414-0.293-0.707t-0.707-0.293zM22 14.633v-5.266l-4.82 2.633z"></path>
</symbol>
<symbol id="icon-disc" viewBox="0 0 24 24">
<title>disc</title>
<path class="path1" d="M12 1q2.242 0 4.277 0.871t3.508 2.344 2.344 3.508 0.871 4.277-0.871 4.277-2.344 3.508-3.508 2.344-4.277 0.871-4.277-0.871-3.508-2.344-2.344-3.508-0.871-4.277 0.871-4.277 2.344-3.508 3.508-2.344 4.277-0.871zM12 3q-1.828 0-3.496 0.715t-2.871 1.918-1.918 2.871-0.715 3.496 0.715 3.496 1.918 2.871 2.871 1.918 3.496 0.715 3.496-0.715 2.871-1.918 1.918-2.871 0.715-3.496-0.715-3.496-1.918-2.871-2.871-1.918-3.496-0.715zM12 8q1.656 0 2.828 1.172t1.172 2.828-1.172 2.828-2.828 1.172-2.828-1.172-1.172-2.828 1.172-2.828 2.828-1.172zM12 10q-0.828 0-1.414 0.586t-0.586 1.414 0.586 1.414 1.414 0.586 1.414-0.586 0.586-1.414-0.586-1.414-1.414-0.586z"></path>
</symbol>
<symbol id="icon-printer" viewBox="0 0 24 24">
<title>printer</title>
<path class="path1" d="M9 2h6q1.242 0 2.121 0.879t0.879 2.121v5h2q1.242 0 2.121 0.879t0.879 2.121v4q0 1.242-0.879 2.121t-2.121 0.879h-2.172q-0.312 0.883-1.086 1.441t-1.742 0.559h-6q-0.969 0-1.742-0.559t-1.086-1.441h-2.172q-1.242 0-2.121-0.879t-0.879-2.121v-4q0-1.242 0.879-2.121t2.121-0.879h2v-5q0-1.242 0.879-2.121t2.121-0.879zM15 18h-6q-0.414 0-0.707 0.293t-0.293 0.707 0.293 0.707 0.707 0.293h6q0.414 0 0.707-0.293t0.293-0.707-0.293-0.707-0.707-0.293zM20 12h-16q-0.414 0-0.707 0.293t-0.293 0.707v4q0 0.414 0.293 0.707t0.707 0.293h2.172q0.312-0.883 1.086-1.441t1.742-0.559h6q0.969 0 1.742 0.559t1.086 1.441h2.172q0.414 0 0.707-0.293t0.293-0.707v-4q0-0.414-0.293-0.707t-0.707-0.293zM15 4h-6q-0.414 0-0.707 0.293t-0.293 0.707v5h8v-5q0-0.414-0.293-0.707t-0.707-0.293z"></path>
</symbol>
<symbol id="icon-monitor" viewBox="0 0 24 24">
<title>monitor</title>
<path class="path1" d="M4 2h16q1.242 0 2.121 0.879t0.879 2.121v10q0 1.242-0.879 2.121t-2.121 0.879h-7v2h3q0.414 0 0.707 0.293t0.293 0.707-0.293 0.707-0.707 0.293h-8q-0.414 0-0.707-0.293t-0.293-0.707 0.293-0.707 0.707-0.293h3v-2h-7q-1.242 0-2.121-0.879t-0.879-2.121v-10q0-1.242 0.879-2.121t2.121-0.879zM20 4h-16q-0.414 0-0.707 0.293t-0.293 0.707v10q0 0.414 0.293 0.707t0.707 0.293h16q0.414 0 0.707-0.293t0.293-0.707v-10q0-0.414-0.293-0.707t-0.707-0.293z"></path>
</symbol>
<symbol id="icon-server" viewBox="0 0 24 24">
<title>server</title>
<path class="path1" d="M12 1q2.047 0 3.961 0.246t3.512 0.719 2.562 1.258 0.965 1.777v14q0 0.992-0.965 1.777t-2.562 1.258-3.512 0.719-3.961 0.246-3.961-0.246-3.512-0.719-2.562-1.258-0.965-1.777v-14q0-0.992 0.965-1.777t2.562-1.258 3.512-0.719 3.961-0.246zM21 18.984v-4.555q-1.531 0.773-3.945 1.172t-5.055 0.398-5.055-0.398-3.945-1.172v4.57q0.047 0.172 0.418 0.414t1.137 0.523 1.781 0.516 2.508 0.391 3.156 0.156 3.156-0.156 2.508-0.395 1.781-0.52 1.137-0.523 0.418-0.422zM21 11.984v-4.555q-1.531 0.773-3.945 1.172t-5.055 0.398-5.055-0.398-3.945-1.172v4.57q0.047 0.172 0.418 0.414t1.137 0.523 1.781 0.516 2.508 0.391 3.156 0.156 3.156-0.156 2.504-0.391 1.777-0.516 1.141-0.527 0.422-0.426zM12 3q-1.648 0-3.133 0.156t-2.492 0.387-1.777 0.508-1.152 0.523-0.445 0.426q0.063 0.18 0.445 0.426t1.152 0.523 1.777 0.508 2.492 0.387 3.133 0.156 3.133-0.156 2.492-0.387 1.777-0.508 1.152-0.523 0.445-0.426q-0.063-0.18-0.445-0.426t-1.152-0.523-1.777-0.508-2.492-0.387-3.133-0.156z"></path>
</symbol>
<symbol id="icon-cog" viewBox="0 0 24 24">
<title>cog</title>
<path class="path1" d="M12 0q1.242 0 2.121 0.879t0.879 2.121v0.516q0.367 0.125 0.883 0.359l0.359-0.359q0.883-0.883 2.125-0.883 1.234 0 2.117 0.883t0.883 2.117q0 1.242-0.883 2.125l-0.359 0.359q0.234 0.516 0.359 0.883h0.516q1.242 0 2.121 0.879t0.879 2.121-0.879 2.121-2.121 0.879h-0.516q-0.125 0.367-0.359 0.883l0.359 0.359q0.883 0.883 0.883 2.125 0 1.234-0.883 2.117t-2.117 0.883q-1.242 0-2.125-0.883l-0.359-0.359q-0.516 0.234-0.883 0.359v0.516q0 1.242-0.879 2.121t-2.121 0.879-2.121-0.879-0.879-2.121v-0.516q-0.367-0.125-0.883-0.359l-0.359 0.359q-0.883 0.883-2.117 0.883-1.242 0-2.121-0.883t-0.879-2.117q0-1.25 0.875-2.125l0.359-0.359q-0.234-0.516-0.359-0.883h-0.516q-1.242 0-2.121-0.879t-0.879-2.121 0.879-2.121 2.121-0.879h0.516q0.125-0.367 0.359-0.883l-0.359-0.359q-0.875-0.875-0.875-2.125 0-1.234 0.879-2.117t2.121-0.883q1.234 0 2.117 0.883l0.359 0.359q0.516-0.234 0.883-0.359v-0.516q0-1.242 0.879-2.121t2.121-0.879zM12 2q-0.414 0-0.707 0.293t-0.293 0.707v2.070q-1.75 0.25-3.195 1.32l-1.461-1.461q-0.297-0.297-0.703-0.297-0.414 0-0.707 0.293t-0.293 0.707q0 0.422 0.289 0.711l1.461 1.461q-1.070 1.445-1.32 3.195h-2.070q-0.414 0-0.707 0.293t-0.293 0.707 0.293 0.707 0.707 0.293h2.070q0.25 1.75 1.32 3.195l-1.461 1.461q-0.289 0.289-0.289 0.711 0 0.414 0.293 0.707t0.707 0.293q0.406 0 0.703-0.297l1.461-1.461q1.445 1.070 3.195 1.32v2.070q0 0.414 0.293 0.707t0.707 0.293 0.707-0.293 0.293-0.707v-2.070q1.75-0.25 3.195-1.32l1.461 1.461q0.297 0.297 0.711 0.297t0.707-0.293 0.293-0.707-0.297-0.711l-1.461-1.461q1.070-1.445 1.32-3.195h2.070q0.414 0 0.707-0.293t0.293-0.707-0.293-0.707-0.707-0.293h-2.070q-0.25-1.75-1.32-3.195l1.461-1.461q0.297-0.297 0.297-0.711t-0.293-0.707-0.707-0.293-0.711 0.297l-1.461 1.461q-1.445-1.070-3.195-1.32v-2.070q0-0.414-0.293-0.707t-0.707-0.293zM12 8q1.656 0 2.828 1.172t1.172 2.828-1.172 2.828-2.828 1.172-2.828-1.172-1.172-2.828 1.172-2.828 2.828-1.172zM12 10q-0.828 0-1.414 0.586t-0.586 1.414 0.586 1.414 1.414 0.586 1.414-0.586 0.586-1.414-0.586-1.414-1.414-0.586z"></path>
</symbol>
<symbol id="icon-heart" viewBox="0 0 24 24">
<title>heart</title>
<path class="path1" d="M17.656 2q1.633 0 3.012 0.805t2.184 2.184 0.805 3.012q0 1.172-0.449 2.277t-1.309 1.965l-9.898 9.898-9.898-9.898q-0.859-0.859-1.309-1.965t-0.449-2.277q0-1.633 0.805-3.012t2.184-2.184 3.012-0.805q1.18 0 2.277 0.445t1.965 1.313l1.414 1.414 1.414-1.414q0.859-0.859 1.965-1.309t2.277-0.449zM17.656 4q-0.781 0-1.516 0.297t-1.312 0.875l-2.828 2.828-2.828-2.828q-0.578-0.578-1.313-0.875t-1.516-0.297q-1.094 0-2.012 0.535t-1.453 1.453-0.535 2.012q0 0.781 0.297 1.516t0.875 1.313l8.484 8.484 8.484-8.484q0.578-0.578 0.875-1.313t0.297-1.516q0-1.094-0.535-2.012t-1.453-1.453-2.012-0.535z"></path>
</symbol>
<symbol id="icon-paragraph" viewBox="0 0 24 24">
<title>paragraph</title>
<path class="path1" d="M10 1h9q0.414 0 0.707 0.293t0.293 0.707v20q0 0.414-0.293 0.707t-0.707 0.293-0.707-0.293-0.293-0.707v-19h-2v19q0 0.414-0.293 0.707t-0.707 0.293-0.707-0.293-0.293-0.707v-9h-4q-1.633 0-3.012-0.805t-2.184-2.184-0.805-3.012 0.805-3.012 2.184-2.184 3.012-0.805zM14 11v-8h-4q-1.656 0-2.828 1.172t-1.172 2.828 1.172 2.828 2.828 1.172h4z"></path>
</symbol>
<symbol id="icon-align-justify" viewBox="0 0 24 24">
<title>align-justify</title>
<path class="path1" d="M3 5h18q0.414 0 0.707 0.293t0.293 0.707-0.293 0.707-0.707 0.293h-18q-0.414 0-0.707-0.293t-0.293-0.707 0.293-0.707 0.707-0.293zM3 17h18q0.414 0 0.707 0.293t0.293 0.707-0.293 0.707-0.707 0.293h-18q-0.414 0-0.707-0.293t-0.293-0.707 0.293-0.707 0.707-0.293zM3 13h18q0.414 0 0.707 0.293t0.293 0.707-0.293 0.707-0.707 0.293h-18q-0.414 0-0.707-0.293t-0.293-0.707 0.293-0.707 0.707-0.293zM3 9h18q0.414 0 0.707 0.293t0.293 0.707-0.293 0.707-0.707 0.293h-18q-0.414 0-0.707-0.293t-0.293-0.707 0.293-0.707 0.707-0.293z"></path>
</symbol>
<symbol id="icon-align-left" viewBox="0 0 24 24">
<title>align-left</title>
<path class="path1" d="M3 5h18q0.414 0 0.707 0.293t0.293 0.707-0.293 0.707-0.707 0.293h-18q-0.414 0-0.707-0.293t-0.293-0.707 0.293-0.707 0.707-0.293zM3 17h14q0.414 0 0.707 0.293t0.293 0.707-0.293 0.707-0.707 0.293h-14q-0.414 0-0.707-0.293t-0.293-0.707 0.293-0.707 0.707-0.293zM3 13h18q0.414 0 0.707 0.293t0.293 0.707-0.293 0.707-0.707 0.293h-18q-0.414 0-0.707-0.293t-0.293-0.707 0.293-0.707 0.707-0.293zM3 9h14q0.414 0 0.707 0.293t0.293 0.707-0.293 0.707-0.707 0.293h-14q-0.414 0-0.707-0.293t-0.293-0.707 0.293-0.707 0.707-0.293z"></path>
</symbol>
<symbol id="icon-align-center" viewBox="0 0 24 24">
<title>align-center</title>
<path class="path1" d="M3 5h18q0.414 0 0.707 0.293t0.293 0.707-0.293 0.707-0.707 0.293h-18q-0.414 0-0.707-0.293t-0.293-0.707 0.293-0.707 0.707-0.293zM5 17h14q0.414 0 0.707 0.293t0.293 0.707-0.293 0.707-0.707 0.293h-14q-0.414 0-0.707-0.293t-0.293-0.707 0.293-0.707 0.707-0.293zM3 13h18q0.414 0 0.707 0.293t0.293 0.707-0.293 0.707-0.707 0.293h-18q-0.414 0-0.707-0.293t-0.293-0.707 0.293-0.707 0.707-0.293zM5 9h14q0.414 0 0.707 0.293t0.293 0.707-0.293 0.707-0.707 0.293h-14q-0.414 0-0.707-0.293t-0.293-0.707 0.293-0.707 0.707-0.293z"></path>
</symbol>
<symbol id="icon-align-right" viewBox="0 0 24 24">
<title>align-right</title>
<path class="path1" d="M3 5h18q0.414 0 0.707 0.293t0.293 0.707-0.293 0.707-0.707 0.293h-18q-0.414 0-0.707-0.293t-0.293-0.707 0.293-0.707 0.707-0.293zM7 17h14q0.414 0 0.707 0.293t0.293 0.707-0.293 0.707-0.707 0.293h-14q-0.414 0-0.707-0.293t-0.293-0.707 0.293-0.707 0.707-0.293zM3 13h18q0.414 0 0.707 0.293t0.293 0.707-0.293 0.707-0.707 0.293h-18q-0.414 0-0.707-0.293t-0.293-0.707 0.293-0.707 0.707-0.293zM7 9h14q0.414 0 0.707 0.293t0.293 0.707-0.293 0.707-0.707 0.293h-14q-0.414 0-0.707-0.293t-0.293-0.707 0.293-0.707 0.707-0.293z"></path>
</symbol>
<symbol id="icon-book" viewBox="0 0 24 24">
<title>book</title>
<path class="path1" d="M5 1h16v22h-16q-1.242 0-2.121-0.879t-0.879-2.121v-16q0-1.242 0.879-2.121t2.121-0.879zM19 21v-2h-14q-0.414 0-0.707 0.293t-0.293 0.707 0.293 0.707 0.707 0.293h14zM19 17v-14h-14q-0.414 0-0.707 0.293t-0.293 0.707v13.172q0.492-0.172 1-0.172h14z"></path>
</symbol>
<symbol id="icon-layers" viewBox="0 0 24 24">
<title>layers</title>
<path class="path1" d="M0 7l12-6 12 6-12 6zM12 19.258l9.75-4.883 2.25 1.125-12 6.008-12-6.008 2.25-1.125zM12 15.008l9.75-4.875 2.25 1.125-12 6-12-6 2.25-1.125zM19.531 7l-7.531-3.766-7.531 3.766 7.531 3.766z"></path>
</symbol>
<symbol id="icon-stack" viewBox="0 0 24 24">
<title>stack</title>
<path class="path1" d="M11 1h9q1.242 0 2.121 0.879t0.879 2.121v9q0 1.242-0.879 2.121t-2.121 0.879h-4v4q0 1.242-0.879 2.121t-2.121 0.879h-9q-1.242 0-2.121-0.879t-0.879-2.121v-9q0-1.242 0.879-2.121t2.121-0.879h4v-4q0-1.242 0.879-2.121t2.121-0.879zM8 13v-3h-4q-0.414 0-0.707 0.293t-0.293 0.707v9q0 0.414 0.293 0.707t0.707 0.293h9q0.414 0 0.707-0.293t0.293-0.707v-4h-3q-1.242 0-2.121-0.879t-0.879-2.121zM20 3h-9q-0.414 0-0.707 0.293t-0.293 0.707v9q0 0.414 0.293 0.707t0.707 0.293h9q0.414 0 0.707-0.293t0.293-0.707v-9q0-0.414-0.293-0.707t-0.707-0.293z"></path>
</symbol>
<symbol id="icon-stack-2" viewBox="0 0 24 24">
<title>stack-2</title>
<path class="path1" d="M9 2h10q1.242 0 2.121 0.879t0.879 2.121v10q0 1.242-0.879 2.121t-2.121 0.879h-10q-1.242 0-2.121-0.879t-0.879-2.121v-10q0-1.242 0.879-2.121t2.121-0.879zM4 6.172v12.828q0 0.414 0.293 0.707t0.707 0.293h12.828q-0.312 0.883-1.086 1.441t-1.742 0.559h-10q-1.242 0-2.121-0.879t-0.879-2.121v-10q0-0.969 0.559-1.742t1.441-1.086zM19 4h-10q-0.414 0-0.707 0.293t-0.293 0.707v10q0 0.414 0.293 0.707t0.707 0.293h10q0.414 0 0.707-0.293t0.293-0.707v-10q0-0.414-0.293-0.707t-0.707-0.293z"></path>
</symbol>
<symbol id="icon-paper" viewBox="0 0 24 24">
<title>paper</title>
<path class="path1" d="M5 0h14q1.242 0 2.121 0.879t0.879 2.121v18q0 1.242-0.879 2.121t-2.121 0.879h-14q-1.242 0-2.121-0.879t-0.879-2.121v-18q0-1.242 0.879-2.121t2.121-0.879zM8 17h8q0.414 0 0.707 0.293t0.293 0.707-0.293 0.707-0.707 0.293h-8q-0.414 0-0.707-0.293t-0.293-0.707 0.293-0.707 0.707-0.293zM8 13h8q0.414 0 0.707 0.293t0.293 0.707-0.293 0.707-0.707 0.293h-8q-0.414 0-0.707-0.293t-0.293-0.707 0.293-0.707 0.707-0.293zM19 2h-14q-0.414 0-0.707 0.293t-0.293 0.707v18q0 0.414 0.293 0.707t0.707 0.293h14q0.414 0 0.707-0.293t0.293-0.707v-18q0-0.414-0.293-0.707t-0.707-0.293zM8 9h8q0.414 0 0.707 0.293t0.293 0.707-0.293 0.707-0.707 0.293h-8q-0.414 0-0.707-0.293t-0.293-0.707 0.293-0.707 0.707-0.293zM8 5h4q0.414 0 0.707 0.293t0.293 0.707-0.293 0.707-0.707 0.293h-4q-0.414 0-0.707-0.293t-0.293-0.707 0.293-0.707 0.707-0.293z"></path>
</symbol>
<symbol id="icon-paper-stack" viewBox="0 0 24 24">
<title>paper-stack</title>
<path class="path1" d="M9 0h10q1.242 0 2.121 0.879t0.879 2.121v14q0 1.242-0.879 2.121t-2.121 0.879h-10q-1.242 0-2.121-0.879t-0.879-2.121v-14q0-1.242 0.879-2.121t2.121-0.879zM4 4.172v16.828q0 0.414 0.293 0.707t0.707 0.293h12.828q-0.312 0.883-1.086 1.441t-1.742 0.559h-10q-1.242 0-2.121-0.879t-0.879-2.121v-14q0-0.969 0.559-1.742t1.441-1.086zM19 2h-10q-0.414 0-0.707 0.293t-0.293 0.707v14q0 0.414 0.293 0.707t0.707 0.293h10q0.414 0 0.707-0.293t0.293-0.707v-14q0-0.414-0.293-0.707t-0.707-0.293z"></path>
</symbol>
<symbol id="icon-search" viewBox="0 0 24 24">
<title>search</title>
<path class="path1" d="M10 1q1.828 0 3.496 0.715t2.871 1.918 1.918 2.871 0.715 3.496q0 1.57-0.512 3.008t-1.457 2.609l5.68 5.672q0.289 0.289 0.289 0.711 0 0.43-0.285 0.715t-0.715 0.285q-0.422 0-0.711-0.289l-5.672-5.68q-1.172 0.945-2.609 1.457t-3.008 0.512q-1.828 0-3.496-0.715t-2.871-1.918-1.918-2.871-0.715-3.496 0.715-3.496 1.918-2.871 2.871-1.918 3.496-0.715zM10 3q-1.422 0-2.719 0.555t-2.234 1.492-1.492 2.234-0.555 2.719 0.555 2.719 1.492 2.234 2.234 1.492 2.719 0.555 2.719-0.555 2.234-1.492 1.492-2.234 0.555-2.719-0.555-2.719-1.492-2.234-2.234-1.492-2.719-0.555z"></path>
</symbol>
<symbol id="icon-zoom-in" viewBox="0 0 24 24">
<title>zoom-in</title>
<path class="path1" d="M10 1q1.828 0 3.496 0.715t2.871 1.918 1.918 2.871 0.715 3.496q0 1.57-0.512 3.008t-1.457 2.609l5.68 5.672q0.289 0.289 0.289 0.711 0 0.43-0.285 0.715t-0.715 0.285q-0.422 0-0.711-0.289l-5.672-5.68q-1.172 0.945-2.609 1.457t-3.008 0.512q-1.828 0-3.496-0.715t-2.871-1.918-1.918-2.871-0.715-3.496 0.715-3.496 1.918-2.871 2.871-1.918 3.496-0.715zM10 3q-1.422 0-2.719 0.555t-2.234 1.492-1.492 2.234-0.555 2.719 0.555 2.719 1.492 2.234 2.234 1.492 2.719 0.555 2.719-0.555 2.234-1.492 1.492-2.234 0.555-2.719-0.555-2.719-1.492-2.234-2.234-1.492-2.719-0.555zM10 6q0.414 0 0.707 0.293t0.293 0.707v2h2q0.414 0 0.707 0.293t0.293 0.707-0.293 0.707-0.707 0.293h-2v2q0 0.414-0.293 0.707t-0.707 0.293-0.707-0.293-0.293-0.707v-2h-2q-0.414 0-0.707-0.293t-0.293-0.707 0.293-0.707 0.707-0.293h2v-2q0-0.414 0.293-0.707t0.707-0.293z"></path>
</symbol>
<symbol id="icon-zoom-out" viewBox="0 0 24 24">
<title>zoom-out</title>
<path class="path1" d="M10 1q1.828 0 3.496 0.715t2.871 1.918 1.918 2.871 0.715 3.496q0 1.57-0.512 3.008t-1.457 2.609l5.68 5.672q0.289 0.289 0.289 0.711 0 0.43-0.285 0.715t-0.715 0.285q-0.422 0-0.711-0.289l-5.672-5.68q-1.172 0.945-2.609 1.457t-3.008 0.512q-1.828 0-3.496-0.715t-2.871-1.918-1.918-2.871-0.715-3.496 0.715-3.496 1.918-2.871 2.871-1.918 3.496-0.715zM10 3q-1.422 0-2.719 0.555t-2.234 1.492-1.492 2.234-0.555 2.719 0.555 2.719 1.492 2.234 2.234 1.492 2.719 0.555 2.719-0.555 2.234-1.492 1.492-2.234 0.555-2.719-0.555-2.719-1.492-2.234-2.234-1.492-2.719-0.555zM7 9h6q0.414 0 0.707 0.293t0.293 0.707-0.293 0.707-0.707 0.293h-6q-0.414 0-0.707-0.293t-0.293-0.707 0.293-0.707 0.707-0.293z"></path>
</symbol>
<symbol id="icon-reply" viewBox="0 0 24 24">
<title>reply</title>
<path class="path1" d="M8.359 3.633q0.406 0 0.703 0.293t0.297 0.707-0.297 0.711l-4.656 4.656h9.594q1.828 0 3.496 0.711t2.871 1.918 1.918 2.871 0.715 3.5v1q0 0.414-0.293 0.707t-0.707 0.293q-0.406 0-0.703-0.297t-0.297-0.703v-1q0-1.422-0.555-2.719t-1.492-2.234-2.234-1.492-2.719-0.555h-9.594l4.656 4.664q0.297 0.297 0.297 0.703 0 0.414-0.293 0.711t-0.707 0.297-0.711-0.297l-6.359-6.367q-0.289-0.289-0.289-0.711 0-0.414 0.289-0.703l6.359-6.367q0.297-0.297 0.711-0.297z"></path>
</symbol>
<symbol id="icon-circle-plus" viewBox="0 0 24 24">
<title>circle-plus</title>
<path class="path1" d="M12 1q2.242 0 4.277 0.871t3.508 2.344 2.344 3.508 0.871 4.277-0.871 4.277-2.344 3.508-3.508 2.344-4.277 0.871-4.277-0.871-3.508-2.344-2.344-3.508-0.871-4.277 0.871-4.277 2.344-3.508 3.508-2.344 4.277-0.871zM12 3q-1.828 0-3.496 0.715t-2.871 1.918-1.918 2.871-0.715 3.496 0.715 3.496 1.918 2.871 2.871 1.918 3.496 0.715 3.496-0.715 2.871-1.918 1.918-2.871 0.715-3.496-0.715-3.496-1.918-2.871-2.871-1.918-3.496-0.715zM12 7q0.414 0 0.707 0.293t0.293 0.707v3h3q0.414 0 0.707 0.293t0.293 0.707-0.293 0.707-0.707 0.293h-3v3q0 0.414-0.293 0.707t-0.707 0.293-0.707-0.293-0.293-0.707v-3h-3q-0.414 0-0.707-0.293t-0.293-0.707 0.293-0.707 0.707-0.293h3v-3q0-0.414 0.293-0.707t0.707-0.293z"></path>
</symbol>
<symbol id="icon-circle-minus" viewBox="0 0 24 24">
<title>circle-minus</title>
<path class="path1" d="M12 1q2.242 0 4.277 0.871t3.508 2.344 2.344 3.508 0.871 4.277-0.871 4.277-2.344 3.508-3.508 2.344-4.277 0.871-4.277-0.871-3.508-2.344-2.344-3.508-0.871-4.277 0.871-4.277 2.344-3.508 3.508-2.344 4.277-0.871zM12 3q-1.828 0-3.496 0.715t-2.871 1.918-1.918 2.871-0.715 3.496 0.715 3.496 1.918 2.871 2.871 1.918 3.496 0.715 3.496-0.715 2.871-1.918 1.918-2.871 0.715-3.496-0.715-3.496-1.918-2.871-2.871-1.918-3.496-0.715zM8 11h8q0.414 0 0.707 0.293t0.293 0.707-0.293 0.707-0.707 0.293h-8q-0.414 0-0.707-0.293t-0.293-0.707 0.293-0.707 0.707-0.293z"></path>
</symbol>
<symbol id="icon-circle-check" viewBox="0 0 24 24">
<title>circle-check</title>
<path class="path1" d="M12 1q2.242 0 4.277 0.871t3.508 2.344 2.344 3.508 0.871 4.277-0.871 4.277-2.344 3.508-3.508 2.344-4.277 0.871-4.277-0.871-3.508-2.344-2.344-3.508-0.871-4.277 0.871-4.277 2.344-3.508 3.508-2.344 4.277-0.871zM12 3q-1.828 0-3.496 0.715t-2.871 1.918-1.918 2.871-0.715 3.496 0.715 3.496 1.918 2.871 2.871 1.918 3.496 0.715 3.496-0.715 2.871-1.918 1.918-2.871 0.715-3.496-0.715-3.496-1.918-2.871-2.871-1.918-3.496-0.715zM15.367 8.992q0.414 0 0.707 0.293t0.293 0.707-0.297 0.711l-4.242 4.242q-0.289 0.289-0.703 0.289-0.422 0-0.711-0.289l-2.125-2.117q-0.289-0.289-0.289-0.711 0-0.414 0.293-0.707t0.707-0.293 0.711 0.297l1.414 1.414 3.531-3.539q0.297-0.297 0.711-0.297z"></path>
</symbol>
<symbol id="icon-circle-cross" viewBox="0 0 24 24">
<title>circle-cross</title>
<path class="path1" d="M12 1q2.242 0 4.277 0.871t3.508 2.344 2.344 3.508 0.871 4.277-0.871 4.277-2.344 3.508-3.508 2.344-4.277 0.871-4.277-0.871-3.508-2.344-2.344-3.508-0.871-4.277 0.871-4.277 2.344-3.508 3.508-2.344 4.277-0.871zM12 3q-1.828 0-3.496 0.715t-2.871 1.918-1.918 2.871-0.715 3.496 0.715 3.496 1.918 2.871 2.871 1.918 3.496 0.715 3.496-0.715 2.871-1.918 1.918-2.871 0.715-3.496-0.715-3.496-1.918-2.871-2.871-1.918-3.496-0.715zM14.828 8.164q0.414 0 0.711 0.293t0.297 0.707-0.297 0.711l-2.125 2.125 2.125 2.117q0.297 0.297 0.297 0.703 0 0.414-0.297 0.707t-0.711 0.293-0.703-0.289l-2.125-2.117-2.117 2.117q-0.289 0.289-0.711 0.289-0.414 0-0.707-0.289t-0.293-0.703q0-0.422 0.289-0.711l2.125-2.117-2.125-2.125q-0.289-0.289-0.289-0.703t0.293-0.711 0.707-0.297 0.711 0.297l2.117 2.125 2.125-2.125q0.297-0.297 0.703-0.297z"></path>
</symbol>
<symbol id="icon-square-plus" viewBox="0 0 24 24">
<title>square-plus</title>
<path class="path1" d="M4 1h16q1.242 0 2.121 0.879t0.879 2.121v16q0 1.242-0.879 2.121t-2.121 0.879h-16q-1.242 0-2.121-0.879t-0.879-2.121v-16q0-1.242 0.879-2.121t2.121-0.879zM20 3h-16q-0.414 0-0.707 0.293t-0.293 0.707v16q0 0.414 0.293 0.707t0.707 0.293h16q0.414 0 0.707-0.293t0.293-0.707v-16q0-0.414-0.293-0.707t-0.707-0.293zM12 7q0.414 0 0.707 0.293t0.293 0.707v3h3q0.414 0 0.707 0.293t0.293 0.707-0.293 0.707-0.707 0.293h-3v3q0 0.414-0.293 0.707t-0.707 0.293-0.707-0.293-0.293-0.707v-3h-3q-0.414 0-0.707-0.293t-0.293-0.707 0.293-0.707 0.707-0.293h3v-3q0-0.414 0.293-0.707t0.707-0.293z"></path>
</symbol>
<symbol id="icon-square-minus" viewBox="0 0 24 24">
<title>square-minus</title>
<path class="path1" d="M4 1h16q1.242 0 2.121 0.879t0.879 2.121v16q0 1.242-0.879 2.121t-2.121 0.879h-16q-1.242 0-2.121-0.879t-0.879-2.121v-16q0-1.242 0.879-2.121t2.121-0.879zM20 3h-16q-0.414 0-0.707 0.293t-0.293 0.707v16q0 0.414 0.293 0.707t0.707 0.293h16q0.414 0 0.707-0.293t0.293-0.707v-16q0-0.414-0.293-0.707t-0.707-0.293zM8 11h8q0.414 0 0.707 0.293t0.293 0.707-0.293 0.707-0.707 0.293h-8q-0.414 0-0.707-0.293t-0.293-0.707 0.293-0.707 0.707-0.293z"></path>
</symbol>
<symbol id="icon-square-check" viewBox="0 0 24 24">
<title>square-check</title>
<path class="path1" d="M4 1h16q1.242 0 2.121 0.879t0.879 2.121v16q0 1.242-0.879 2.121t-2.121 0.879h-16q-1.242 0-2.121-0.879t-0.879-2.121v-16q0-1.242 0.879-2.121t2.121-0.879zM20 3h-16q-0.414 0-0.707 0.293t-0.293 0.707v16q0 0.414 0.293 0.707t0.707 0.293h16q0.414 0 0.707-0.293t0.293-0.707v-16q0-0.414-0.293-0.707t-0.707-0.293zM16 8.523q0.406 0 0.703 0.293t0.297 0.707-0.297 0.711l-4.945 4.945q-0.289 0.289-0.703 0.289-0.422 0-0.711-0.289l-2.828-2.828q-0.289-0.289-0.289-0.711 0-0.414 0.293-0.707t0.707-0.293q0.406 0 0.703 0.297l2.117 2.125 4.242-4.242q0.297-0.297 0.711-0.297z"></path>
</symbol>
<symbol id="icon-square-cross" viewBox="0 0 24 24">
<title>square-cross</title>
<path class="path1" d="M4 1h16q1.242 0 2.121 0.879t0.879 2.121v16q0 1.242-0.879 2.121t-2.121 0.879h-16q-1.242 0-2.121-0.879t-0.879-2.121v-16q0-1.242 0.879-2.121t2.121-0.879zM20 3h-16q-0.414 0-0.707 0.293t-0.293 0.707v16q0 0.414 0.293 0.707t0.707 0.293h16q0.414 0 0.707-0.293t0.293-0.707v-16q0-0.414-0.293-0.707t-0.707-0.293zM14.828 8.164q0.414 0 0.711 0.297t0.297 0.711-0.297 0.711l-2.125 2.117 2.125 2.117q0.297 0.297 0.297 0.711t-0.297 0.707-0.711 0.293-0.703-0.289l-2.125-2.125-2.125 2.125q-0.281 0.289-0.703 0.289-0.43 0-0.715-0.285t-0.285-0.715q0-0.422 0.289-0.711l2.125-2.117-2.125-2.117q-0.289-0.289-0.289-0.711 0-0.414 0.293-0.711t0.707-0.297q0.422 0 0.703 0.297l2.125 2.125 2.125-2.125q0.297-0.297 0.703-0.297z"></path>
</symbol>
<symbol id="icon-microphone" viewBox="0 0 24 24">
<title>microphone</title>
<path class="path1" d="M19 9q0.414 0 0.707 0.293t0.293 0.707v2q0 1.5-0.543 2.887t-1.477 2.43-2.227 1.742-2.754 0.879v2.063h3q0.414 0 0.707 0.293t0.293 0.707-0.293 0.707-0.707 0.293h-8q-0.414 0-0.707-0.293t-0.293-0.707 0.293-0.707 0.707-0.293h3v-2.063q-1.461-0.18-2.754-0.879t-2.227-1.742-1.477-2.43-0.543-2.887v-2q0-0.414 0.293-0.707t0.707-0.293 0.707 0.293 0.293 0.707v2q0 1.633 0.805 3.012t2.184 2.184 3.012 0.805 3.012-0.805 2.184-2.184 0.805-3.012v-2q0-0.414 0.293-0.707t0.707-0.293zM12 0q1.656 0 2.828 1.172t1.172 2.828v8q0 1.656-1.172 2.828t-2.828 1.172-2.828-1.172-1.172-2.828v-8q0-1.656 1.172-2.828t2.828-1.172zM12 2q-0.828 0-1.414 0.586t-0.586 1.414v8q0 0.828 0.586 1.414t1.414 0.586 1.414-0.586 0.586-1.414v-8q0-0.828-0.586-1.414t-1.414-0.586z"></path>
</symbol>
<symbol id="icon-record" viewBox="0 0 24 24">
<title>record</title>
<path class="path1" d="M12 3q1.828 0 3.496 0.715t2.871 1.918 1.918 2.871 0.715 3.496-0.715 3.496-1.918 2.871-2.871 1.918-3.496 0.715-3.496-0.715-2.871-1.918-1.918-2.871-0.715-3.496 0.715-3.496 1.918-2.871 2.871-1.918 3.496-0.715zM12 5q-1.422 0-2.719 0.555t-2.234 1.492-1.492 2.234-0.555 2.719 0.555 2.719 1.492 2.234 2.234 1.492 2.719 0.555 2.719-0.555 2.234-1.492 1.492-2.234 0.555-2.719-0.555-2.719-1.492-2.234-2.234-1.492-2.719-0.555z"></path>
</symbol>
<symbol id="icon-skip-back" viewBox="0 0 24 24">
<title>skip-back</title>
<path class="path1" d="M17 4q0.414 0 0.707 0.293t0.293 0.707q0 0.422-0.289 0.711l-6.297 6.289 6.297 6.297q0.289 0.289 0.289 0.711 0 0.414-0.293 0.703t-0.707 0.289q-0.422 0-0.711-0.289l-7-7q-0.289-0.305-0.289-0.711 0-0.398 0.289-0.703l7-7q0.297-0.297 0.711-0.297zM6 4q0.414 0 0.707 0.293t0.293 0.707v14q0 0.414-0.293 0.707t-0.707 0.293-0.707-0.293-0.293-0.707v-14q0-0.414 0.293-0.707t0.707-0.293z"></path>
</symbol>
<symbol id="icon-rewind" viewBox="0 0 24 24">
<title>rewind</title>
<path class="path1" d="M18 4q0.414 0 0.707 0.293t0.293 0.707-0.297 0.711l-6.289 6.289 6.289 6.289q0.297 0.297 0.297 0.711t-0.293 0.707-0.707 0.293q-0.422 0-0.711-0.289l-7-7q-0.289-0.289-0.289-0.711t0.289-0.711l7-7q0.289-0.289 0.711-0.289zM12 4q0.414 0 0.707 0.293t0.293 0.707-0.297 0.711l-6.289 6.289 6.289 6.289q0.297 0.297 0.297 0.711t-0.293 0.707-0.707 0.293q-0.422 0-0.711-0.289l-7-7q-0.289-0.289-0.289-0.711t0.289-0.711l7-7q0.289-0.289 0.711-0.289z"></path>
</symbol>
<symbol id="icon-play" viewBox="0 0 24 24">
<title>play</title>
<path class="path1" d="M4 21v-18l15 9zM15.109 12l-9.109-5.469v10.938z"></path>
</symbol>
<symbol id="icon-pause" viewBox="0 0 24 24">
<title>pause</title>
<path class="path1" d="M16 3q1.242 0 2.121 0.879t0.879 2.121v12q0 1.242-0.879 2.121t-2.121 0.879-2.121-0.879-0.879-2.121v-12q0-1.242 0.879-2.121t2.121-0.879zM8 3q1.242 0 2.121 0.879t0.879 2.121v12q0 1.242-0.879 2.121t-2.121 0.879-2.121-0.879-0.879-2.121v-12q0-1.242 0.879-2.121t2.121-0.879zM8 5q-0.414 0-0.707 0.293t-0.293 0.707v12q0 0.414 0.293 0.707t0.707 0.293 0.707-0.293 0.293-0.707v-12q0-0.414-0.293-0.707t-0.707-0.293zM16 5q-0.414 0-0.707 0.293t-0.293 0.707v12q0 0.414 0.293 0.707t0.707 0.293 0.707-0.293 0.293-0.707v-12q0-0.414-0.293-0.707t-0.707-0.293z"></path>
</symbol>
<symbol id="icon-stop" viewBox="0 0 24 24">
<title>stop</title>
<path class="path1" d="M6 3h12q1.242 0 2.121 0.879t0.879 2.121v12q0 1.242-0.879 2.121t-2.121 0.879h-12q-1.242 0-2.121-0.879t-0.879-2.121v-12q0-1.242 0.879-2.121t2.121-0.879zM18 5h-12q-0.414 0-0.707 0.293t-0.293 0.707v12q0 0.414 0.293 0.707t0.707 0.293h12q0.414 0 0.707-0.293t0.293-0.707v-12q0-0.414-0.293-0.707t-0.707-0.293z"></path>
</symbol>
<symbol id="icon-fast-forward" viewBox="0 0 24 24">
<title>fast-forward</title>
<path class="path1" d="M11 4q0.414 0 0.703 0.289l7 7q0.297 0.297 0.297 0.711t-0.297 0.711l-7 7q-0.289 0.289-0.703 0.289t-0.707-0.293-0.293-0.707q0-0.422 0.289-0.711l6.289-6.289-6.289-6.289q-0.289-0.289-0.289-0.711 0-0.43 0.285-0.715t0.715-0.285zM5 4q0.414 0 0.703 0.289l7 7q0.297 0.297 0.297 0.711t-0.297 0.711l-7 7q-0.289 0.289-0.703 0.289t-0.707-0.293-0.293-0.707q0-0.422 0.289-0.711l6.289-6.289-6.289-6.289q-0.289-0.289-0.289-0.711 0-0.43 0.285-0.715t0.715-0.285z"></path>
</symbol>
<symbol id="icon-skip-forward" viewBox="0 0 24 24">
<title>skip-forward</title>
<path class="path1" d="M6 4q0.414 0 0.711 0.297l7 7q0.289 0.289 0.289 0.703 0 0.422-0.289 0.711l-7 7q-0.289 0.289-0.711 0.289-0.414 0-0.707-0.289t-0.293-0.703q0-0.406 0.289-0.711l6.297-6.297-6.297-6.289q-0.289-0.305-0.289-0.711 0-0.414 0.293-0.707t0.707-0.293zM17 4q0.414 0 0.707 0.293t0.293 0.707v14q0 0.414-0.293 0.707t-0.707 0.293-0.707-0.293-0.293-0.707v-14q0-0.414 0.293-0.707t0.707-0.293z"></path>
</symbol>
<symbol id="icon-shuffle" viewBox="0 0 24 24">
<title>shuffle</title>
<path class="path1" d="M18 0q0.414 0 0.711 0.297l4 4q0.289 0.289 0.289 0.703 0 0.422-0.289 0.711l-4 4q-0.289 0.289-0.711 0.289-0.414 0-0.707-0.293t-0.293-0.707q0-0.398 0.289-0.703l2.297-2.297h-1.586q-1.406 0-2.641 0.613t-2.070 1.676q-1.289 1.641-1.289 3.711 0 2.086-1 3.875-0.531 0.961-1.289 1.727-1.109 1.133-2.586 1.766t-3.125 0.633h-2q-0.414 0-0.707-0.293t-0.293-0.707 0.293-0.707 0.707-0.293h2q1.414 0 2.645-0.609t2.066-1.672q1.289-1.641 1.289-3.719 0-2.086 1-3.875 0.539-0.969 1.289-1.719 1.109-1.133 2.586-1.77t3.125-0.637h1.586l-2.297-2.289q-0.289-0.305-0.289-0.711 0-0.414 0.293-0.707t0.707-0.293zM18 14q0.414 0 0.711 0.297l4 4q0.289 0.289 0.289 0.711 0 0.414-0.289 0.703l-4 4q-0.289 0.289-0.711 0.289-0.414 0-0.707-0.289t-0.293-0.703q0-0.406 0.289-0.711l2.297-2.297h-1.586q-1.648 0-3.125-0.633t-2.586-1.766q0.602-0.883 1-1.883 0.836 1.062 2.066 1.672t2.645 0.609h1.586l-2.297-2.289q-0.289-0.305-0.289-0.711 0-0.414 0.293-0.707t0.707-0.293zM2 4h2q1.648 0 3.125 0.637t2.586 1.77q-0.609 0.898-1 1.883-0.836-1.062-2.070-1.676t-2.641-0.613h-2q-0.414 0-0.707-0.293t-0.293-0.707 0.293-0.707 0.707-0.293z"></path>
</symbol>
<symbol id="icon-repeat" viewBox="0 0 24 24">
<title>repeat</title>
<path class="path1" d="M1 13h6q0.414 0 0.707 0.293t0.293 0.707-0.293 0.707-0.707 0.293h-3.375l2.719 2.656q1.156 1.164 2.648 1.758 1.43 0.586 3.008 0.586t3.008-0.586q0.781-0.32 1.465-0.785t1.164-0.953 0.875-1.047 0.633-1.027 0.402-0.938q0.141-0.391 0.516-0.566t0.758-0.043q0.391 0.141 0.566 0.512t0.043 0.754q-0.328 1-0.953 1.984t-1.406 1.766q-1.437 1.437-3.305 2.195-1.812 0.734-3.766 0.734-1.945 0-3.766-0.734-1.867-0.758-3.305-2.195l-2.93-2.867v3.797q0 0.414-0.293 0.707t-0.707 0.293-0.707-0.293-0.293-0.707v-6q0-0.414 0.293-0.707t0.707-0.293zM12 2q1.945 0 3.766 0.734 1.867 0.758 3.305 2.195l0.016 0.016 2.914 2.852v-3.797q0-0.414 0.293-0.707t0.707-0.293 0.707 0.293 0.293 0.707v6q0 0.414-0.293 0.707t-0.707 0.293h-6q-0.414 0-0.707-0.293t-0.293-0.707 0.293-0.707 0.707-0.293h3.375l-2.719-2.656q-1.141-1.141-2.598-1.742t-3.059-0.602q-1.578 0-3.008 0.586-1.492 0.594-2.648 1.758-0.469 0.414-1.027 1.262t-0.863 1.73q-0.141 0.391-0.516 0.566t-0.758 0.043q-0.391-0.141-0.566-0.512t-0.043-0.754q0.328-1 0.953-1.984t1.406-1.766q1.437-1.437 3.305-2.195 1.82-0.734 3.766-0.734z"></path>
</symbol>
<symbol id="icon-folder" viewBox="0 0 24 24">
<title>folder</title>
<path class="path1" d="M4 2h5l2 3h9q1.242 0 2.121 0.879t0.879 2.121v11q0 1.242-0.879 2.121t-2.121 0.879h-16q-1.242 0-2.121-0.879t-0.879-2.121v-14q0-1.242 0.879-2.121t2.121-0.879zM9.93 7l-1.93-3h-4q-0.414 0-0.707 0.293t-0.293 0.707v14q0 0.414 0.293 0.707t0.707 0.293h16q0.414 0 0.707-0.293t0.293-0.707v-11q0-0.414-0.293-0.707t-0.707-0.293h-10.070z"></path>
</symbol>
<symbol id="icon-umbrella" viewBox="0 0 24 24">
<title>umbrella</title>
<path class="path1" d="M12 1q1.758 0 3.418 0.492t3.047 1.398 2.5 2.137 1.852 2.762 1.020 3.211q0.164 0.969 0.164 2h-11v6q0 0.828 0.586 1.414t1.414 0.586 1.414-0.586 0.586-1.414q0-0.414 0.293-0.707t0.707-0.293 0.707 0.293 0.293 0.707q0 1.656-1.172 2.828t-2.828 1.172-2.828-1.172-1.172-2.828v-6h-11q0-1.031 0.164-2 0.281-1.68 1.020-3.211t1.852-2.762 2.5-2.137 3.047-1.398 3.418-0.492zM12 3q-2.375 0-4.461 1.047t-3.48 2.867-1.855 4.086h19.594q-0.461-2.266-1.855-4.086t-3.48-2.867-4.461-1.047z"></path>
</symbol>
<symbol id="icon-moon" viewBox="0 0 24 24">
<title>moon</title>
<path class="path1" d="M12 2q0.336 0 0.664 0.023-0.664 1.43-0.664 2.977 0 1.422 0.555 2.719t1.492 2.234 2.234 1.492 2.719 0.555q1.547 0 2.977-0.664 0.023 0.328 0.023 0.664 0 1.359-0.359 2.656t-1.004 2.395-1.566 2.020-2.020 1.566-2.395 1.004-2.656 0.359-2.656-0.359-2.395-1.004-2.020-1.566-1.566-2.020-1.004-2.395-0.359-2.656 0.359-2.656 1.004-2.395 1.566-2.020 2.020-1.566 2.395-1.004 2.656-0.359zM10.031 4.242q-1.289 0.328-2.402 1.062t-1.914 1.742-1.258 2.293-0.457 2.66q0 1.625 0.633 3.105t1.707 2.555 2.555 1.707 3.105 0.633q1.375 0 2.66-0.457t2.293-1.258 1.742-1.914 1.062-2.402q-0.336 0.031-0.758 0.031-1.828 0-3.492-0.715t-2.871-1.922-1.922-2.871-0.715-3.492q0-0.422 0.031-0.758z"></path>
</symbol>
<symbol id="icon-thermometer" viewBox="0 0 24 24">
<title>thermometer</title>
<path class="path1" d="M11.5 0q1.445 0 2.473 1.027t1.027 2.473v10.758q0.93 0.773 1.465 1.879t0.535 2.363q0 1.117-0.434 2.137t-1.172 1.758-1.758 1.172-2.137 0.434-2.137-0.434-1.758-1.172-1.172-1.758-0.434-2.137q0-1.258 0.535-2.363t1.465-1.879v-10.758q0-1.445 1.027-2.473t2.473-1.027zM11.5 2q-0.625 0-1.062 0.438t-0.438 1.062v11.844q-0.898 0.43-1.449 1.277t-0.551 1.879q0 1.445 1.027 2.473t2.473 1.027 2.473-1.027 1.027-2.473q0-1.031-0.551-1.879t-1.449-1.277v-11.844q0-0.625-0.438-1.062t-1.062-0.438z"></path>
</symbol>
<symbol id="icon-drop" viewBox="0 0 24 24">
<title>drop</title>
<path class="path1" d="M5.633 7.633l6.367-6.367 6.367 6.367q1.297 1.297 1.965 2.953t0.668 3.414q0 1.766-0.668 3.414t-1.965 2.945-2.953 1.969-3.414 0.672-3.414-0.672-2.953-1.969q-1.289-1.297-1.961-2.949t-0.672-3.41 0.672-3.414 1.961-2.953zM16.953 9.047l-4.953-4.953-4.953 4.953q-1 1.008-1.523 2.297t-0.523 2.656 0.52 2.652 1.527 2.293 2.297 1.531 2.656 0.523q1.375 0 2.66-0.523t2.293-1.531 1.527-2.289 0.52-2.656q0-1.367-0.52-2.656t-1.527-2.297z"></path>
</symbol>
<symbol id="icon-sun" viewBox="0 0 24 24">
<title>sun</title>
<path class="path1" d="M12 6q1.633 0 3.012 0.805t2.184 2.184 0.805 3.012-0.805 3.012-2.184 2.184-3.012 0.805-3.012-0.805-2.184-2.184-0.805-3.012 0.805-3.012 2.184-2.184 3.012-0.805zM5.641 17.359q0.414 0 0.707 0.297t0.293 0.711q0 0.406-0.297 0.703l-1.414 1.414q-0.297 0.297-0.703 0.297-0.414 0-0.707-0.293t-0.293-0.707q0-0.422 0.289-0.711l1.414-1.414q0.297-0.297 0.711-0.297zM12 20q0.414 0 0.707 0.293t0.293 0.707v2q0 0.414-0.293 0.707t-0.707 0.293-0.707-0.293-0.293-0.707v-2q0-0.414 0.293-0.707t0.707-0.293zM1 11h2q0.414 0 0.707 0.293t0.293 0.707-0.293 0.707-0.707 0.293h-2q-0.414 0-0.707-0.293t-0.293-0.707 0.293-0.707 0.707-0.293zM12 8q-1.656 0-2.828 1.172t-1.172 2.828 1.172 2.828 2.828 1.172 2.828-1.172 1.172-2.828-1.172-2.828-2.828-1.172zM18.367 17.359q0.406 0 0.703 0.297l1.414 1.414q0.297 0.297 0.297 0.711 0 0.406-0.297 0.703t-0.703 0.297q-0.414 0-0.711-0.297l-1.414-1.414q-0.289-0.289-0.289-0.703t0.293-0.711 0.707-0.297zM4.227 3.219q0.406 0 0.703 0.297l1.414 1.414q0.297 0.297 0.297 0.703 0 0.414-0.293 0.707t-0.707 0.293q-0.422 0-0.711-0.289l-1.414-1.414q-0.289-0.289-0.289-0.711 0-0.414 0.293-0.707t0.707-0.293zM12 0q0.414 0 0.707 0.293t0.293 0.707v2q0 0.414-0.293 0.707t-0.707 0.293-0.707-0.293-0.293-0.707v-2q0-0.414 0.293-0.707t0.707-0.293zM21 11h2q0.414 0 0.707 0.293t0.293 0.707-0.293 0.707-0.707 0.293h-2q-0.414 0-0.707-0.293t-0.293-0.707 0.293-0.707 0.707-0.293zM19.781 3.219q0.406 0 0.703 0.297t0.297 0.703q0 0.414-0.297 0.711l-1.414 1.414q-0.289 0.289-0.703 0.289-0.43 0-0.715-0.285t-0.285-0.715q0-0.414 0.289-0.703l1.414-1.414q0.297-0.297 0.711-0.297z"></path>
</symbol>
<symbol id="icon-cloud" viewBox="0 0 24 24">
<title>cloud</title>
<path class="path1" d="M15 3q1.828 0 3.496 0.715t2.871 1.918 1.918 2.871 0.715 3.496-0.715 3.496-1.918 2.871-2.871 1.918-3.496 0.715h-9q-1.633 0-3.012-0.805t-2.184-2.184-0.805-3.012 0.805-3.012 2.184-2.184 3.012-0.805h0.516q0.617-1.742 1.859-3.098t2.973-2.129 3.652-0.773zM15 5q-1.297 0-2.496 0.465t-2.109 1.262-1.523 1.906-0.793 2.367h-2.078q-1.656 0-2.828 1.172t-1.172 2.828 1.172 2.828 2.828 1.172h9q1.422 0 2.719-0.555t2.234-1.492 1.492-2.234 0.555-2.719-0.555-2.719-1.492-2.234-2.234-1.492-2.719-0.555z"></path>
</symbol>
<symbol id="icon-cloud-upload" viewBox="0 0 24 24">
<title>cloud-upload</title>
<path class="path1" d="M15 2q1.828 0 3.496 0.715t2.871 1.918 1.918 2.871 0.715 3.496q0 1.703-0.621 3.273t-1.688 2.75-2.547 1.957-3.145 0.965v-2.016q1.68-0.242 3.051-1.215t2.16-2.477 0.789-3.238q0-1.422-0.555-2.719t-1.492-2.234-2.234-1.492-2.719-0.555q-1.297 0-2.496 0.465t-2.109 1.262-1.523 1.906-0.793 2.367h-2.078q-1.656 0-2.828 1.172t-1.172 2.828q0 0.906 0.355 1.68t0.934 1.27 1.285 0.773 1.426 0.277h4v2h-4q-1.633 0-3.012-0.805t-2.184-2.184-0.805-3.012 0.805-3.012 2.184-2.184 3.012-0.805h0.516q0.617-1.742 1.859-3.098t2.973-2.129 3.652-0.773zM13 10q0.414 0 0.711 0.297l3 3q0.289 0.289 0.289 0.703 0 0.43-0.285 0.715t-0.715 0.285q-0.422 0-0.711-0.289l-1.289-1.297v6.586q0 0.414-0.293 0.707t-0.707 0.293-0.707-0.293-0.293-0.707v-6.586l-1.289 1.297q-0.289 0.289-0.711 0.289-0.414 0-0.707-0.293t-0.293-0.707q0-0.398 0.289-0.703l3-3q0.297-0.297 0.711-0.297z"></path>
</symbol>
<symbol id="icon-cloud-download" viewBox="0 0 24 24">
<title>cloud-download</title>
<path class="path1" d="M15 2q1.828 0 3.496 0.715t2.871 1.918 1.918 2.871 0.715 3.496q0 1.992-0.82 3.766t-2.266 3.027-3.281 1.816l0.492-0.484q0.422-0.43 0.656-1 0.219-0.531 0.219-1.156 0-0.156-0.008-0.219 1.391-0.969 2.199-2.48t0.809-3.27q0-1.422-0.555-2.719t-1.492-2.234-2.234-1.492-2.719-0.555q-1.297 0-2.496 0.465t-2.109 1.262-1.523 1.906-0.793 2.367h-2.078q-1.656 0-2.828 1.172t-1.172 2.828q0 0.906 0.355 1.68t0.934 1.27 1.285 0.773 1.426 0.277h1.172q0.273 0.687 0.703 1.125l0.883 0.875h-2.758q-1.633 0-3.012-0.805t-2.184-2.184-0.805-3.012 0.805-3.012 2.184-2.184 3.012-0.805h0.516q0.617-1.742 1.859-3.098t2.973-2.129 3.652-0.773zM13 10q0.414 0 0.707 0.293t0.293 0.707v6.586l1.289-1.297q0.289-0.289 0.711-0.289 0.43 0 0.715 0.285t0.285 0.715q0 0.422-0.289 0.711l-3 3q-0.289 0.289-0.711 0.289t-0.711-0.289l-3-3q-0.289-0.305-0.289-0.711 0-0.414 0.293-0.707t0.707-0.293q0.422 0 0.711 0.289l1.289 1.297v-6.586q0-0.414 0.293-0.707t0.707-0.293z"></path>
</symbol>
<symbol id="icon-upload" viewBox="0 0 24 24">
<title>upload</title>
<path class="path1" d="M5 0h14q1.242 0 2.121 0.879t0.879 2.121v14q0 1.242-0.879 2.121t-2.121 0.879h-4v-2h4q0.414 0 0.707-0.293t0.293-0.707v-14q0-0.414-0.293-0.707t-0.707-0.293h-14q-0.414 0-0.707 0.293t-0.293 0.707v14q0 0.414 0.293 0.707t0.707 0.293h4v2h-4q-1.242 0-2.121-0.879t-0.879-2.121v-14q0-1.242 0.879-2.121t2.121-0.879zM12 7q0.422 0 0.711 0.289l4 4q0.289 0.289 0.289 0.711 0 0.414-0.293 0.707t-0.707 0.293q-0.406 0-0.711-0.289l-2.289-2.297v12.586q0 0.414-0.293 0.707t-0.707 0.293-0.707-0.293-0.293-0.707v-12.586l-2.289 2.297q-0.305 0.289-0.711 0.289-0.414 0-0.707-0.293t-0.293-0.707q0-0.406 0.289-0.711l4-4q0.289-0.289 0.711-0.289z"></path>
</symbol>
<symbol id="icon-download" viewBox="0 0 24 24">
<title>download</title>
<path class="path1" d="M15 4h4q1.242 0 2.121 0.879t0.879 2.121v14q0 1.242-0.879 2.121t-2.121 0.879h-14q-1.242 0-2.121-0.879t-0.879-2.121v-14q0-1.242 0.879-2.121t2.121-0.879h4v2h-4q-0.414 0-0.707 0.293t-0.293 0.707v14q0 0.414 0.293 0.707t0.707 0.293h14q0.414 0 0.707-0.293t0.293-0.707v-14q0-0.414-0.293-0.707t-0.707-0.293h-4v-2zM12 0q0.414 0 0.707 0.293t0.293 0.707v12.586l2.289-2.297q0.289-0.289 0.711-0.289 0.43 0 0.715 0.285t0.285 0.715q0 0.422-0.289 0.711l-4 4q-0.289 0.289-0.711 0.289t-0.711-0.289l-4-4q-0.289-0.305-0.289-0.711 0-0.414 0.293-0.707t0.707-0.293q0.422 0 0.711 0.289l2.289 2.297v-12.586q0-0.414 0.293-0.707t0.707-0.293z"></path>
</symbol>
<symbol id="icon-location" viewBox="0 0 24 24">
<title>location</title>
<path class="path1" d="M0 11l24-11-11 24-3-10zM13.391 18.344l6.547-14.281-14.281 6.547 5.953 1.781z"></path>
</symbol>
<symbol id="icon-location-2" viewBox="0 0 24 24">
<title>location-2</title>
<path class="path1" d="M12 1q2.242 0 4.277 0.871t3.508 2.344 2.344 3.508 0.871 4.277-0.871 4.277-2.344 3.508-3.508 2.344-4.277 0.871-4.277-0.871-3.508-2.344-2.344-3.508-0.871-4.277 0.871-4.277 2.344-3.508 3.508-2.344 4.277-0.871zM13 3.055v2.945q0 0.414-0.293 0.707t-0.707 0.293-0.707-0.293-0.293-0.707v-2.945q-1.547 0.172-2.934 0.852t-2.434 1.727-1.727 2.434-0.852 2.934h2.945q0.414 0 0.707 0.293t0.293 0.707-0.293 0.707-0.707 0.293h-2.945q0.172 1.547 0.852 2.934t1.727 2.434 2.434 1.727 2.934 0.852v-2.945q0-0.414 0.293-0.707t0.707-0.293 0.707 0.293 0.293 0.707v2.945q1.547-0.172 2.934-0.852t2.434-1.727 1.727-2.434 0.852-2.934h-2.945q-0.414 0-0.707-0.293t-0.293-0.707 0.293-0.707 0.707-0.293h2.945q-0.172-1.547-0.852-2.934t-1.727-2.434-2.434-1.727-2.934-0.852z"></path>
</symbol>
<symbol id="icon-map" viewBox="0 0 24 24">
<title>map</title>
<path class="path1" d="M16 5l8-5v19l-8 5-8-5-8 5v-19l8-5zM7 17.266v-14.273l-5 3.125v14.273zM15 6.734l-6-3.758v14.289l6 3.75v-14.281zM22 17.891v-14.281l-5 3.125v14.281z"></path>
</symbol>
<symbol id="icon-battery" viewBox="0 0 24 24">
<title>battery</title>
<path class="path1" d="M3 5h15q1.242 0 2.121 0.879t0.879 2.121q1.242 0 2.121 0.879t0.879 2.121v2q0 1.242-0.879 2.121t-2.121 0.879q0 1.242-0.879 2.121t-2.121 0.879h-15q-1.242 0-2.121-0.879t-0.879-2.121v-8q0-1.242 0.879-2.121t2.121-0.879zM18 7h-15q-0.414 0-0.707 0.293t-0.293 0.707v8q0 0.414 0.293 0.707t0.707 0.293h15q0.414 0 0.707-0.293t0.293-0.707v-8q0-0.414-0.293-0.707t-0.707-0.293zM21 10v4q0.414 0 0.707-0.293t0.293-0.707v-2q0-0.414-0.293-0.707t-0.707-0.293z"></path>
</symbol>
<symbol id="icon-head" viewBox="0 0 24 24">
<title>head</title>
<path class="path1" d="M12 0q1.633 0 3.012 0.805t2.184 2.184 0.805 3.012v3q0 1.25-0.484 2.367t-1.352 1.945q2.281 0.359 4.055 1.059t2.777 1.652 1.004 2.008v1.969q0 1.242-0.879 2.121t-2.121 0.879h-18q-1.242 0-2.121-0.879t-0.879-2.121v-1.977q0-1.055 1.004-2.008t2.773-1.652 4.051-1.051q-0.859-0.836-1.344-1.949t-0.484-2.363v-3q0-1.633 0.805-3.012t2.184-2.184 3.012-0.805zM12 15q-2.172 0-4.191 0.348t-3.52 0.973q-0.602 0.25-1.074 0.531t-0.719 0.508-0.371 0.395-0.125 0.27v1.977q0 0.414 0.293 0.707t0.707 0.293h18q0.414 0 0.707-0.293t0.293-0.707v-1.969q0-0.102-0.125-0.27t-0.371-0.395-0.719-0.508-1.074-0.539q-1.5-0.625-3.52-0.973t-4.191-0.348zM12 2q-1.656 0-2.828 1.172t-1.172 2.828v3q0 1.656 1.172 2.828t2.828 1.172 2.828-1.172 1.172-2.828v-3q0-1.656-1.172-2.828t-2.828-1.172z"></path>
</symbol>
<symbol id="icon-briefcase" viewBox="0 0 24 24">
<title>briefcase</title>
<path class="path1" d="M10 2h4q1.242 0 2.121 0.879t0.879 2.121v1h3q1.242 0 2.121 0.879t0.879 2.121v10q0 1.242-0.879 2.121t-2.121 0.879h-16q-1.242 0-2.121-0.879t-0.879-2.121v-10q0-1.242 0.879-2.121t2.121-0.879h3v-1q0-1.242 0.879-2.121t2.121-0.879zM5 20v-12h-1q-0.414 0-0.707 0.293t-0.293 0.707v10q0 0.414 0.293 0.707t0.707 0.293h1zM17 20v-12h-10v12h10zM20 8h-1v12h1q0.414 0 0.707-0.293t0.293-0.707v-10q0-0.414-0.293-0.707t-0.707-0.293zM14 4h-4q-0.414 0-0.707 0.293t-0.293 0.707v1h6v-1q0-0.414-0.293-0.707t-0.707-0.293z"></path>
</symbol>
<symbol id="icon-speech-bubble" viewBox="0 0 24 24">
<title>speech-bubble</title>
<path class="path1" d="M4 1h16q1.242 0 2.121 0.879t0.879 2.121v11q0 1.242-0.879 2.121t-2.121 0.879h-8l-7 5v-5h-1q-1.242 0-2.121-0.879t-0.879-2.121v-11q0-1.242 0.879-2.121t2.121-0.879zM20 3h-16q-0.414 0-0.707 0.293t-0.293 0.707v11q0 0.414 0.293 0.707t0.707 0.293h3v3.117l4.359-3.117h8.641q0.414 0 0.707-0.293t0.293-0.707v-11q0-0.414-0.293-0.707t-0.707-0.293z"></path>
</symbol>
<symbol id="icon-anchor" viewBox="0 0 24 24">
<title>anchor</title>
<path class="path1" d="M12 1q1.656 0 2.828 1.172t1.172 2.828q0 1.383-0.844 2.457t-2.156 1.41v12.078q1.664-0.188 3.145-0.965t2.547-1.957 1.688-2.75 0.621-3.273q0-0.414 0.293-0.707t0.707-0.293 0.707 0.293 0.293 0.707q0 2.242-0.871 4.277t-2.344 3.508-3.508 2.344-4.277 0.871-4.277-0.871-3.508-2.344-2.344-3.508-0.871-4.277q0-0.414 0.293-0.707t0.707-0.293 0.707 0.293 0.293 0.707q0 1.703 0.621 3.273t1.688 2.75 2.547 1.957 3.145 0.965v-12.078q-1.313-0.336-2.156-1.41t-0.844-2.457q0-1.656 1.172-2.828t2.828-1.172zM12 3q-0.828 0-1.414 0.586t-0.586 1.414 0.586 1.414 1.414 0.586 1.414-0.586 0.586-1.414-0.586-1.414-1.414-0.586z"></path>
</symbol>
<symbol id="icon-globe" viewBox="0 0 24 24">
<title>globe</title>
<path class="path1" d="M12 1q0.281 0 0.422 0.008 1.453 0.055 2.824 0.48t2.535 1.145 2.137 1.73 1.648 2.199 1.055 2.582 0.379 2.855-0.379 2.855-1.055 2.582-1.648 2.199-2.137 1.73-2.535 1.145-2.824 0.48q-0.141 0.008-0.422 0.008t-0.422-0.008q-1.453-0.055-2.824-0.48t-2.535-1.145-2.137-1.73-1.648-2.199-1.055-2.582-0.379-2.855 0.379-2.855 1.055-2.582 1.648-2.199 2.137-1.73 2.535-1.145 2.824-0.48q0.141-0.008 0.422-0.008zM7.039 13h-3.984q0.312 2.789 2.148 4.898t4.516 2.813q-1.016-1.539-1.77-3.488t-0.91-4.223zM14.961 13h-5.922q0.078 1 0.324 2t0.551 1.77 0.703 1.52 0.719 1.234 0.664 0.93q0.344-0.445 0.664-0.934t0.719-1.238 0.703-1.52 0.551-1.766 0.324-1.996zM9.719 3.289q-2.68 0.703-4.516 2.812t-2.148 4.898h3.984q0.273-4.078 2.68-7.711zM20.945 13h-3.977q-0.289 4.086-2.688 7.711 2.68-0.703 4.516-2.813t2.148-4.898zM12 3.547q-0.344 0.445-0.66 0.934t-0.719 1.238-0.707 1.52-0.551 1.766-0.324 1.996h5.922q-0.078-1-0.324-2t-0.551-1.77-0.703-1.52-0.719-1.234-0.664-0.93zM14.281 3.289q2.398 3.625 2.688 7.711h3.977q-0.312-2.789-2.148-4.898t-4.516-2.813z"></path>
</symbol>
<symbol id="icon-box" viewBox="0 0 24 24">
<title>box</title>
<path class="path1" d="M1 5l11-5 11 5v14l-11 5-11-5v-14zM11 10.641l-8-3.633v10.703l8 3.641v-10.711zM21 17.711v-10.703l-8 3.633v10.711zM19.375 5.547l-7.375-3.352-7.375 3.352 7.375 3.352z"></path>
</symbol>
<symbol id="icon-reload" viewBox="0 0 24 24">
<title>reload</title>
<path class="path1" d="M11 2q1.945 0 3.766 0.734 1.867 0.758 3.305 2.195 0.008 0.008 2.93 2.867v-3.797q0-0.414 0.293-0.707t0.707-0.293 0.707 0.293 0.293 0.707v6q0 0.414-0.293 0.707t-0.707 0.293h-6q-0.414 0-0.707-0.293t-0.293-0.707 0.293-0.707 0.707-0.293h3.375q-2.172-2.109-2.719-2.656-1.164-1.164-2.648-1.758-1.43-0.586-3.008-0.586t-3.008 0.586q-1.492 0.594-2.648 1.758-1.156 1.156-1.758 2.648-0.586 1.43-0.586 3.008t0.586 3.008q0.602 1.492 1.758 2.648 1.156 1.164 2.648 1.758 1.43 0.586 3.008 0.586t3.008-0.586q1.484-0.594 2.648-1.758 1.297-1.297 1.891-2.992 0.133-0.391 0.508-0.566t0.766-0.043q0.391 0.141 0.57 0.516t0.039 0.766q-0.359 1.023-0.973 2t-1.387 1.734q-1.437 1.437-3.305 2.195-1.82 0.734-3.766 0.734t-3.766-0.734q-1.867-0.758-3.305-2.195t-2.195-3.305q-0.734-1.82-0.734-3.766t0.734-3.766q0.758-1.867 2.195-3.305t3.305-2.195q1.82-0.734 3.766-0.734z"></path>
</symbol>
<symbol id="icon-share" viewBox="0 0 24 24">
<title>share</title>
<path class="path1" d="M18 2q1.656 0 2.828 1.172t1.172 2.828-1.172 2.828-2.828 1.172q-0.883 0-1.668-0.363t-1.348-1.012l-5.070 2.539q0.086 0.414 0.086 0.836t-0.086 0.836l5.070 2.539q0.563-0.648 1.348-1.012t1.668-0.363q1.656 0 2.828 1.172t1.172 2.828-1.172 2.828-2.828 1.172-2.828-1.172-1.172-2.828q0-0.422 0.086-0.836l-5.070-2.539q-0.563 0.648-1.348 1.012t-1.668 0.363q-1.656 0-2.828-1.172t-1.172-2.828 1.172-2.828 2.828-1.172q0.883 0 1.668 0.363t1.348 1.012l5.070-2.539q-0.086-0.414-0.086-0.836 0-1.656 1.172-2.828t2.828-1.172zM6 10q-0.828 0-1.414 0.586t-0.586 1.414 0.586 1.414 1.414 0.586 1.414-0.586 0.586-1.414-0.586-1.414-1.414-0.586zM18 16q-0.828 0-1.414 0.586t-0.586 1.414 0.586 1.414 1.414 0.586 1.414-0.586 0.586-1.414-0.586-1.414-1.414-0.586zM18 4q-0.828 0-1.414 0.586t-0.586 1.414 0.586 1.414 1.414 0.586 1.414-0.586 0.586-1.414-0.586-1.414-1.414-0.586z"></path>
</symbol>
<symbol id="icon-marquee" viewBox="0 0 24 24">
<title>marquee</title>
<path class="path1" d="M18 1h2q1.242 0 2.121 0.879t0.879 2.121v2q0 0.414-0.293 0.707t-0.707 0.293-0.707-0.293-0.293-0.707v-2q0-0.414-0.293-0.707t-0.707-0.293h-2q-0.414 0-0.707-0.293t-0.293-0.707 0.293-0.707 0.707-0.293zM2 17q0.414 0 0.707 0.293t0.293 0.707v2q0 0.414 0.293 0.707t0.707 0.293h2q0.414 0 0.707 0.293t0.293 0.707-0.293 0.707-0.707 0.293h-2q-1.242 0-2.121-0.879t-0.879-2.121v-2q0-0.414 0.293-0.707t0.707-0.293zM2 9q0.414 0 0.707 0.293t0.293 0.707v4q0 0.414-0.293 0.707t-0.707 0.293-0.707-0.293-0.293-0.707v-4q0-0.414 0.293-0.707t0.707-0.293zM10 21h4q0.414 0 0.707 0.293t0.293 0.707-0.293 0.707-0.707 0.293h-4q-0.414 0-0.707-0.293t-0.293-0.707 0.293-0.707 0.707-0.293zM4 1h2q0.414 0 0.707 0.293t0.293 0.707-0.293 0.707-0.707 0.293h-2q-0.414 0-0.707 0.293t-0.293 0.707v2q0 0.414-0.293 0.707t-0.707 0.293-0.707-0.293-0.293-0.707v-2q0-1.242 0.879-2.121t2.121-0.879zM22 17q0.414 0 0.707 0.293t0.293 0.707v2q0 1.242-0.879 2.121t-2.121 0.879h-2q-0.414 0-0.707-0.293t-0.293-0.707 0.293-0.707 0.707-0.293h2q0.414 0 0.707-0.293t0.293-0.707v-2q0-0.414 0.293-0.707t0.707-0.293zM22 9q0.414 0 0.707 0.293t0.293 0.707v4q0 0.414-0.293 0.707t-0.707 0.293-0.707-0.293-0.293-0.707v-4q0-0.414 0.293-0.707t0.707-0.293zM10 1h4q0.414 0 0.707 0.293t0.293 0.707-0.293 0.707-0.707 0.293h-4q-0.414 0-0.707-0.293t-0.293-0.707 0.293-0.707 0.707-0.293z"></path>
</symbol>
<symbol id="icon-marquee-plus" viewBox="0 0 24 24">
<title>marquee-plus</title>
<path class="path1" d="M12 7q0.414 0 0.707 0.293t0.293 0.707v3h3q0.414 0 0.707 0.293t0.293 0.707-0.293 0.707-0.707 0.293h-3v3q0 0.414-0.293 0.707t-0.707 0.293-0.707-0.293-0.293-0.707v-3h-3q-0.414 0-0.707-0.293t-0.293-0.707 0.293-0.707 0.707-0.293h3v-3q0-0.414 0.293-0.707t0.707-0.293zM2 17q0.414 0 0.707 0.293t0.293 0.707v2q0 0.414 0.293 0.707t0.707 0.293h2q0.414 0 0.707 0.293t0.293 0.707-0.293 0.707-0.707 0.293h-2q-1.242 0-2.121-0.879t-0.879-2.121v-2q0-0.414 0.293-0.707t0.707-0.293zM2 9q0.414 0 0.707 0.293t0.293 0.707v4q0 0.414-0.293 0.707t-0.707 0.293-0.707-0.293-0.293-0.707v-4q0-0.414 0.293-0.707t0.707-0.293zM10 21h4q0.414 0 0.707 0.293t0.293 0.707-0.293 0.707-0.707 0.293h-4q-0.414 0-0.707-0.293t-0.293-0.707 0.293-0.707 0.707-0.293zM4 1h2q0.414 0 0.707 0.293t0.293 0.707-0.293 0.707-0.707 0.293h-2q-0.414 0-0.707 0.293t-0.293 0.707v2q0 0.414-0.293 0.707t-0.707 0.293-0.707-0.293-0.293-0.707v-2q0-1.242 0.879-2.121t2.121-0.879zM22 17q0.414 0 0.707 0.293t0.293 0.707v2q0 1.242-0.879 2.121t-2.121 0.879h-2q-0.414 0-0.707-0.293t-0.293-0.707 0.293-0.707 0.707-0.293h2q0.414 0 0.707-0.293t0.293-0.707v-2q0-0.414 0.293-0.707t0.707-0.293zM22 9q0.414 0 0.707 0.293t0.293 0.707v4q0 0.414-0.293 0.707t-0.707 0.293-0.707-0.293-0.293-0.707v-4q0-0.414 0.293-0.707t0.707-0.293zM10 1h4q0.414 0 0.707 0.293t0.293 0.707-0.293 0.707-0.707 0.293h-4q-0.414 0-0.707-0.293t-0.293-0.707 0.293-0.707 0.707-0.293zM18 1h2q1.242 0 2.121 0.879t0.879 2.121v2q0 0.414-0.293 0.707t-0.707 0.293-0.707-0.293-0.293-0.707v-2q0-0.414-0.293-0.707t-0.707-0.293h-2q-0.414 0-0.707-0.293t-0.293-0.707 0.293-0.707 0.707-0.293z"></path>
</symbol>
<symbol id="icon-marquee-minus" viewBox="0 0 24 24">
<title>marquee-minus</title>
<path class="path1" d="M18 1h2q1.242 0 2.121 0.879t0.879 2.121v2q0 0.414-0.293 0.707t-0.707 0.293-0.707-0.293-0.293-0.707v-2q0-0.414-0.293-0.707t-0.707-0.293h-2q-0.414 0-0.707-0.293t-0.293-0.707 0.293-0.707 0.707-0.293zM2 17q0.414 0 0.707 0.293t0.293 0.707v2q0 0.414 0.293 0.707t0.707 0.293h2q0.414 0 0.707 0.293t0.293 0.707-0.293 0.707-0.707 0.293h-2q-1.242 0-2.121-0.879t-0.879-2.121v-2q0-0.414 0.293-0.707t0.707-0.293zM2 9q0.414 0 0.707 0.293t0.293 0.707v4q0 0.414-0.293 0.707t-0.707 0.293-0.707-0.293-0.293-0.707v-4q0-0.414 0.293-0.707t0.707-0.293zM10 21h4q0.414 0 0.707 0.293t0.293 0.707-0.293 0.707-0.707 0.293h-4q-0.414 0-0.707-0.293t-0.293-0.707 0.293-0.707 0.707-0.293zM4 1h2q0.414 0 0.707 0.293t0.293 0.707-0.293 0.707-0.707 0.293h-2q-0.414 0-0.707 0.293t-0.293 0.707v2q0 0.414-0.293 0.707t-0.707 0.293-0.707-0.293-0.293-0.707v-2q0-1.242 0.879-2.121t2.121-0.879zM22 17q0.414 0 0.707 0.293t0.293 0.707v2q0 1.242-0.879 2.121t-2.121 0.879h-2q-0.414 0-0.707-0.293t-0.293-0.707 0.293-0.707 0.707-0.293h2q0.414 0 0.707-0.293t0.293-0.707v-2q0-0.414 0.293-0.707t0.707-0.293zM8 11h8q0.414 0 0.707 0.293t0.293 0.707-0.293 0.707-0.707 0.293h-8q-0.414 0-0.707-0.293t-0.293-0.707 0.293-0.707 0.707-0.293zM22 9q0.414 0 0.707 0.293t0.293 0.707v4q0 0.414-0.293 0.707t-0.707 0.293-0.707-0.293-0.293-0.707v-4q0-0.414 0.293-0.707t0.707-0.293zM10 1h4q0.414 0 0.707 0.293t0.293 0.707-0.293 0.707-0.707 0.293h-4q-0.414 0-0.707-0.293t-0.293-0.707 0.293-0.707 0.707-0.293z"></path>
</symbol>
<symbol id="icon-tag" viewBox="0 0 24 24">
<title>tag</title>
<path class="path1" d="M1 1h11.313l9.813 9.805q0.875 0.875 0.875 2.117 0 1.25-0.875 2.125l-7.078 7.078q-0.875 0.875-2.117 0.875-1.25 0-2.125-0.875l-9.805-9.813v-11.313zM20.711 12.219l-9.227-9.219h-8.484v8.484l9.219 9.227q0.297 0.289 0.711 0.289t0.703-0.289l7.078-7.078q0.289-0.289 0.289-0.703t-0.289-0.711zM8.5 6q1.039 0 1.77 0.73t0.73 1.77-0.73 1.77-1.77 0.73-1.77-0.73-0.73-1.77 0.73-1.77 1.77-0.73zM8.5 8q-0.203 0-0.352 0.148t-0.148 0.352 0.148 0.352 0.352 0.148 0.352-0.148 0.148-0.352-0.148-0.352-0.352-0.148z"></path>
</symbol>
<symbol id="icon-power" viewBox="0 0 24 24">
<title>power</title>
<path class="path1" d="M19.070 5.93q1.383 1.383 2.141 3.18 0.789 1.859 0.789 3.891t-0.789 3.891q-0.758 1.797-2.141 3.18t-3.18 2.141q-1.859 0.789-3.891 0.789t-3.891-0.789q-1.797-0.758-3.18-2.141t-2.141-3.18q-0.789-1.859-0.789-3.891t0.789-3.891q0.758-1.797 2.141-3.18 0.289-0.289 0.703-0.289t0.711 0.289 0.297 0.703-0.297 0.711q-1.102 1.102-1.719 2.539-0.625 1.5-0.625 3.117t0.625 3.117q0.617 1.437 1.719 2.539t2.539 1.719q1.5 0.625 3.117 0.625t3.117-0.625q1.437-0.617 2.539-1.719t1.719-2.539q0.625-1.5 0.625-3.117t-0.625-3.117q-0.617-1.437-1.719-2.539-0.297-0.297-0.297-0.711t0.297-0.703 0.711-0.289 0.703 0.289zM12 1q0.414 0 0.707 0.293t0.293 0.707v10q0 0.414-0.293 0.707t-0.707 0.293-0.707-0.293-0.293-0.707v-10q0-0.414 0.293-0.707t0.707-0.293z"></path>
</symbol>
<symbol id="icon-command" viewBox="0 0 24 24">
<title>command</title>
<path class="path1" d="M18 2q1.656 0 2.828 1.172t1.172 2.828-1.172 2.828-2.828 1.172h-2v4h2q1.656 0 2.828 1.172t1.172 2.828-1.172 2.828-2.828 1.172-2.828-1.172-1.172-2.828v-2h-4v2q0 1.656-1.172 2.828t-2.828 1.172-2.828-1.172-1.172-2.828 1.172-2.828 2.828-1.172h2v-4h-2q-1.656 0-2.828-1.172t-1.172-2.828 1.172-2.828 2.828-1.172 2.828 1.172 1.172 2.828v2h4v-2q0-1.656 1.172-2.828t2.828-1.172zM8 18v-2h-2q-0.828 0-1.414 0.586t-0.586 1.414 0.586 1.414 1.414 0.586 1.414-0.586 0.586-1.414zM6 4q-0.828 0-1.414 0.586t-0.586 1.414 0.586 1.414 1.414 0.586h2v-2q0-0.828-0.586-1.414t-1.414-0.586zM14 14v-4h-4v4h4zM18 16h-2v2q0 0.828 0.586 1.414t1.414 0.586 1.414-0.586 0.586-1.414-0.586-1.414-1.414-0.586zM18 4q-0.828 0-1.414 0.586t-0.586 1.414v2h2q0.828 0 1.414-0.586t0.586-1.414-0.586-1.414-1.414-0.586z"></path>
</symbol>
<symbol id="icon-alt" viewBox="0 0 24 24">
<title>alt</title>
<path class="path1" d="M3 4h5q0.57 0 0.867 0.5l7.711 13.5h4.422q0.414 0 0.707 0.293t0.293 0.707-0.293 0.707-0.707 0.293h-5q-0.57 0-0.867-0.5l-7.711-13.5h-4.422q-0.414 0-0.707-0.293t-0.293-0.707 0.293-0.707 0.707-0.293zM14 4h5q0.414 0 0.707 0.293t0.293 0.707-0.293 0.707-0.707 0.293h-5q-0.414 0-0.707-0.293t-0.293-0.707 0.293-0.707 0.707-0.293z"></path>
</symbol>
<symbol id="icon-esc" viewBox="0 0 24 24">
<title>esc</title>
<path class="path1" d="M13.102 1.055q2.023 0.203 3.84 1.117t3.191 2.422q1.352 1.484 2.102 3.367 0.766 1.945 0.766 4.039 0 2.242-0.867 4.281-0.805 1.93-2.352 3.5-1.57 1.547-3.5 2.352-2.039 0.867-4.281 0.867-2.094 0-4.039-0.766-1.883-0.75-3.367-2.102-1.508-1.375-2.422-3.191t-1.117-3.84q-0.039-0.445 0.254-0.773t0.746-0.328q0.383 0 0.668 0.258t0.324 0.641q0.164 1.664 0.91 3.148t1.988 2.609q1.211 1.117 2.75 1.719 1.594 0.625 3.305 0.625 1.836 0 3.5-0.703 1.578-0.664 2.867-1.93 1.266-1.289 1.93-2.867 0.703-1.664 0.703-3.5 0-1.711-0.625-3.305-0.602-1.539-1.719-2.75-1.125-1.242-2.609-1.988t-3.148-0.91q-0.383-0.039-0.641-0.324t-0.258-0.668q0-0.297 0.113-0.508t0.301-0.312 0.355-0.141 0.332-0.039zM2 1h6q0.414 0 0.707 0.293t0.293 0.707-0.293 0.707-0.707 0.293h-3.586l8.297 8.297q0.289 0.281 0.289 0.703 0 0.43-0.285 0.715t-0.715 0.285q-0.422 0-0.711-0.289l-8.289-8.297v3.586q0 0.414-0.293 0.707t-0.707 0.293-0.707-0.293-0.293-0.707v-6q0-0.414 0.293-0.707t0.707-0.293z"></path>
</symbol>
<symbol id="icon-bar-graph" viewBox="0 0 24 24">
<title>bar-graph</title>
<path class="path1" d="M20 1q1.242 0 2.121 0.879t0.879 2.121v16q0 1.242-0.879 2.121t-2.121 0.879-2.121-0.879-0.879-2.121v-16q0-1.242 0.879-2.121t2.121-0.879zM4 13q1.242 0 2.121 0.879t0.879 2.121v4q0 1.242-0.879 2.121t-2.121 0.879-2.121-0.879-0.879-2.121v-4q0-1.242 0.879-2.121t2.121-0.879zM4 15q-0.414 0-0.707 0.293t-0.293 0.707v4q0 0.414 0.293 0.707t0.707 0.293 0.707-0.293 0.293-0.707v-4q0-0.414-0.293-0.707t-0.707-0.293zM12 7q1.242 0 2.121 0.879t0.879 2.121v10q0 1.242-0.879 2.121t-2.121 0.879-2.121-0.879-0.879-2.121v-10q0-1.242 0.879-2.121t2.121-0.879zM12 9q-0.414 0-0.707 0.293t-0.293 0.707v10q0 0.414 0.293 0.707t0.707 0.293 0.707-0.293 0.293-0.707v-10q0-0.414-0.293-0.707t-0.707-0.293zM20 3q-0.414 0-0.707 0.293t-0.293 0.707v16q0 0.414 0.293 0.707t0.707 0.293 0.707-0.293 0.293-0.707v-16q0-0.414-0.293-0.707t-0.707-0.293z"></path>
</symbol>
<symbol id="icon-bar-graph-2" viewBox="0 0 24 24">
<title>bar-graph-2</title>
<path class="path1" d="M12 1q1.242 0 2.121 0.879t0.879 2.121v16q0 1.242-0.879 2.121t-2.121 0.879-2.121-0.879-0.879-2.121v-16q0-1.242 0.879-2.121t2.121-0.879zM4 13q1.242 0 2.121 0.879t0.879 2.121v4q0 1.242-0.879 2.121t-2.121 0.879-2.121-0.879-0.879-2.121v-4q0-1.242 0.879-2.121t2.121-0.879zM4 15q-0.414 0-0.707 0.293t-0.293 0.707v4q0 0.414 0.293 0.707t0.707 0.293 0.707-0.293 0.293-0.707v-4q0-0.414-0.293-0.707t-0.707-0.293zM12 3q-0.414 0-0.707 0.293t-0.293 0.707v16q0 0.414 0.293 0.707t0.707 0.293 0.707-0.293 0.293-0.707v-16q0-0.414-0.293-0.707t-0.707-0.293zM20 7q1.242 0 2.121 0.879t0.879 2.121v10q0 1.242-0.879 2.121t-2.121 0.879-2.121-0.879-0.879-2.121v-10q0-1.242 0.879-2.121t2.121-0.879zM20 9q-0.414 0-0.707 0.293t-0.293 0.707v10q0 0.414 0.293 0.707t0.707 0.293 0.707-0.293 0.293-0.707v-10q0-0.414-0.293-0.707t-0.707-0.293z"></path>
</symbol>
<symbol id="icon-pie-graph" viewBox="0 0 24 24">
<title>pie-graph</title>
<path class="path1" d="M12 1q2.242 0 4.277 0.871t3.508 2.344 2.344 3.508 0.871 4.277-0.871 4.277-2.344 3.508-3.508 2.344-4.277 0.871-4.277-0.871-3.508-2.344-2.344-3.508-0.871-4.277 0.871-4.277 2.344-3.508 3.508-2.344 4.277-0.871zM11 13v-9.945q-1.664 0.188-3.145 0.965t-2.547 1.957-1.688 2.75-0.621 3.273q0 1.828 0.715 3.496t1.918 2.871 2.871 1.918 3.496 0.715q1.703 0 3.273-0.621t2.75-1.688 1.957-2.547 0.965-3.145h-9.945zM13 3.055v7.945h7.945q-0.172-1.547-0.852-2.934t-1.727-2.434-2.434-1.727-2.934-0.852z"></path>
</symbol>
<symbol id="icon-star" viewBox="0 0 24 24">
<title>star</title>
<path class="path1" d="M9.297 9l2.703-8.32 2.703 8.32h8.75l-7.078 4.914 2.703 8.172-7.078-5.18-7.078 5.141 2.703-8.133-7.078-4.914h8.75zM13.25 11l-1.25-3.977-1.25 3.977h-3.883l3.125 2.070-1.227 3.695 3.242-2.344 3.227 2.367-1.227-3.695 3.117-2.094h-3.875z"></path>
</symbol>
<symbol id="icon-arrow-left" viewBox="0 0 24 24">
<title>arrow-left</title>
<path class="path1" d="M10 4q0.414 0 0.707 0.293t0.293 0.707q0 0.422-0.297 0.711l-5.289 5.289h15.586q0.414 0 0.707 0.293t0.293 0.707-0.293 0.707-0.707 0.293h-15.586l5.289 5.289q0.297 0.289 0.297 0.711 0 0.414-0.293 0.707t-0.707 0.293q-0.422 0-0.711-0.289l-7-7q-0.289-0.305-0.289-0.711t0.289-0.711l7-7q0.297-0.289 0.711-0.289z"></path>
</symbol>
<symbol id="icon-arrow-right" viewBox="0 0 24 24">
<title>arrow-right</title>
<path class="path1" d="M14 4q0.422 0 0.711 0.289l7 7q0.289 0.289 0.289 0.711t-0.289 0.711l-7 7q-0.289 0.289-0.711 0.289-0.43 0-0.715-0.285t-0.285-0.715q0-0.422 0.289-0.711l5.297-5.289h-15.586q-0.414 0-0.707-0.293t-0.293-0.707 0.293-0.707 0.707-0.293h15.586l-5.297-5.289q-0.289-0.289-0.289-0.711 0-0.43 0.285-0.715t0.715-0.285z"></path>
</symbol>
<symbol id="icon-arrow-up" viewBox="0 0 24 24">
<title>arrow-up</title>
<path class="path1" d="M12 2q0.422 0 0.711 0.289l7 7q0.289 0.289 0.289 0.711 0 0.43-0.285 0.715t-0.715 0.285q-0.422 0-0.711-0.289l-5.289-5.297v15.586q0 0.414-0.293 0.707t-0.707 0.293-0.707-0.293-0.293-0.707v-15.586l-5.289 5.297q-0.289 0.289-0.711 0.289-0.43 0-0.715-0.285t-0.285-0.715q0-0.422 0.289-0.711l7-7q0.289-0.289 0.711-0.289z"></path>
</symbol>
<symbol id="icon-arrow-down" viewBox="0 0 24 24">
<title>arrow-down</title>
<path class="path1" d="M12 2q0.414 0 0.707 0.293t0.293 0.707v15.586l5.289-5.297q0.289-0.289 0.711-0.289 0.43 0 0.715 0.285t0.285 0.715q0 0.422-0.289 0.711l-7 7q-0.289 0.289-0.711 0.289t-0.711-0.289l-7-7q-0.289-0.289-0.289-0.711 0-0.43 0.285-0.715t0.715-0.285q0.422 0 0.711 0.289l5.289 5.297v-15.586q0-0.414 0.293-0.707t0.707-0.293z"></path>
</symbol>
<symbol id="icon-volume" viewBox="0 0 24 24">
<title>volume</title>
<path class="path1" d="M5 8l5-5v18l-5-5h-2q-1.242 0-2.121-0.879t-0.879-2.121v-1.961q0-1.242 0.879-2.141t2.121-0.898h2zM8 16.172v-8.383l-2.172 2.211h-2.828q-0.406 0-0.703 0.309t-0.297 0.73v1.961q0 0.414 0.293 0.707t0.707 0.293h2.828zM14.531 8.664q0.289 0 0.543 0.164t0.379 0.445q0.547 1.32 0.547 2.727 0 1.43-0.547 2.711-0.117 0.281-0.371 0.449t-0.551 0.168q-0.367 0-0.684-0.277t-0.316-0.723q0-0.18 0.078-0.391 0.391-0.922 0.391-1.938 0-1.008-0.391-1.945-0.078-0.18-0.078-0.391 0-0.445 0.301-0.723t0.699-0.277zM17.586 5.875q0.563 0 0.859 0.492 0.773 1.289 1.148 2.664 0.406 1.469 0.406 2.969 0 1.492-0.406 2.977-0.383 1.391-1.148 2.664-0.289 0.484-0.859 0.484-0.391 0-0.695-0.281t-0.305-0.719q0-0.273 0.148-0.516 0.609-1.016 0.93-2.172 0.336-1.172 0.336-2.438 0-1.258-0.336-2.43-0.32-1.156-0.93-2.18-0.148-0.227-0.148-0.508 0-0.422 0.309-0.715t0.691-0.293zM20.578 3.133q0.539 0 0.828 0.438 1.273 1.867 1.934 4.016t0.66 4.414-0.66 4.414-1.934 4.016q-0.281 0.438-0.828 0.438-0.406 0-0.699-0.281t-0.293-0.719q0-0.312 0.172-0.563 2.242-3.289 2.242-7.305 0-1.969-0.57-3.828t-1.672-3.477q-0.172-0.25-0.172-0.563 0-0.438 0.293-0.719t0.699-0.281z"></path>
</symbol>
<symbol id="icon-mute" viewBox="0 0 24 24">
<title>mute</title>
<path class="path1" d="M6 8l5-5v18l-5-5h-2q-1.242 0-2.121-0.879t-0.879-2.121v-1.961q0-1.242 0.879-2.141t2.121-0.898h2zM9 16.172v-8.383l-2.172 2.211h-2.828q-0.406 0-0.703 0.309t-0.297 0.73v1.961q0 0.414 0.293 0.707t0.707 0.293h2.828zM21 8q0.43 0 0.715 0.285t0.285 0.715q0 0.422-0.289 0.711l-2.297 2.289 2.297 2.289q0.289 0.289 0.289 0.711 0 0.43-0.285 0.715t-0.715 0.285q-0.422 0-0.711-0.289l-2.289-2.297-2.289 2.297q-0.289 0.289-0.711 0.289-0.43 0-0.715-0.285t-0.285-0.715q0-0.422 0.289-0.711l2.297-2.289-2.297-2.289q-0.289-0.289-0.289-0.711 0-0.43 0.285-0.715t0.715-0.285q0.422 0 0.711 0.289l2.289 2.297 2.289-2.297q0.289-0.289 0.711-0.289z"></path>
</symbol>
<symbol id="icon-content-right" viewBox="0 0 24 24">
<title>content-right</title>
<path class="path1" d="M16 1h4q1.242 0 2.121 0.879t0.879 2.121v16q0 1.242-0.879 2.121t-2.121 0.879h-4q-1.242 0-2.121-0.879t-0.879-2.121v-16q0-1.242 0.879-2.121t2.121-0.879zM4 13h4q1.242 0 2.121 0.879t0.879 2.121v4q0 1.242-0.879 2.121t-2.121 0.879h-4q-1.242 0-2.121-0.879t-0.879-2.121v-4q0-1.242 0.879-2.121t2.121-0.879zM8 15h-4q-0.414 0-0.707 0.293t-0.293 0.707v4q0 0.414 0.293 0.707t0.707 0.293h4q0.414 0 0.707-0.293t0.293-0.707v-4q0-0.414-0.293-0.707t-0.707-0.293zM4 1h4q1.242 0 2.121 0.879t0.879 2.121v4q0 1.242-0.879 2.121t-2.121 0.879h-4q-1.242 0-2.121-0.879t-0.879-2.121v-4q0-1.242 0.879-2.121t2.121-0.879zM8 3h-4q-0.414 0-0.707 0.293t-0.293 0.707v4q0 0.414 0.293 0.707t0.707 0.293h4q0.414 0 0.707-0.293t0.293-0.707v-4q0-0.414-0.293-0.707t-0.707-0.293zM20 3h-4q-0.414 0-0.707 0.293t-0.293 0.707v16q0 0.414 0.293 0.707t0.707 0.293h4q0.414 0 0.707-0.293t0.293-0.707v-16q0-0.414-0.293-0.707t-0.707-0.293z"></path>
</symbol>
<symbol id="icon-content-left" viewBox="0 0 24 24">
<title>content-left</title>
<path class="path1" d="M4 1h4q1.242 0 2.121 0.879t0.879 2.121v16q0 1.242-0.879 2.121t-2.121 0.879h-4q-1.242 0-2.121-0.879t-0.879-2.121v-16q0-1.242 0.879-2.121t2.121-0.879zM8 3h-4q-0.414 0-0.707 0.293t-0.293 0.707v16q0 0.414 0.293 0.707t0.707 0.293h4q0.414 0 0.707-0.293t0.293-0.707v-16q0-0.414-0.293-0.707t-0.707-0.293zM16 13h4q1.242 0 2.121 0.879t0.879 2.121v4q0 1.242-0.879 2.121t-2.121 0.879h-4q-1.242 0-2.121-0.879t-0.879-2.121v-4q0-1.242 0.879-2.121t2.121-0.879zM20 15h-4q-0.414 0-0.707 0.293t-0.293 0.707v4q0 0.414 0.293 0.707t0.707 0.293h4q0.414 0 0.707-0.293t0.293-0.707v-4q0-0.414-0.293-0.707t-0.707-0.293zM16 1h4q1.242 0 2.121 0.879t0.879 2.121v4q0 1.242-0.879 2.121t-2.121 0.879h-4q-1.242 0-2.121-0.879t-0.879-2.121v-4q0-1.242 0.879-2.121t2.121-0.879zM20 3h-4q-0.414 0-0.707 0.293t-0.293 0.707v4q0 0.414 0.293 0.707t0.707 0.293h4q0.414 0 0.707-0.293t0.293-0.707v-4q0-0.414-0.293-0.707t-0.707-0.293z"></path>
</symbol>
<symbol id="icon-grid" viewBox="0 0 24 24">
<title>grid</title>
<path class="path1" d="M16 1h4q1.242 0 2.121 0.879t0.879 2.121v4q0 1.242-0.879 2.121t-2.121 0.879h-4q-1.242 0-2.121-0.879t-0.879-2.121v-4q0-1.242 0.879-2.121t2.121-0.879zM4 13h4q1.242 0 2.121 0.879t0.879 2.121v4q0 1.242-0.879 2.121t-2.121 0.879h-4q-1.242 0-2.121-0.879t-0.879-2.121v-4q0-1.242 0.879-2.121t2.121-0.879zM8 15h-4q-0.414 0-0.707 0.293t-0.293 0.707v4q0 0.414 0.293 0.707t0.707 0.293h4q0.414 0 0.707-0.293t0.293-0.707v-4q0-0.414-0.293-0.707t-0.707-0.293zM4 1h4q1.242 0 2.121 0.879t0.879 2.121v4q0 1.242-0.879 2.121t-2.121 0.879h-4q-1.242 0-2.121-0.879t-0.879-2.121v-4q0-1.242 0.879-2.121t2.121-0.879zM8 3h-4q-0.414 0-0.707 0.293t-0.293 0.707v4q0 0.414 0.293 0.707t0.707 0.293h4q0.414 0 0.707-0.293t0.293-0.707v-4q0-0.414-0.293-0.707t-0.707-0.293zM16 13h4q1.242 0 2.121 0.879t0.879 2.121v4q0 1.242-0.879 2.121t-2.121 0.879h-4q-1.242 0-2.121-0.879t-0.879-2.121v-4q0-1.242 0.879-2.121t2.121-0.879zM20 15h-4q-0.414 0-0.707 0.293t-0.293 0.707v4q0 0.414 0.293 0.707t0.707 0.293h4q0.414 0 0.707-0.293t0.293-0.707v-4q0-0.414-0.293-0.707t-0.707-0.293zM20 3h-4q-0.414 0-0.707 0.293t-0.293 0.707v4q0 0.414 0.293 0.707t0.707 0.293h4q0.414 0 0.707-0.293t0.293-0.707v-4q0-0.414-0.293-0.707t-0.707-0.293z"></path>
</symbol>
<symbol id="icon-grid-2" viewBox="0 0 24 24">
<title>grid-2</title>
<path class="path1" d="M4 1h16q1.242 0 2.121 0.879t0.879 2.121v16q0 1.242-0.879 2.121t-2.121 0.879h-16q-1.242 0-2.121-0.879t-0.879-2.121v-16q0-1.242 0.879-2.121t2.121-0.879zM11 21v-8h-8v7q0 0.414 0.293 0.707t0.707 0.293h7zM11 11v-8h-7q-0.414 0-0.707 0.293t-0.293 0.707v7h8zM21 20v-7h-8v8h7q0.414 0 0.707-0.293t0.293-0.707zM20 3h-7v8h8v-7q0-0.414-0.293-0.707t-0.707-0.293z"></path>
</symbol>
<symbol id="icon-columns" viewBox="0 0 24 24">
<title>columns</title>
<path class="path1" d="M3 3h18q1.242 0 2.121 0.879t0.879 2.121v12q0 1.242-0.879 2.121t-2.121 0.879h-18q-1.242 0-2.121-0.879t-0.879-2.121v-12q0-1.242 0.879-2.121t2.121-0.879zM7 19v-14h-4q-0.414 0-0.707 0.293t-0.293 0.707v12q0 0.414 0.293 0.707t0.707 0.293h4zM15 19v-14h-6v14h6zM21 5h-4v14h4q0.414 0 0.707-0.293t0.293-0.707v-12q0-0.414-0.293-0.707t-0.707-0.293z"></path>
</symbol>
<symbol id="icon-loader" viewBox="0 0 24 24">
<title>loader</title>
<path class="path1" d="M16.25 15.242q0.406 0 0.703 0.297l2.828 2.828q0.297 0.297 0.297 0.711 0 0.406-0.297 0.703t-0.703 0.297q-0.414 0-0.711-0.297l-2.828-2.828q-0.289-0.289-0.289-0.711 0-0.414 0.293-0.707t0.707-0.293zM7.758 15.242q0.414 0 0.707 0.293t0.293 0.707-0.297 0.711l-2.828 2.828q-0.297 0.297-0.703 0.297-0.414 0-0.707-0.293t-0.293-0.707q0-0.422 0.289-0.711l2.828-2.828q0.297-0.297 0.711-0.297zM2 11h4q0.414 0 0.707 0.293t0.293 0.707-0.293 0.707-0.707 0.293h-4q-0.414 0-0.707-0.293t-0.293-0.707 0.293-0.707 0.707-0.293zM12 17q0.414 0 0.707 0.293t0.293 0.707v4q0 0.414-0.293 0.707t-0.707 0.293-0.707-0.293-0.293-0.707v-4q0-0.414 0.293-0.707t0.707-0.293zM4.93 3.922q0.406 0 0.703 0.297l2.828 2.828q0.297 0.297 0.297 0.703 0 0.414-0.293 0.707t-0.707 0.293q-0.422 0-0.711-0.289l-2.828-2.828q-0.289-0.289-0.289-0.711 0-0.414 0.293-0.707t0.707-0.293zM18 11h4q0.414 0 0.707 0.293t0.293 0.707-0.293 0.707-0.707 0.293h-4q-0.414 0-0.707-0.293t-0.293-0.707 0.293-0.707 0.707-0.293zM12 1q0.414 0 0.707 0.293t0.293 0.707v4q0 0.414-0.293 0.707t-0.707 0.293-0.707-0.293-0.293-0.707v-4q0-0.414 0.293-0.707t0.707-0.293zM19.078 3.922q0.406 0 0.703 0.297t0.297 0.703q0 0.414-0.297 0.711l-2.828 2.828q-0.289 0.289-0.703 0.289-0.43 0-0.715-0.285t-0.285-0.715q0-0.414 0.289-0.703l2.828-2.828q0.297-0.297 0.711-0.297z"></path>
</symbol>
<symbol id="icon-bag" viewBox="0 0 24 24">
<title>bag</title>
<path class="path1" d="M12 0q1.016 0 1.941 0.398t1.594 1.066 1.066 1.594 0.398 1.941v1h4v15q0 1.242-0.879 2.121t-2.121 0.879h-12q-1.242 0-2.121-0.879t-0.879-2.121v-15h4v-1q0-1.016 0.398-1.941t1.066-1.594 1.594-1.066 1.941-0.398zM19 21v-13h-14v13q0 0.414 0.293 0.707t0.707 0.293h12q0.414 0 0.707-0.293t0.293-0.707zM12 2q-1.242 0-2.121 0.879t-0.879 2.121v1h6v-1q0-1.242-0.879-2.121t-2.121-0.879z"></path>
</symbol>
<symbol id="icon-ban" viewBox="0 0 24 24">
<title>ban</title>
<path class="path1" d="M12 1q2.242 0 4.277 0.871t3.508 2.344 2.344 3.508 0.871 4.277-0.871 4.277-2.344 3.508-3.508 2.344-4.277 0.871-4.277-0.871-3.508-2.344-2.344-3.508-0.871-4.277 0.871-4.277 2.344-3.508 3.508-2.344 4.277-0.871zM17.617 19.031l-12.648-12.648q-0.938 1.18-1.453 2.617t-0.516 3q0 1.828 0.715 3.496t1.918 2.871 2.871 1.918 3.496 0.715q1.57 0 3.008-0.512t2.609-1.457zM12 3q-1.57 0-3.008 0.512t-2.609 1.457l12.648 12.648q0.945-1.172 1.457-2.609t0.512-3.008q0-1.828-0.715-3.496t-1.918-2.871-2.871-1.918-3.496-0.715z"></path>
</symbol>
<symbol id="icon-flag" viewBox="0 0 24 24">
<title>flag</title>
<path class="path1" d="M7 1q0.828 0 1.781 0.207t1.836 0.5l1.766 0.586t1.836 0.5 1.781 0.207q0.844 0 1.664-0.102t1.398-0.25 1.035-0.297 0.684-0.25l0.219-0.102v14q-0.078 0.039-0.234 0.105t-0.66 0.242-1.051 0.305-1.379 0.238-1.676 0.109q-0.828 0-1.781-0.207t-1.836-0.5l-1.766-0.586t-1.836-0.5-1.781-0.207q-1.492 0-3 0.336v6.664q0 0.414-0.293 0.707t-0.707 0.293-0.707-0.293-0.293-0.707v-20q0.078-0.039 0.234-0.105t0.66-0.242 1.051-0.305 1.379-0.238 1.676-0.109zM7 3q-1.531 0-3 0.398v9.898q1.5-0.297 3-0.297 1.109 0 2.219 0.254t2.523 0.723q0.18 0.063 0.676 0.23t0.727 0.242 0.676 0.203 0.746 0.188 0.691 0.109 0.742 0.051q1.531 0 3-0.398v-9.898q-1.5 0.297-3 0.297-1.109 0-2.219-0.254t-2.523-0.723q-0.18-0.063-0.676-0.23t-0.727-0.242-0.676-0.203-0.746-0.188-0.691-0.109-0.742-0.051z"></path>
</symbol>
<symbol id="icon-trash" viewBox="0 0 24 24">
<title>trash</title>
<path class="path1" d="M10 1h4q1.242 0 2.121 0.879t0.879 2.121v1h4q0.414 0 0.707 0.293t0.293 0.707-0.293 0.707-0.707 0.293h-1v12q0 1.242-0.879 2.121t-2.121 0.879h-10q-1.242 0-2.121-0.879t-0.879-2.121v-12h-1q-0.414 0-0.707-0.293t-0.293-0.707 0.293-0.707 0.707-0.293h4v-1q0-1.242 0.879-2.121t2.121-0.879zM18 19v-12h-12v12q0 0.414 0.293 0.707t0.707 0.293h10q0.414 0 0.707-0.293t0.293-0.707zM14 3h-4q-0.414 0-0.707 0.293t-0.293 0.707v1h6v-1q0-0.414-0.293-0.707t-0.707-0.293z"></path>
</symbol>
<symbol id="icon-expand" viewBox="0 0 24 24">
<title>expand</title>
<path class="path1" d="M17 1h3q1.242 0 2.121 0.879t0.879 2.121v3q0 0.414-0.293 0.707t-0.707 0.293-0.707-0.293-0.293-0.707v-3q0-0.414-0.293-0.707t-0.707-0.293h-3q-0.414 0-0.707-0.293t-0.293-0.707 0.293-0.707 0.707-0.293zM2 16q0.414 0 0.707 0.293t0.293 0.707v3q0 0.414 0.293 0.707t0.707 0.293h3q0.414 0 0.707 0.293t0.293 0.707-0.293 0.707-0.707 0.293h-3q-1.242 0-2.121-0.879t-0.879-2.121v-3q0-0.414 0.293-0.707t0.707-0.293zM4 1h3q0.414 0 0.707 0.293t0.293 0.707-0.293 0.707-0.707 0.293h-3q-0.414 0-0.707 0.293t-0.293 0.707v3q0 0.414-0.293 0.707t-0.707 0.293-0.707-0.293-0.293-0.707v-3q0-1.242 0.879-2.121t2.121-0.879zM22 16q0.414 0 0.707 0.293t0.293 0.707v3q0 1.242-0.879 2.121t-2.121 0.879h-3q-0.414 0-0.707-0.293t-0.293-0.707 0.293-0.707 0.707-0.293h3q0.414 0 0.707-0.293t0.293-0.707v-3q0-0.414 0.293-0.707t0.707-0.293z"></path>
</symbol>
<symbol id="icon-contract" viewBox="0 0 24 24">
<title>contract</title>
<path class="path1" d="M17 1q0.414 0 0.707 0.293t0.293 0.707v3q0 0.414 0.293 0.707t0.707 0.293h3q0.414 0 0.707 0.293t0.293 0.707-0.293 0.707-0.707 0.293h-3q-1.242 0-2.121-0.879t-0.879-2.121v-3q0-0.414 0.293-0.707t0.707-0.293zM2 16h3q1.242 0 2.121 0.879t0.879 2.121v3q0 0.414-0.293 0.707t-0.707 0.293-0.707-0.293-0.293-0.707v-3q0-0.414-0.293-0.707t-0.707-0.293h-3q-0.414 0-0.707-0.293t-0.293-0.707 0.293-0.707 0.707-0.293zM7 1q0.414 0 0.707 0.293t0.293 0.707v3q0 1.242-0.879 2.121t-2.121 0.879h-3q-0.414 0-0.707-0.293t-0.293-0.707 0.293-0.707 0.707-0.293h3q0.414 0 0.707-0.293t0.293-0.707v-3q0-0.414 0.293-0.707t0.707-0.293zM19 16h3q0.414 0 0.707 0.293t0.293 0.707-0.293 0.707-0.707 0.293h-3q-0.414 0-0.707 0.293t-0.293 0.707v3q0 0.414-0.293 0.707t-0.707 0.293-0.707-0.293-0.293-0.707v-3q0-1.242 0.879-2.121t2.121-0.879z"></path>
</symbol>
<symbol id="icon-maximize" viewBox="0 0 24 24">
<title>maximize</title>
<path class="path1" d="M14 12.992q0.414 0 0.711 0.297l6.289 6.289v-4.586q0-0.414 0.293-0.707t0.707-0.293 0.707 0.293 0.293 0.707v7q0 0.414-0.297 0.711t-0.711 0.297h-7q-0.414 0-0.707-0.293t-0.293-0.707 0.293-0.707 0.707-0.293h4.586l-6.289-6.289q-0.289-0.305-0.289-0.711 0-0.414 0.293-0.711t0.707-0.297zM2 1h7q0.414 0 0.707 0.293t0.293 0.707-0.293 0.707-0.707 0.293h-4.586l6.289 6.281q0.297 0.297 0.297 0.711t-0.297 0.707-0.711 0.293q-0.398 0-0.711-0.289l-6.281-6.289v4.586q0 0.414-0.293 0.707t-0.707 0.293-0.707-0.293-0.293-0.707v-7q0-0.414 0.293-0.707t0.707-0.293z"></path>
</symbol>
<symbol id="icon-minimize" viewBox="0 0 24 24">
<title>minimize</title>
<path class="path1" d="M2 1q0.422 0 0.711 0.289l6.289 6.289v-4.586q0-0.414 0.293-0.707t0.707-0.293 0.707 0.293 0.293 0.707v7q0 0.414-0.297 0.711t-0.711 0.297h-7q-0.414 0-0.707-0.293t-0.293-0.707 0.293-0.707 0.707-0.293h4.586l-6.289-6.289q-0.289-0.289-0.289-0.711 0-0.43 0.285-0.715t0.715-0.285zM14.008 13h7q0.414 0 0.707 0.293t0.293 0.707-0.293 0.707-0.707 0.293h-4.586l6.281 6.289q0.297 0.297 0.297 0.711t-0.293 0.707-0.707 0.293q-0.422 0-0.711-0.289l-6.289-6.289v4.586q0 0.414-0.293 0.707t-0.707 0.293-0.707-0.293-0.293-0.707v-7q0-0.414 0.297-0.711t0.711-0.297z"></path>
</symbol>
<symbol id="icon-plus" viewBox="0 0 24 24">
<title>plus</title>
<path class="path1" d="M12 2q0.414 0 0.707 0.293t0.293 0.707v8h8q0.414 0 0.707 0.293t0.293 0.707-0.293 0.707-0.707 0.293h-8v8q0 0.414-0.293 0.707t-0.707 0.293-0.707-0.293-0.293-0.707v-8h-8q-0.414 0-0.707-0.293t-0.293-0.707 0.293-0.707 0.707-0.293h8v-8q0-0.414 0.293-0.707t0.707-0.293z"></path>
</symbol>
<symbol id="icon-minus" viewBox="0 0 24 24">
<title>minus</title>
<path class="path1" d="M3 11h18q0.414 0 0.707 0.293t0.293 0.707-0.293 0.707-0.707 0.293h-18q-0.414 0-0.707-0.293t-0.293-0.707 0.293-0.707 0.707-0.293z"></path>
</symbol>
<symbol id="icon-check" viewBox="0 0 24 24">
<title>check</title>
<path class="path1" d="M21 5q0.43 0 0.715 0.285t0.285 0.715q0 0.422-0.289 0.711l-12 12q-0.289 0.289-0.711 0.289t-0.711-0.289l-6-6q-0.289-0.289-0.289-0.711 0-0.43 0.285-0.715t0.715-0.285q0.422 0 0.711 0.289l5.289 5.297 11.289-11.297q0.289-0.289 0.711-0.289z"></path>
</symbol>
<symbol id="icon-cross" viewBox="0 0 24 24">
<title>cross</title>
<path class="path1" d="M19 4q0.43 0 0.715 0.285t0.285 0.715q0 0.422-0.289 0.711l-6.297 6.289 6.297 6.289q0.289 0.289 0.289 0.711 0 0.43-0.285 0.715t-0.715 0.285q-0.422 0-0.711-0.289l-6.289-6.297-6.289 6.297q-0.289 0.289-0.711 0.289-0.43 0-0.715-0.285t-0.285-0.715q0-0.422 0.289-0.711l6.297-6.289-6.297-6.289q-0.289-0.289-0.289-0.711 0-0.43 0.285-0.715t0.715-0.285q0.422 0 0.711 0.289l6.289 6.297 6.289-6.297q0.289-0.289 0.711-0.289z"></path>
</symbol>
<symbol id="icon-move" viewBox="0 0 24 24">
<title>move</title>
<path class="path1" d="M12 0q0.422 0 0.711 0.289l3.531 3.539q0.297 0.297 0.297 0.711t-0.293 0.707-0.707 0.293-0.711-0.297l-1.828-1.828v7.586h7.586l-1.828-1.828q-0.297-0.297-0.297-0.711t0.293-0.707 0.707-0.293 0.711 0.297l3.539 3.531q0.289 0.289 0.289 0.711t-0.289 0.703l-3.539 3.539q-0.297 0.297-0.711 0.297t-0.707-0.293-0.293-0.707 0.297-0.711l1.828-1.828h-7.586v7.586l1.828-1.828q0.297-0.297 0.711-0.297t0.707 0.293 0.293 0.707-0.297 0.711l-3.531 3.539q-0.289 0.289-0.711 0.289-0.414 0-0.703-0.289l-3.539-3.539q-0.297-0.297-0.297-0.711t0.293-0.707 0.707-0.293 0.711 0.297l1.828 1.828v-7.586h-7.586l1.828 1.828q0.297 0.297 0.297 0.711t-0.293 0.707-0.707 0.293-0.711-0.297l-3.539-3.531q-0.289-0.289-0.289-0.711t0.289-0.711l3.539-3.531q0.297-0.297 0.711-0.297t0.707 0.293 0.293 0.707-0.297 0.711l-1.828 1.828h7.586v-7.586l-1.828 1.828q-0.297 0.297-0.711 0.297t-0.707-0.293-0.293-0.707 0.297-0.711l3.531-3.539q0.289-0.289 0.711-0.289z"></path>
</symbol>
<symbol id="icon-delete" viewBox="0 0 24 24">
<title>delete</title>
<path class="path1" d="M8 3h13q1.242 0 2.121 0.879t0.879 2.121v12q0 1.242-0.879 2.121t-2.121 0.879h-13l-8-9zM21 5h-12.102l-6.219 7 6.219 7h12.102q0.414 0 0.707-0.293t0.293-0.707v-12q0-0.414-0.293-0.707t-0.707-0.293zM19 9q0 0.422-0.289 0.711l-2.297 2.289 2.297 2.289q0.289 0.289 0.289 0.711 0 0.43-0.285 0.715t-0.715 0.285q-0.422 0-0.711-0.289l-2.289-2.297-2.289 2.297q-0.289 0.289-0.711 0.289-0.414 0-0.707-0.293t-0.293-0.707q0-0.406 0.289-0.711l2.297-2.289-2.297-2.289q-0.289-0.305-0.289-0.711 0-0.414 0.293-0.707t0.707-0.293q0.422 0 0.711 0.289l2.289 2.297 2.289-2.297q0.289-0.289 0.711-0.289 0.43 0 0.715 0.285t0.285 0.715z"></path>
</symbol>
<symbol id="icon-menu" viewBox="0 0 24 24">
<title>menu</title>
<path class="path1" d="M3 5h18q0.414 0 0.707 0.293t0.293 0.707-0.293 0.707-0.707 0.293h-18q-0.414 0-0.707-0.293t-0.293-0.707 0.293-0.707 0.707-0.293zM3 17h18q0.414 0 0.707 0.293t0.293 0.707-0.293 0.707-0.707 0.293h-18q-0.414 0-0.707-0.293t-0.293-0.707 0.293-0.707 0.707-0.293zM3 11h18q0.414 0 0.707 0.293t0.293 0.707-0.293 0.707-0.707 0.293h-18q-0.414 0-0.707-0.293t-0.293-0.707 0.293-0.707 0.707-0.293z"></path>
</symbol>
<symbol id="icon-archive" viewBox="0 0 24 24">
<title>archive</title>
<path class="path1" d="M6 3h12l6 6v9q0 1.242-0.879 2.121t-2.121 0.879h-18q-1.242 0-2.121-0.879t-0.879-2.121v-9zM22 18v-7h-4.391q-0.664 1.734-2.215 2.867t-3.395 1.133q-1.227 0-2.383-0.523t-2.016-1.434-1.289-2.043h-4.313v7q0 0.406 0.289 0.703t0.711 0.297h18q0.414 0 0.707-0.293t0.293-0.707zM21.172 9l-3.961-4h-10.383l-4 4h5.172q0 0.992 0.531 1.914t1.465 1.504 2.004 0.582 2.004-0.582 1.465-1.504 0.531-1.914h5.172z"></path>
</symbol>
<symbol id="icon-inbox" viewBox="0 0 24 24">
<title>inbox</title>
<path class="path1" d="M12 1q0.414 0 0.707 0.293t0.293 0.707v11.586l3.289-3.297q0.289-0.289 0.711-0.289 0.43 0 0.715 0.285t0.285 0.715q0 0.422-0.289 0.711l-5 5q-0.289 0.289-0.711 0.289t-0.711-0.289l-5-5q-0.289-0.305-0.289-0.711 0-0.414 0.293-0.707t0.707-0.293q0.422 0 0.711 0.289l3.289 3.297v-11.586q0-0.414 0.293-0.707t0.707-0.293zM22 15q0.414 0 0.707 0.293t0.293 0.707v4q0 1.25-0.867 2.117-0.883 0.883-2.109 0.883h-16.023q-1.227 0-2.125-0.875-0.875-0.898-0.875-2.125v-4q0-0.414 0.293-0.707t0.707-0.293 0.707 0.293 0.293 0.707v4q0 0.414 0.293 0.707t0.707 0.293h16.023q0.406 0 0.691-0.293t0.285-0.707v-4q0-0.414 0.293-0.707t0.707-0.293z"></path>
</symbol>
<symbol id="icon-outbox" viewBox="0 0 24 24">
<title>outbox</title>
<path class="path1" d="M12 1.047q0.422 0 0.711 0.289l5 5q0.289 0.289 0.289 0.711 0 0.43-0.285 0.715t-0.715 0.285q-0.422 0-0.711-0.289l-3.289-3.297v11.586q0 0.414-0.293 0.707t-0.707 0.293-0.707-0.293-0.293-0.707v-11.586l-3.289 3.297q-0.305 0.289-0.711 0.289-0.414 0-0.707-0.293t-0.293-0.707q0-0.406 0.289-0.711l5-5q0.289-0.289 0.711-0.289zM22 15.047q0.414 0 0.707 0.293t0.293 0.707v4q0 1.25-0.867 2.117-0.883 0.883-2.109 0.883h-16.023q-1.227 0-2.125-0.875-0.875-0.898-0.875-2.125v-4q0-0.414 0.293-0.707t0.707-0.293 0.707 0.293 0.293 0.707v4q0 0.414 0.293 0.707t0.707 0.293h16.023q0.406 0 0.691-0.293t0.285-0.707v-4q0-0.414 0.293-0.707t0.707-0.293z"></path>
</symbol>
<symbol id="icon-file" viewBox="0 0 24 24">
<title>file</title>
<path class="path1" d="M5 0h10l7 7v14q0 1.242-0.879 2.121t-2.121 0.879h-14q-1.242 0-2.121-0.879t-0.879-2.121v-18q0-1.242 0.879-2.121t2.121-0.879zM13 9v-7h-8q-0.422 0-0.711 0.289t-0.289 0.711v18q0 0.422 0.289 0.711t0.711 0.289h14q0.422 0 0.711-0.289t0.289-0.711v-12h-7zM19.172 7l-4.172-4.172v4.172h4.172z"></path>
</symbol>
<symbol id="icon-file-add" viewBox="0 0 24 24">
<title>file-add</title>
<path class="path1" d="M5 0h10l7 7v14q0 1.242-0.879 2.121t-2.121 0.879h-14q-1.242 0-2.121-0.879t-0.879-2.121v-18q0-1.242 0.879-2.121t2.121-0.879zM12 11q0.414 0 0.707 0.293t0.293 0.707v2h2q0.414 0 0.707 0.293t0.293 0.707-0.293 0.707-0.707 0.293h-2v2q0 0.414-0.293 0.707t-0.707 0.293-0.707-0.293-0.293-0.707v-2h-2q-0.414 0-0.707-0.293t-0.293-0.707 0.293-0.707 0.707-0.293h2v-2q0-0.414 0.293-0.707t0.707-0.293zM13 9v-7h-8q-0.422 0-0.711 0.289t-0.289 0.711v18q0 0.422 0.289 0.711t0.711 0.289h14q0.422 0 0.711-0.289t0.289-0.711v-12h-7zM19.172 7l-4.172-4.172v4.172h4.172z"></path>
</symbol>
<symbol id="icon-file-subtract" viewBox="0 0 24 24">
<title>file-subtract</title>
<path class="path1" d="M5 0h10l7 7v14q0 1.242-0.879 2.121t-2.121 0.879h-14q-1.242 0-2.121-0.879t-0.879-2.121v-18q0-1.242 0.879-2.121t2.121-0.879zM9 14h6q0.414 0 0.707 0.293t0.293 0.707-0.293 0.707-0.707 0.293h-6q-0.414 0-0.707-0.293t-0.293-0.707 0.293-0.707 0.707-0.293zM13 9v-7h-8q-0.422 0-0.711 0.289t-0.289 0.711v18q0 0.422 0.289 0.711t0.711 0.289h14q0.422 0 0.711-0.289t0.289-0.711v-12h-7zM19.172 7l-4.172-4.172v4.172h4.172z"></path>
</symbol>
<symbol id="icon-help" viewBox="0 0 24 24">
<title>help</title>
<path class="path1" d="M12 1q2.156 0 4.18 0.82t3.602 2.398 2.398 3.602 0.82 4.18-0.82 4.18-2.398 3.602-3.602 2.398-4.18 0.82-4.18-0.82-3.602-2.398-2.398-3.602-0.82-4.18 0.82-4.18 2.398-3.602 3.602-2.398 4.18-0.82zM7.828 9.242l-2.859-2.859q-0.969 1.211-1.469 2.656t-0.5 2.961 0.5 2.961 1.469 2.656l2.859-2.859q-0.828-1.25-0.828-2.758t0.828-2.758zM17.617 19.031l-2.859-2.859q-1.25 0.828-2.758 0.828t-2.758-0.828l-2.859 2.859q1.211 0.969 2.656 1.469t2.961 0.5 2.961-0.5 2.656-1.469zM12 9q-1.242 0-2.121 0.879t-0.879 2.121 0.879 2.121 2.121 0.879 2.121-0.879 0.879-2.121-0.879-2.121-2.121-0.879zM12 3q-1.516 0-2.961 0.5t-2.656 1.469l2.859 2.859q1.25-0.828 2.758-0.828t2.758 0.828l2.859-2.859q-1.211-0.969-2.656-1.469t-2.961-0.5zM19.031 6.383l-2.859 2.859q0.828 1.25 0.828 2.758t-0.828 2.758l2.859 2.859q0.969-1.211 1.469-2.656t0.5-2.961-0.5-2.961-1.469-2.656z"></path>
</symbol>
<symbol id="icon-open" viewBox="0 0 24 24">
<title>open</title>
<path class="path1" d="M4 1h7q0.414 0 0.707 0.293t0.293 0.707-0.293 0.707-0.707 0.293h-7q-0.414 0-0.707 0.293t-0.293 0.707v16q0 0.414 0.293 0.707t0.707 0.293h16q0.414 0 0.707-0.293t0.293-0.707v-7q0-0.414 0.293-0.707t0.707-0.293 0.707 0.293 0.293 0.707v7q0 1.242-0.879 2.121t-2.121 0.879h-16q-1.242 0-2.121-0.879t-0.879-2.121v-16q0-1.242 0.879-2.121t2.121-0.879zM16 1h6q0.414 0 0.707 0.293t0.293 0.707v6q0 0.414-0.293 0.707t-0.707 0.293-0.707-0.293-0.293-0.707v-3.586l-8.297 8.297q-0.289 0.289-0.703 0.289-0.43 0-0.715-0.285t-0.285-0.715q0-0.414 0.289-0.703l8.297-8.297h-3.586q-0.414 0-0.707-0.293t-0.293-0.707 0.293-0.707 0.707-0.293z"></path>
</symbol>
<symbol id="icon-ellipsis" viewBox="0 0 24 24">
<title>ellipsis</title>
<path class="path1" d="M20 9q1.242 0 2.121 0.879t0.879 2.121-0.879 2.121-2.121 0.879-2.121-0.879-0.879-2.121 0.879-2.121 2.121-0.879zM4 9q1.242 0 2.121 0.879t0.879 2.121-0.879 2.121-2.121 0.879-2.121-0.879-0.879-2.121 0.879-2.121 2.121-0.879zM4 11q-0.414 0-0.707 0.293t-0.293 0.707 0.293 0.707 0.707 0.293 0.707-0.293 0.293-0.707-0.293-0.707-0.707-0.293zM12 9q1.242 0 2.121 0.879t0.879 2.121-0.879 2.121-2.121 0.879-2.121-0.879-0.879-2.121 0.879-2.121 2.121-0.879zM12 11q-0.414 0-0.707 0.293t-0.293 0.707 0.293 0.707 0.707 0.293 0.707-0.293 0.293-0.707-0.293-0.707-0.707-0.293zM20 11q-0.414 0-0.707 0.293t-0.293 0.707 0.293 0.707 0.707 0.293 0.707-0.293 0.293-0.707-0.293-0.707-0.707-0.293z"></path>
</symbol>
</defs>
</svg>
